<svg version="1.1" xmlns="http://www.w3.org/2000/svg" xmlns:xlink="http://www.w3.org/1999/xlink" width="1540" height="1027"><defs><clipPath id="pMSeTlkDKpAB"><path fill="none" stroke="none" d=" M 0 0 L 1540 0 L 1540 1027 L 0 1027 L 0 0 Z"/></clipPath></defs><g transform="scale(1,1)" clip-path="url(#pMSeTlkDKpAB)"><g><rect fill="rgb(255,255,255)" stroke="none" x="0" y="0" width="1540" height="1027" fill-opacity="1"/><path fill="rgb(21,101,192)" stroke="none" paint-order="stroke fill markers" fill-rule="evenodd" d=" M 934.8387578878808 491.0031296936115 L 911 500 L 911.8292871358149 519.4105003145868 L 934.7729650205429 508.63561814015407 Z" fill-opacity="0.09803921568627451"/><path fill="rgb(21,101,192)" stroke="none" paint-order="stroke fill markers" fill-rule="evenodd" d=" M 934.8536691304843 487.00691667586 L 906 486 L 904.9630729314224 506.52042032190377 L 934.7729650205429 508.63561814015407 Z" fill-opacity="0.09803921568627451"/><path fill="none" stroke="rgb(211,47,47)" paint-order="fill stroke markers" d=" M 591.9072490868848 484.30715656345615 C 598.4274890875025 482.04217204964925 601.8770552314078 474.9203404356615 599.6120707176009 468.4001004350437 C 597.347086203794 461.87986043442595 590.2252545898061 458.4302942905208 583.7050145891883 460.6952788043277" stroke-opacity="0.6980392156862745" stroke-linecap="round" stroke-linejoin="round" stroke-miterlimit="10" stroke-width="1.5"/><path fill="none" stroke="rgb(211,47,47)" paint-order="fill stroke markers" d=" M 738.3260549781447 612.4722805029226 C 744.0077729465847 609.088798417562 745.8708612423525 601.7400017847295 742.4873791569919 596.0582838162896 C 739.1038970716313 590.3765658478496 731.7551004387989 588.513477552082 726.0733824703589 591.8969596374426" stroke-opacity="0.6980392156862745" stroke-linecap="round" stroke-linejoin="round" stroke-miterlimit="10" stroke-width="1.5"/><path fill="none" stroke="rgb(97,97,97)" paint-order="fill stroke markers" d=" M 371 420 L 23.928528952115812 835.9153481810395" stroke-opacity="0.6980392156862745" stroke-linecap="round" stroke-linejoin="round" stroke-miterlimit="10"/><path fill="none" stroke="rgb(97,97,97)" paint-order="fill stroke markers" d=" M 23.928528952115812 835.9153481810395 L 1243.4304547991587 850.4634333987989" stroke-opacity="0.6980392156862745" stroke-linecap="round" stroke-linejoin="round" stroke-miterlimit="10"/><path fill="none" stroke="rgb(0,0,0)" paint-order="fill stroke markers" d=" M 1243.4304547991587 850.4634333987989 L 1498.401257242585 269.31376656828866" stroke-opacity="0.6980392156862745" stroke-linecap="round" stroke-linejoin="round" stroke-miterlimit="10"/><path fill="none" stroke="rgb(21,101,192)" paint-order="fill stroke markers" d=" M 936.28586905014 103.17733820811418 L 934.7729650205429 508.63561814015407" stroke-opacity="0.6980392156862745" stroke-linejoin="round" stroke-miterlimit="10" stroke-width="2" stroke-dasharray="6,4"/><path fill="none" stroke="rgb(21,101,192)" paint-order="fill stroke markers" d=" M 562.4785173490683 482.2190044500701 L 934.7729650205429 508.63561814015407" stroke-opacity="0.6980392156862745" stroke-linecap="round" stroke-linejoin="round" stroke-miterlimit="10" stroke-width="2"/><path fill="none" stroke="rgb(0,0,0)" paint-order="fill stroke markers" d=" M 388 71 L 393 558" stroke-opacity="0.6980392156862745" stroke-linecap="round" stroke-linejoin="round" stroke-miterlimit="10" stroke-width="1.5"/><path fill="none" stroke="rgb(21,101,192)" paint-order="fill stroke markers" d=" M 932.2514193297767 508.4566987422649 L 710.7808485616118 627.2466793017197" stroke-opacity="0.6980392156862745" stroke-linecap="round" stroke-linejoin="round" stroke-miterlimit="10" stroke-width="2"/><path fill="none" stroke="rgb(21,101,192)" paint-order="fill stroke markers" d=" M 936.2753328965824 106.0010273615544 L 710.7808485616118 627.2466793017197" stroke-opacity="0.6980392156862745" stroke-linejoin="round" stroke-miterlimit="10" stroke-width="1.5" stroke-dasharray="9.5,8"/><path fill="none" stroke="rgb(21,101,192)" paint-order="fill stroke markers" d=" M 934.8387578878808 491.0031296936115 L 911 500" stroke-opacity="0.6980392156862745" stroke-linecap="round" stroke-linejoin="round" stroke-miterlimit="10" stroke-width="0.5"/><path fill="none" stroke="rgb(21,101,192)" paint-order="fill stroke markers" d=" M 911 500 L 911.8292871358149 519.4105003145868" stroke-opacity="0.6980392156862745" stroke-linecap="round" stroke-linejoin="round" stroke-miterlimit="10" stroke-width="0.5"/><path fill="none" stroke="rgb(21,101,192)" paint-order="fill stroke markers" d=" M 911.8292871358149 519.4105003145868 L 934.7729650205429 508.63561814015407" stroke-opacity="0.6980392156862745" stroke-linecap="round" stroke-linejoin="round" stroke-miterlimit="10" stroke-width="2.5"/><path fill="none" stroke="rgb(21,101,192)" paint-order="fill stroke markers" d=" M 934.7729650205429 508.63561814015407 L 934.8387578878808 491.0031296936115" stroke-opacity="0.6980392156862745" stroke-linecap="round" stroke-linejoin="round" stroke-miterlimit="10" stroke-width="2.5"/><path fill="none" stroke="rgb(21,101,192)" paint-order="fill stroke markers" d=" M 934.8536691304843 487.00691667586 L 906 486" stroke-opacity="0.6980392156862745" stroke-linecap="round" stroke-linejoin="round" stroke-miterlimit="10" stroke-width="0.5"/><path fill="none" stroke="rgb(21,101,192)" paint-order="fill stroke markers" d=" M 906 486 L 904.9630729314224 506.52042032190377" stroke-opacity="0.6980392156862745" stroke-linecap="round" stroke-linejoin="round" stroke-miterlimit="10" stroke-width="0.5"/><path fill="none" stroke="rgb(21,101,192)" paint-order="fill stroke markers" d=" M 904.9630729314224 506.52042032190377 L 934.7729650205429 508.63561814015407" stroke-opacity="0.6980392156862745" stroke-linecap="round" stroke-linejoin="round" stroke-miterlimit="10" stroke-width="2.5"/><path fill="none" stroke="rgb(21,101,192)" paint-order="fill stroke markers" d=" M 934.7729650205429 508.63561814015407 L 934.8536691304843 487.00691667586" stroke-opacity="0.6980392156862745" stroke-linecap="round" stroke-linejoin="round" stroke-miterlimit="10" stroke-width="2.5"/><path fill="none" stroke="rgb(0,0,0)" paint-order="fill stroke markers" d=" M 562.4785173490683 482.2190044500701 L 926.4554396815024 113.14542019153646" stroke-opacity="0.6980392156862745" stroke-linecap="round" stroke-linejoin="round" stroke-miterlimit="10"/><path fill="rgb(0,0,0)" stroke="none" paint-order="stroke fill markers" fill-rule="evenodd" d=" M 936.28586905014 103.17733820811418 L 928.9474601773579 115.60302753369585 L 923.9634191856469 110.68781284937707 Z" fill-opacity="0.6980392156862745"/><path fill="none" stroke="rgb(0,0,0)" paint-order="fill stroke markers" d=" M 562.4785173490683 482.2190044500701 L 799.3732004838821 713.8828279305095" stroke-opacity="0.6980392156862745" stroke-linecap="round" stroke-linejoin="round" stroke-miterlimit="10"/><path fill="rgb(0,0,0)" stroke="none" paint-order="stroke fill markers" fill-rule="evenodd" d=" M 809.3825869783382 723.6711976622166 L 796.9261080509553 716.3851745541235 L 801.8202929168089 711.3804813068955 Z" fill-opacity="0.6980392156862745"/><path fill="none" stroke="rgb(255,255,255)" paint-order="fill stroke markers" d=" M 372 420 C 372 420.5522847498308 371.5522847498308 421 371 421 C 370.4477152501692 421 370 420.5522847498308 370 420 C 370 419.4477152501692 370.4477152501692 419 371 419 C 371.5522847498308 419 372 419.4477152501692 372 420 Z" stroke-opacity="1" stroke-linecap="square" stroke-miterlimit="10" stroke-width="0.5"/><text fill="rgb(255,255,255)" stroke="none" font-family="geogebra-sans-serif, sans-serif" font-size="16px" font-style="normal" font-weight="normal" text-decoration="normal" x="375" y="418" text-anchor="start" dominant-baseline="alphabetic" fill-opacity="1">A</text><path fill="rgb(21,101,192)" stroke="none" paint-order="stroke fill markers" d=" M 683 919 C 683 921.761423749154 680.761423749154 924 678 924 C 675.238576250846 924 673 921.761423749154 673 919 C 673 916.238576250846 675.238576250846 914 678 914 C 680.761423749154 914 683 916.238576250846 683 919 Z" fill-opacity="1"/><path fill="none" stroke="rgb(0,0,0)" paint-order="fill stroke markers" d=" M 683 919 C 683 921.761423749154 680.761423749154 924 678 924 C 675.238576250846 924 673 921.761423749154 673 919 C 673 916.238576250846 675.238576250846 914 678 914 C 680.761423749154 914 683 916.238576250846 683 919 Z" stroke-opacity="1" stroke-linecap="round" stroke-linejoin="round" stroke-miterlimit="10"/><text fill="none" stroke="rgb(255,255,255)" font-family="geogebra-sans-serif, sans-serif" font-size="16px" font-style="normal" font-weight="normal" text-decoration="normal" x="682" y="909" text-anchor="start" dominant-baseline="alphabetic" stroke-opacity="1" stroke-linecap="round" stroke-linejoin="bevel" stroke-miterlimit="10" stroke-width="3">L</text><text fill="rgb(21,101,192)" stroke="none" font-family="geogebra-sans-serif, sans-serif" font-size="16px" font-style="normal" font-weight="normal" text-decoration="normal" x="682" y="909" text-anchor="start" dominant-baseline="alphabetic" fill-opacity="1">L</text><text fill="none" stroke="rgb(255,255,255)" font-family="geogebra-sans-serif, sans-serif" font-size="14px" font-style="normal" font-weight="normal" text-decoration="normal" x="690" y="916" text-anchor="start" dominant-baseline="alphabetic" stroke-opacity="1" stroke-linecap="round" stroke-linejoin="bevel" stroke-miterlimit="10" stroke-width="3">1</text><text fill="rgb(21,101,192)" stroke="none" font-family="geogebra-sans-serif, sans-serif" font-size="14px" font-style="normal" font-weight="normal" text-decoration="normal" x="690" y="916" text-anchor="start" dominant-baseline="alphabetic" fill-opacity="1">1</text><path fill="rgb(255,255,255)" stroke="none" paint-order="stroke fill markers" d=" M 949 484 L 1051 484 L 1051 529 L 949 529 L 949 484 Z" fill-opacity="1"/><g transform="scale(25,25)"><g transform="translate(38.3202775,20.385557999999996)"><path fill="rgb(0,102,153)" stroke="none" paint-order="stroke fill markers" d=" M 0.25 -0.6940000000000001 L 0.383 -0.558 L 0.365 -0.54 L 0.25 -0.642 L 0.134 -0.54 L 0.116 -0.558 L 0.25 -0.6940000000000001 Z"/></g><g transform="translate(38.28,20.638334999999998)"><path fill="rgb(0,102,153)" stroke="none" paint-order="stroke fill markers" d=" M 0.597 -0.5690000000000001 L 0.597 -0.5690000000000001 L 0.34900000000000003 -0.28400000000000003 Q 0.341 -0.275 0.335 -0.253 L 0.3 -0.112 Q 0.28600000000000003 -0.053 0.28600000000000003 -0.049 Q 0.28600000000000003 -0.037 0.3 -0.035 Q 0.304 -0.034 0.313 -0.033 Q 0.33 -0.031 0.35100000000000003 -0.031 Q 0.377 -0.031 0.379 -0.02 Q 0.379 0 0.36 0 L 0.233 -0.003 L 0.232 -0.003 L 0.107 0 L 0.106 0 Q 0.092 0 0.092 -0.011 Q 0.092 -0.029 0.105 -0.03 Q 0.109 -0.031 0.11900000000000001 -0.031 Q 0.182 -0.032 0.194 -0.042 L 0.196 -0.044 L 0.197 -0.045 Q 0.20400000000000001 -0.053 0.213 -0.09 L 0.258 -0.272 Q 0.258 -0.277 0.254 -0.289 L 0.131 -0.618 Q 0.123 -0.641 0.11 -0.646 Q 0.096 -0.652 0.058 -0.652 Q 0.036000000000000004 -0.652 0.035 -0.663 Q 0.035 -0.683 0.054 -0.683 L 0.165 -0.68 L 0.166 -0.68 L 0.291 -0.683 L 0.292 -0.683 Q 0.307 -0.683 0.307 -0.672 Q 0.299 -0.653 0.28300000000000003 -0.652 Q 0.224 -0.652 0.224 -0.628 Q 0.224 -0.625 0.23 -0.611 L 0.34 -0.314 L 0.5720000000000001 -0.581 Q 0.599 -0.615 0.599 -0.629 Q 0.599 -0.651 0.5630000000000001 -0.652 Q 0.548 -0.652 0.548 -0.664 Q 0.548 -0.683 0.5670000000000001 -0.683 L 0.662 -0.68 L 0.667 -0.68 L 0.747 -0.683 L 0.749 -0.683 Q 0.762 -0.683 0.762 -0.671 Q 0.762 -0.655 0.748 -0.653 Q 0.747 -0.652 0.742 -0.652 Q 0.677 -0.647 0.625 -0.597 L 0.611 -0.583 L 0.597 -0.5690000000000001 Z"/></g><g transform="translate(39.13833561111111,20.638334999999998)"><path fill="rgb(0,102,153)" stroke="none" paint-order="stroke fill markers" d=" M 0.687 -0.327 L 0.09 -0.327 Q 0.058 -0.327 0.056 -0.34700000000000003 Q 0.056 -0.367 0.089 -0.367 L 0.6880000000000001 -0.367 Q 0.72 -0.367 0.721 -0.34700000000000003 Q 0.721 -0.327 0.687 -0.327 M 0.6880000000000001 -0.133 L 0.089 -0.133 Q 0.057 -0.133 0.056 -0.153 Q 0.056 -0.17300000000000001 0.09 -0.17300000000000001 L 0.687 -0.17300000000000001 Q 0.719 -0.17300000000000001 0.721 -0.153 Q 0.721 -0.133 0.6880000000000001 -0.133 Z"/></g><g transform="translate(40.19389522222222,20.638334999999998)"><path fill="rgb(0,102,153)" stroke="none" paint-order="stroke fill markers" d=" M 0.485 -0.41100000000000003 L 0.647 -0.585 Q 0.666 -0.606 0.666 -0.621 Q 0.666 -0.648 0.626 -0.652 Q 0.614 -0.654 0.614 -0.663 Q 0.614 -0.683 0.633 -0.683 L 0.743 -0.68 L 0.744 -0.68 L 0.837 -0.683 L 0.838 -0.683 Q 0.851 -0.683 0.851 -0.672 Q 0.851 -0.655 0.837 -0.653 Q 0.835 -0.652 0.8290000000000001 -0.652 Q 0.759 -0.649 0.7020000000000001 -0.601 Q 0.6890000000000001 -0.59 0.552 -0.442 Q 0.519 -0.406 0.497 -0.384 Q 0.503 -0.368 0.626 -0.075 Q 0.639 -0.044 0.65 -0.038 L 0.651 -0.038 L 0.651 -0.038 L 0.651 -0.038 L 0.651 -0.038 L 0.652 -0.038 L 0.652 -0.037 Q 0.665 -0.032 0.712 -0.031 Q 0.73 -0.031 0.73 -0.019 Q 0.73 0 0.711 0 L 0.601 -0.003 L 0.6 -0.003 L 0.47500000000000003 0 L 0.47400000000000003 0 Q 0.459 0 0.459 -0.012 Q 0.459 -0.028 0.47400000000000003 -0.03 Q 0.47600000000000003 -0.031 0.47900000000000004 -0.031 Q 0.524 -0.036000000000000004 0.536 -0.056 Q 0.537 -0.058 0.537 -0.06 L 0.532 -0.074 L 0.431 -0.313 L 0.341 -0.215 L 0.23900000000000002 -0.107 Q 0.212 -0.078 0.212 -0.062 Q 0.212 -0.035 0.252 -0.031 Q 0.264 -0.031 0.264 -0.02 Q 0.264 0 0.246 0 L 0.135 -0.003 L 0.134 -0.003 L 0.041 0 L 0.04 0 Q 0.027 0 0.027 -0.011 Q 0.027 -0.028 0.041 -0.03 Q 0.043000000000000003 -0.031 0.049 -0.031 Q 0.134 -0.036000000000000004 0.196 -0.10300000000000001 L 0.209 -0.114 L 0.42 -0.341 L 0.302 -0.62 Q 0.293 -0.641 0.278 -0.647 L 0.277 -0.647 L 0.277 -0.647 L 0.277 -0.647 Q 0.262 -0.652 0.227 -0.652 Q 0.20500000000000002 -0.652 0.20400000000000001 -0.663 Q 0.20400000000000001 -0.683 0.222 -0.683 L 0.333 -0.68 L 0.334 -0.68 L 0.459 -0.683 L 0.46 -0.683 Q 0.47500000000000003 -0.683 0.47500000000000003 -0.671 Q 0.47500000000000003 -0.654 0.455 -0.652 Q 0.40900000000000003 -0.648 0.396 -0.623 L 0.401 -0.61 L 0.485 -0.41100000000000003 Z"/></g><g transform="translate(41.21698822222222,20.374445)"><path fill="rgb(0,102,153)" stroke="none" paint-order="stroke fill markers" d=" M 0.25 -0.6940000000000001 L 0.383 -0.558 L 0.365 -0.54 L 0.25 -0.642 L 0.134 -0.54 L 0.116 -0.558 L 0.25 -0.6940000000000001 Z"/></g><g transform="translate(41.10084022222222,20.638335000000005)"><path fill="rgb(0,102,153)" stroke="none" paint-order="stroke fill markers" d=" M 0.028 0.169 L 0.18 -0.437 Q 0.209 -0.551 0.292 -0.631 Q 0.37 -0.705 0.456 -0.705 Q 0.539 -0.705 0.5750000000000001 -0.639 Q 0.59 -0.611 0.59 -0.577 Q 0.59 -0.502 0.528 -0.439 Q 0.507 -0.418 0.482 -0.403 Q 0.549 -0.357 0.549 -0.264 Q 0.549 -0.161 0.46900000000000003 -0.076 Q 0.392 0.005 0.296 0.012 L 0.28300000000000003 0.012 Q 0.186 0.012 0.14100000000000001 -0.063 Q 0.129 -0.083 0.123 -0.105 L 0.048 0.188 L 0.047 0.19 Q 0.043000000000000003 0.194 0.037 0.194 Q 0.025 0.194 0.025 0.184 Q 0.025 0.181 0.028 0.169 M 0.328 -0.401 Q 0.34500000000000003 -0.395 0.371 -0.395 Q 0.401 -0.395 0.419 -0.403 Q 0.406 -0.40900000000000003 0.379 -0.40900000000000003 Q 0.34400000000000003 -0.40900000000000003 0.328 -0.401 M 0.45 -0.421 Q 0.511 -0.467 0.525 -0.577 L 0.525 -0.578 L 0.525 -0.58 Q 0.527 -0.594 0.527 -0.602 Q 0.527 -0.673 0.46900000000000003 -0.682 Q 0.462 -0.683 0.455 -0.683 Q 0.372 -0.683 0.299 -0.606 Q 0.23 -0.534 0.2 -0.41600000000000004 L 0.154 -0.231 Q 0.14100000000000001 -0.179 0.14100000000000001 -0.156 Q 0.14100000000000001 -0.074 0.2 -0.034 Q 0.234 -0.01 0.281 -0.01 Q 0.359 -0.01 0.41500000000000004 -0.094 Q 0.422 -0.10300000000000001 0.427 -0.113 Q 0.462 -0.179 0.47400000000000003 -0.274 Q 0.47600000000000003 -0.291 0.47600000000000003 -0.302 Q 0.47600000000000003 -0.355 0.446 -0.386 Q 0.41400000000000003 -0.373 0.371 -0.373 Q 0.303 -0.373 0.303 -0.399 Q 0.303 -0.431 0.381 -0.431 Q 0.422 -0.431 0.45 -0.421 Z"/></g></g><g transform="scale(25,25)"><g transform="translate(30.16,28.964444)"><path fill="rgb(0,0,0)" stroke="none" paint-order="stroke fill markers" d=" M 0.354 -0.623 L 0.354 -0.047 L 0.494 -0.047 L 0.494 0 Q 0.45 -0.003 0.295 -0.003 Q 0.14 -0.003 0.096 0 L 0.096 -0.047 L 0.23500000000000001 -0.047 L 0.23500000000000001 -0.5640000000000001 Q 0.17300000000000001 -0.544 0.105 -0.544 L 0.085 -0.544 L 0.085 -0.591 L 0.105 -0.591 Q 0.229 -0.591 0.306 -0.648 Q 0.315 -0.655 0.328 -0.655 Q 0.34600000000000003 -0.655 0.35000000000000003 -0.6485 Q 0.354 -0.642 0.354 -0.623 Z"/></g></g><g transform="scale(25,25)"><g transform="translate(28.44,11.443332)"><path fill="rgb(0,0,0)" stroke="none" paint-order="stroke fill markers" d=" M 0.597 -0.5690000000000001 L 0.597 -0.5690000000000001 L 0.34900000000000003 -0.28400000000000003 Q 0.341 -0.275 0.335 -0.253 L 0.3 -0.112 Q 0.28600000000000003 -0.053 0.28600000000000003 -0.049 Q 0.28600000000000003 -0.037 0.3 -0.035 Q 0.304 -0.034 0.313 -0.033 Q 0.33 -0.031 0.35100000000000003 -0.031 Q 0.377 -0.031 0.379 -0.02 Q 0.379 0 0.36 0 L 0.233 -0.003 L 0.232 -0.003 L 0.107 0 L 0.106 0 Q 0.092 0 0.092 -0.011 Q 0.092 -0.029 0.105 -0.03 Q 0.109 -0.031 0.11900000000000001 -0.031 Q 0.182 -0.032 0.194 -0.042 L 0.196 -0.044 L 0.197 -0.045 Q 0.20400000000000001 -0.053 0.213 -0.09 L 0.258 -0.272 Q 0.258 -0.277 0.254 -0.289 L 0.131 -0.618 Q 0.123 -0.641 0.11 -0.646 Q 0.096 -0.652 0.058 -0.652 Q 0.036000000000000004 -0.652 0.035 -0.663 Q 0.035 -0.683 0.054 -0.683 L 0.165 -0.68 L 0.166 -0.68 L 0.291 -0.683 L 0.292 -0.683 Q 0.307 -0.683 0.307 -0.672 Q 0.299 -0.653 0.28300000000000003 -0.652 Q 0.224 -0.652 0.224 -0.628 Q 0.224 -0.625 0.23 -0.611 L 0.34 -0.314 L 0.5720000000000001 -0.581 Q 0.599 -0.615 0.599 -0.629 Q 0.599 -0.651 0.5630000000000001 -0.652 Q 0.548 -0.652 0.548 -0.664 Q 0.548 -0.683 0.5670000000000001 -0.683 L 0.662 -0.68 L 0.667 -0.68 L 0.747 -0.683 L 0.749 -0.683 Q 0.762 -0.683 0.762 -0.671 Q 0.762 -0.655 0.748 -0.653 Q 0.747 -0.652 0.742 -0.652 Q 0.677 -0.647 0.625 -0.597 L 0.611 -0.583 L 0.597 -0.5690000000000001 Z"/></g></g><g transform="scale(35,35)"><g transform="translate(5.942857142857143,22.064285714285713)"><path fill="rgb(0,0,0)" stroke="none" paint-order="stroke fill markers" d=" M 0.385 -0.557 L 0.385 -0.557 L 0.353 -0.428 Q 0.325 -0.315 0.254 -0.14200000000000002 Q 0.181 0.03 0.127 0.048 Q 0.12 0.05 0.114 0.05 Q 0.088 0.05 0.059000000000000004 0.035 Q 0.028 0.019 0.027 -0.002 Q 0.027 -0.034 0.048 -0.064 Q 0.057 -0.075 0.063 -0.075 Q 0.066 -0.075 0.07200000000000001 -0.07 Q 0.10300000000000001 -0.045 0.14400000000000002 -0.042 Q 0.186 -0.042 0.254 -0.225 L 0.276 -0.28600000000000003 Q 0.338 -0.459 0.365 -0.651 Q 0.369 -0.673 0.381 -0.683 L 0.382 -0.684 Q 0.383 -0.685 0.385 -0.686 Q 0.41200000000000003 -0.705 0.429 -0.705 Q 0.44 -0.705 0.442 -0.6950000000000001 L 0.442 -0.6940000000000001 L 0.442 -0.6940000000000001 Q 0.442 -0.6910000000000001 0.443 -0.685 Q 0.515 -0.273 0.591 -0.13 Q 0.686 -0.222 0.791 -0.34400000000000003 L 1.074 -0.68 Q 1.095 -0.704 1.099 -0.704 Q 1.107 -0.704 1.107 -0.6890000000000001 Q 1.107 -0.686 1.105 -0.672 Q 1.067 -0.512 1.041 -0.266 Q 1.032 -0.179 1.032 -0.134 Q 1.032 -0.054 1.043 -0.038 Q 1.05 -0.027 1.063 -0.026000000000000002 Q 1.088 -0.042 1.107 -0.042 Q 1.116 -0.042 1.116 -0.035 Q 1.116 -0.018000000000000002 1.069 0.007 Q 1.049 0.017 1.03 0.023 Q 1.012 0.029 0.998 0.029 Q 0.96 0.029 0.9520000000000001 -0.006 Q 0.9470000000000001 -0.025 0.9470000000000001 -0.092 Q 0.9470000000000001 -0.217 0.99 -0.47500000000000003 L 0.997 -0.517 L 0.778 -0.26 Q 0.67 -0.135 0.5750000000000001 -0.043000000000000003 Q 0.5650000000000001 -0.034 0.558 -0.034 Q 0.55 -0.034 0.546 -0.039 Q 0.501 -0.115 0.47600000000000003 -0.193 Q 0.442 -0.294 0.41000000000000003 -0.442 L 0.386 -0.557 L 0.385 -0.557 Z"/></g><g transform="translate(7.143757142857143,22.064285714285713)"><path fill="rgb(0,0,0)" stroke="none" paint-order="stroke fill markers" d=" M 0.331 0.24 L 0.331 0.24 Q 0.331 0.25 0.321 0.25 Q 0.309 0.25 0.268 0.209 Q 0.20600000000000002 0.147 0.165 0.062 Q 0.099 -0.074 0.099 -0.25 Q 0.099 -0.419 0.162 -0.555 Q 0.214 -0.666 0.294 -0.733 Q 0.315 -0.75 0.321 -0.75 Q 0.331 -0.75 0.331 -0.74 Q 0.331 -0.735 0.318 -0.723 Q 0.157 -0.559 0.157 -0.25 Q 0.157 0.058 0.314 0.218 Q 0.331 0.23500000000000001 0.331 0.24 Z"/></g><g transform="translate(7.532647142857143,22.064285714285713)"><path fill="rgb(0,0,0)" stroke="none" paint-order="stroke fill markers" d=" M 0.485 -0.41100000000000003 L 0.647 -0.585 Q 0.666 -0.606 0.666 -0.621 Q 0.666 -0.648 0.626 -0.652 Q 0.614 -0.654 0.614 -0.663 Q 0.614 -0.683 0.633 -0.683 L 0.743 -0.68 L 0.744 -0.68 L 0.837 -0.683 L 0.838 -0.683 Q 0.851 -0.683 0.851 -0.672 Q 0.851 -0.655 0.837 -0.653 Q 0.835 -0.652 0.8290000000000001 -0.652 Q 0.759 -0.649 0.7020000000000001 -0.601 Q 0.6890000000000001 -0.59 0.552 -0.442 Q 0.519 -0.406 0.497 -0.384 Q 0.503 -0.368 0.626 -0.075 Q 0.639 -0.044 0.65 -0.038 L 0.651 -0.038 L 0.651 -0.038 L 0.651 -0.038 L 0.651 -0.038 L 0.652 -0.038 L 0.652 -0.037 Q 0.665 -0.032 0.712 -0.031 Q 0.73 -0.031 0.73 -0.019 Q 0.73 0 0.711 0 L 0.601 -0.003 L 0.6 -0.003 L 0.47500000000000003 0 L 0.47400000000000003 0 Q 0.459 0 0.459 -0.012 Q 0.459 -0.028 0.47400000000000003 -0.03 Q 0.47600000000000003 -0.031 0.47900000000000004 -0.031 Q 0.524 -0.036000000000000004 0.536 -0.056 Q 0.537 -0.058 0.537 -0.06 L 0.532 -0.074 L 0.431 -0.313 L 0.341 -0.215 L 0.23900000000000002 -0.107 Q 0.212 -0.078 0.212 -0.062 Q 0.212 -0.035 0.252 -0.031 Q 0.264 -0.031 0.264 -0.02 Q 0.264 0 0.246 0 L 0.135 -0.003 L 0.134 -0.003 L 0.041 0 L 0.04 0 Q 0.027 0 0.027 -0.011 Q 0.027 -0.028 0.041 -0.03 Q 0.043000000000000003 -0.031 0.049 -0.031 Q 0.134 -0.036000000000000004 0.196 -0.10300000000000001 L 0.209 -0.114 L 0.42 -0.341 L 0.302 -0.62 Q 0.293 -0.641 0.278 -0.647 L 0.277 -0.647 L 0.277 -0.647 L 0.277 -0.647 Q 0.262 -0.652 0.227 -0.652 Q 0.20500000000000002 -0.652 0.20400000000000001 -0.663 Q 0.20400000000000001 -0.683 0.222 -0.683 L 0.333 -0.68 L 0.334 -0.68 L 0.459 -0.683 L 0.46 -0.683 Q 0.47500000000000003 -0.683 0.47500000000000003 -0.671 Q 0.47500000000000003 -0.654 0.455 -0.652 Q 0.40900000000000003 -0.648 0.396 -0.623 L 0.401 -0.61 L 0.485 -0.41100000000000003 Z"/></g><g transform="translate(8.439592142857142,22.064285714285713)"><path fill="rgb(0,0,0)" stroke="none" paint-order="stroke fill markers" d=" M 0.289 -0.25 L 0.289 -0.25 Q 0.289 -0.081 0.226 0.055 Q 0.17400000000000002 0.166 0.094 0.233 Q 0.073 0.25 0.067 0.25 Q 0.057 0.25 0.057 0.24 Q 0.057 0.23500000000000001 0.07 0.223 Q 0.231 0.059000000000000004 0.231 -0.25 Q 0.231 -0.555 0.081 -0.712 L 0.076 -0.717 Q 0.057 -0.735 0.057 -0.74 Q 0.057 -0.75 0.067 -0.75 Q 0.079 -0.75 0.12 -0.709 Q 0.182 -0.647 0.223 -0.562 Q 0.289 -0.426 0.289 -0.25 Z"/></g></g><g transform="scale(35,35)"><g transform="translate(7.142857142857143,3.5847177857142856)"><path fill="rgb(0,0,0)" stroke="none" paint-order="stroke fill markers" d=" M 0.385 -0.557 L 0.385 -0.557 L 0.353 -0.428 Q 0.325 -0.315 0.254 -0.14200000000000002 Q 0.181 0.03 0.127 0.048 Q 0.12 0.05 0.114 0.05 Q 0.088 0.05 0.059000000000000004 0.035 Q 0.028 0.019 0.027 -0.002 Q 0.027 -0.034 0.048 -0.064 Q 0.057 -0.075 0.063 -0.075 Q 0.066 -0.075 0.07200000000000001 -0.07 Q 0.10300000000000001 -0.045 0.14400000000000002 -0.042 Q 0.186 -0.042 0.254 -0.225 L 0.276 -0.28600000000000003 Q 0.338 -0.459 0.365 -0.651 Q 0.369 -0.673 0.381 -0.683 L 0.382 -0.684 Q 0.383 -0.685 0.385 -0.686 Q 0.41200000000000003 -0.705 0.429 -0.705 Q 0.44 -0.705 0.442 -0.6950000000000001 L 0.442 -0.6940000000000001 L 0.442 -0.6940000000000001 Q 0.442 -0.6910000000000001 0.443 -0.685 Q 0.515 -0.273 0.591 -0.13 Q 0.686 -0.222 0.791 -0.34400000000000003 L 1.074 -0.68 Q 1.095 -0.704 1.099 -0.704 Q 1.107 -0.704 1.107 -0.6890000000000001 Q 1.107 -0.686 1.105 -0.672 Q 1.067 -0.512 1.041 -0.266 Q 1.032 -0.179 1.032 -0.134 Q 1.032 -0.054 1.043 -0.038 Q 1.05 -0.027 1.063 -0.026000000000000002 Q 1.088 -0.042 1.107 -0.042 Q 1.116 -0.042 1.116 -0.035 Q 1.116 -0.018000000000000002 1.069 0.007 Q 1.049 0.017 1.03 0.023 Q 1.012 0.029 0.998 0.029 Q 0.96 0.029 0.9520000000000001 -0.006 Q 0.9470000000000001 -0.025 0.9470000000000001 -0.092 Q 0.9470000000000001 -0.217 0.99 -0.47500000000000003 L 0.997 -0.517 L 0.778 -0.26 Q 0.67 -0.135 0.5750000000000001 -0.043000000000000003 Q 0.5650000000000001 -0.034 0.558 -0.034 Q 0.55 -0.034 0.546 -0.039 Q 0.501 -0.115 0.47600000000000003 -0.193 Q 0.442 -0.294 0.41000000000000003 -0.442 L 0.386 -0.557 L 0.385 -0.557 Z"/></g><g transform="translate(8.343757142857143,3.5847177857142856)"><path fill="rgb(0,0,0)" stroke="none" paint-order="stroke fill markers" d=" M 0.331 0.24 L 0.331 0.24 Q 0.331 0.25 0.321 0.25 Q 0.309 0.25 0.268 0.209 Q 0.20600000000000002 0.147 0.165 0.062 Q 0.099 -0.074 0.099 -0.25 Q 0.099 -0.419 0.162 -0.555 Q 0.214 -0.666 0.294 -0.733 Q 0.315 -0.75 0.321 -0.75 Q 0.331 -0.75 0.331 -0.74 Q 0.331 -0.735 0.318 -0.723 Q 0.157 -0.559 0.157 -0.25 Q 0.157 0.058 0.314 0.218 Q 0.331 0.23500000000000001 0.331 0.24 Z"/></g><g transform="translate(8.732647142857143,3.5847177857142856)"><path fill="rgb(0,0,0)" stroke="none" paint-order="stroke fill markers" d=" M 0.485 -0.41100000000000003 L 0.647 -0.585 Q 0.666 -0.606 0.666 -0.621 Q 0.666 -0.648 0.626 -0.652 Q 0.614 -0.654 0.614 -0.663 Q 0.614 -0.683 0.633 -0.683 L 0.743 -0.68 L 0.744 -0.68 L 0.837 -0.683 L 0.838 -0.683 Q 0.851 -0.683 0.851 -0.672 Q 0.851 -0.655 0.837 -0.653 Q 0.835 -0.652 0.8290000000000001 -0.652 Q 0.759 -0.649 0.7020000000000001 -0.601 Q 0.6890000000000001 -0.59 0.552 -0.442 Q 0.519 -0.406 0.497 -0.384 Q 0.503 -0.368 0.626 -0.075 Q 0.639 -0.044 0.65 -0.038 L 0.651 -0.038 L 0.651 -0.038 L 0.651 -0.038 L 0.651 -0.038 L 0.652 -0.038 L 0.652 -0.037 Q 0.665 -0.032 0.712 -0.031 Q 0.73 -0.031 0.73 -0.019 Q 0.73 0 0.711 0 L 0.601 -0.003 L 0.6 -0.003 L 0.47500000000000003 0 L 0.47400000000000003 0 Q 0.459 0 0.459 -0.012 Q 0.459 -0.028 0.47400000000000003 -0.03 Q 0.47600000000000003 -0.031 0.47900000000000004 -0.031 Q 0.524 -0.036000000000000004 0.536 -0.056 Q 0.537 -0.058 0.537 -0.06 L 0.532 -0.074 L 0.431 -0.313 L 0.341 -0.215 L 0.23900000000000002 -0.107 Q 0.212 -0.078 0.212 -0.062 Q 0.212 -0.035 0.252 -0.031 Q 0.264 -0.031 0.264 -0.02 Q 0.264 0 0.246 0 L 0.135 -0.003 L 0.134 -0.003 L 0.041 0 L 0.04 0 Q 0.027 0 0.027 -0.011 Q 0.027 -0.028 0.041 -0.03 Q 0.043000000000000003 -0.031 0.049 -0.031 Q 0.134 -0.036000000000000004 0.196 -0.10300000000000001 L 0.209 -0.114 L 0.42 -0.341 L 0.302 -0.62 Q 0.293 -0.641 0.278 -0.647 L 0.277 -0.647 L 0.277 -0.647 L 0.277 -0.647 Q 0.262 -0.652 0.227 -0.652 Q 0.20500000000000002 -0.652 0.20400000000000001 -0.663 Q 0.20400000000000001 -0.683 0.222 -0.683 L 0.333 -0.68 L 0.334 -0.68 L 0.459 -0.683 L 0.46 -0.683 Q 0.47500000000000003 -0.683 0.47500000000000003 -0.671 Q 0.47500000000000003 -0.654 0.455 -0.652 Q 0.40900000000000003 -0.648 0.396 -0.623 L 0.401 -0.61 L 0.485 -0.41100000000000003 Z"/></g><g transform="translate(9.639592142857143,3.5847177857142856)"><path fill="rgb(0,0,0)" stroke="none" paint-order="stroke fill markers" d=" M 0.289 -0.25 L 0.289 -0.25 Q 0.289 -0.081 0.226 0.055 Q 0.17400000000000002 0.166 0.094 0.233 Q 0.073 0.25 0.067 0.25 Q 0.057 0.25 0.057 0.24 Q 0.057 0.23500000000000001 0.07 0.223 Q 0.231 0.059000000000000004 0.231 -0.25 Q 0.231 -0.555 0.081 -0.712 L 0.076 -0.717 Q 0.057 -0.735 0.057 -0.74 Q 0.057 -0.75 0.067 -0.75 Q 0.079 -0.75 0.12 -0.709 Q 0.182 -0.647 0.223 -0.562 Q 0.289 -0.426 0.289 -0.25 Z"/></g><g transform="translate(10.028482142857143,3.1718257857142858) scale(0.7,0.7)"><path fill="rgb(0,0,0)" stroke="none" paint-order="stroke fill markers" d=" M 0.40900000000000003 -0.633 L 0.40900000000000003 -0.04 L 0.6890000000000001 -0.04 Q 0.721 -0.04 0.722 -0.02 Q 0.722 0 0.6890000000000001 0 L 0.09 0 Q 0.057 0 0.056 -0.02 Q 0.056 -0.04 0.09 -0.04 L 0.369 -0.04 L 0.369 -0.632 Q 0.369 -0.665 0.389 -0.666 Q 0.40900000000000003 -0.666 0.40900000000000003 -0.633 Z"/></g></g><path fill="rgb(255,255,255)" stroke="none" paint-order="stroke fill markers" d=" M 948 304 L 976 304 L 976 343 L 948 343 L 948 304 Z" fill-opacity="1"/><g transform="scale(25,25)"><g transform="translate(38.30649400000001,13.254445)"><path fill="rgb(0,102,153)" stroke="none" paint-order="stroke fill markers" d=" M 0.25 -0.6940000000000001 L 0.383 -0.558 L 0.365 -0.54 L 0.25 -0.642 L 0.134 -0.54 L 0.116 -0.558 L 0.25 -0.6940000000000001 Z"/></g><g transform="translate(38.24,13.254445)"><path fill="rgb(0,102,153)" stroke="none" paint-order="stroke fill markers" d=" M 0.14100000000000001 -0.227 L 0.14100000000000001 -0.227 Q 0.076 -0.195 0.057 -0.137 Q 0.052000000000000005 -0.123 0.052000000000000005 -0.11 Q 0.052000000000000005 -0.036000000000000004 0.166 -0.025 Q 0.182 -0.024 0.198 -0.024 Q 0.316 -0.024 0.35100000000000003 -0.077 Q 0.353 -0.079 0.356 -0.084 Q 0.361 -0.091 0.366 -0.091 Q 0.377 -0.091 0.377 -0.081 Q 0.377 -0.065 0.34700000000000003 -0.036000000000000004 Q 0.28600000000000003 0.022 0.189 0.022 Q 0.08700000000000001 0.022 0.044 -0.043000000000000003 Q 0.026000000000000002 -0.07100000000000001 0.026000000000000002 -0.10400000000000001 Q 0.026000000000000002 -0.164 0.081 -0.213 Q 0.097 -0.228 0.117 -0.23900000000000002 Q 0.077 -0.269 0.077 -0.31 Q 0.077 -0.369 0.15 -0.41300000000000003 Q 0.217 -0.453 0.3 -0.453 Q 0.365 -0.453 0.41100000000000003 -0.419 Q 0.429 -0.406 0.429 -0.396 Q 0.429 -0.378 0.41100000000000003 -0.371 Q 0.406 -0.369 0.402 -0.369 Q 0.396 -0.369 0.382 -0.379 Q 0.342 -0.40700000000000003 0.29 -0.40700000000000003 Q 0.193 -0.40700000000000003 0.136 -0.367 Q 0.10200000000000001 -0.342 0.10200000000000001 -0.31 Q 0.10200000000000001 -0.273 0.14200000000000002 -0.252 Q 0.183 -0.271 0.23500000000000001 -0.271 Q 0.306 -0.271 0.308 -0.244 Q 0.308 -0.213 0.227 -0.213 Q 0.17400000000000002 -0.213 0.14100000000000001 -0.227 M 0.17400000000000002 -0.24 Q 0.193 -0.23500000000000001 0.227 -0.23500000000000001 Q 0.265 -0.23500000000000001 0.28200000000000003 -0.243 Q 0.26 -0.249 0.23500000000000001 -0.249 Q 0.2 -0.249 0.17400000000000002 -0.24 Z"/></g></g><g transform="scale(25,25)"><g transform="translate(26.970697,25.607777)"><path fill="rgb(0,0,0)" stroke="none" paint-order="stroke fill markers" d=" M 0.43 -0.559 L 0.069 -0.559 L 0.069 -0.59 L 0.43 -0.59 L 0.43 -0.559 Z"/></g><g transform="translate(26.92,25.607777)"><path fill="rgb(0,0,0)" stroke="none" paint-order="stroke fill markers" d=" M 0.486 -0.381 L 0.39 0.001 Q 0.366 0.099 0.28300000000000003 0.16 Q 0.222 0.20500000000000002 0.156 0.20500000000000002 Q 0.089 0.20500000000000002 0.061 0.159 Q 0.05 0.14 0.05 0.11800000000000001 Q 0.05 0.067 0.091 0.055 Q 0.099 0.053 0.106 0.053 Q 0.138 0.053 0.14200000000000002 0.081 Q 0.14300000000000002 0.084 0.14300000000000002 0.088 Q 0.14300000000000002 0.111 0.123 0.129 Q 0.109 0.14100000000000001 0.08 0.14100000000000001 Q 0.098 0.183 0.156 0.183 Q 0.218 0.183 0.266 0.12 Q 0.305 0.068 0.328 -0.021 Q 0.329 -0.025 0.331 -0.034 Q 0.28600000000000003 0.011 0.23 0.011 Q 0.15 0.011 0.121 -0.048 Q 0.108 -0.074 0.108 -0.108 Q 0.108 -0.163 0.161 -0.305 Q 0.163 -0.311 0.166 -0.318 Q 0.183 -0.364 0.183 -0.388 Q 0.183 -0.42 0.158 -0.42 Q 0.10300000000000001 -0.42 0.068 -0.329 L 0.068 -0.328 Q 0.062 -0.313 0.057 -0.296 Q 0.046 -0.279 0.041 -0.278 Q 0.029 -0.278 0.029 -0.28800000000000003 Q 0.029 -0.306 0.05 -0.35100000000000003 Q 0.094 -0.442 0.161 -0.442 Q 0.214 -0.442 0.23500000000000001 -0.397 Q 0.243 -0.38 0.243 -0.36 Q 0.243 -0.339 0.223 -0.28800000000000003 Q 0.17200000000000001 -0.156 0.17200000000000001 -0.092 Q 0.17200000000000001 -0.011 0.234 -0.011 Q 0.292 -0.011 0.335 -0.073 Q 0.34500000000000003 -0.088 0.34700000000000003 -0.096 L 0.392 -0.276 Q 0.399 -0.309 0.41200000000000003 -0.356 Q 0.422 -0.399 0.426 -0.41000000000000003 Q 0.439 -0.431 0.461 -0.431 Q 0.486 -0.426 0.49 -0.404 Q 0.49 -0.395 0.486 -0.381 Z"/></g></g><g transform="scale(25,25)"><g transform="translate(24.72,18.734445)"><path fill="rgb(204,0,0)" stroke="none" paint-order="stroke fill markers" d=" M 0.455 -0.5 L 0.455 -0.5 Q 0.455 -0.34700000000000003 0.377 -0.19 Q 0.307 -0.05 0.222 -0.005 Q 0.191 0.011 0.162 0.011 Q 0.08 0.011 0.052000000000000005 -0.101 Q 0.042 -0.14300000000000002 0.042 -0.194 Q 0.042 -0.35100000000000003 0.122 -0.509 Q 0.192 -0.646 0.277 -0.6900000000000001 Q 0.307 -0.705 0.335 -0.705 Q 0.422 -0.705 0.447 -0.578 Q 0.455 -0.54 0.455 -0.5 M 0.148 -0.363 L 0.148 -0.363 L 0.357 -0.363 Q 0.389 -0.495 0.389 -0.562 Q 0.389 -0.675 0.342 -0.682 Q 0.338 -0.683 0.334 -0.683 Q 0.28300000000000003 -0.683 0.225 -0.578 Q 0.187 -0.511 0.149 -0.368 Q 0.149 -0.365 0.148 -0.363 M 0.34800000000000003 -0.331 L 0.14 -0.331 Q 0.108 -0.21 0.108 -0.133 Q 0.108 -0.013000000000000001 0.162 -0.011 Q 0.218 -0.011 0.278 -0.128 Q 0.317 -0.202 0.34800000000000003 -0.331 Z"/></g><g transform="translate(25.189443999999998,18.884445) scale(0.7,0.7)"><path fill="rgb(204,0,0)" stroke="none" paint-order="stroke fill markers" d=" M 0.46 -0.32 Q 0.46 -0.17400000000000002 0.423 -0.094 Q 0.364 0.018000000000000002 0.249 0.022 Q 0.158 0.022 0.10300000000000001 -0.05 Q 0.092 -0.063 0.084 -0.079 Q 0.039 -0.162 0.039 -0.32 Q 0.039 -0.467 0.076 -0.547 Q 0.126 -0.659 0.23800000000000002 -0.666 L 0.25 -0.666 Q 0.339 -0.666 0.395 -0.595 L 0.395 -0.594 Q 0.40900000000000003 -0.5760000000000001 0.42 -0.554 Q 0.46 -0.46900000000000003 0.46 -0.32 M 0.249 0 L 0.249 0 Q 0.312 0 0.34600000000000003 -0.061 Q 0.36 -0.088 0.366 -0.125 Q 0.377 -0.189 0.377 -0.332 Q 0.377 -0.47100000000000003 0.367 -0.527 Q 0.34900000000000003 -0.622 0.275 -0.641 Q 0.262 -0.644 0.249 -0.644 Q 0.179 -0.644 0.147 -0.5740000000000001 Q 0.136 -0.55 0.13 -0.516 Q 0.122 -0.462 0.122 -0.332 Q 0.122 -0.181 0.133 -0.121 Q 0.151 -0.025 0.221 -0.004 Q 0.23500000000000001 0 0.249 0 Z"/></g></g><g transform="scale(25,25)"><g transform="translate(30.08,23.374445)"><path fill="rgb(204,0,0)" stroke="none" paint-order="stroke fill markers" d=" M 0.455 -0.5 L 0.455 -0.5 Q 0.455 -0.34700000000000003 0.377 -0.19 Q 0.307 -0.05 0.222 -0.005 Q 0.191 0.011 0.162 0.011 Q 0.08 0.011 0.052000000000000005 -0.101 Q 0.042 -0.14300000000000002 0.042 -0.194 Q 0.042 -0.35100000000000003 0.122 -0.509 Q 0.192 -0.646 0.277 -0.6900000000000001 Q 0.307 -0.705 0.335 -0.705 Q 0.422 -0.705 0.447 -0.578 Q 0.455 -0.54 0.455 -0.5 M 0.148 -0.363 L 0.148 -0.363 L 0.357 -0.363 Q 0.389 -0.495 0.389 -0.562 Q 0.389 -0.675 0.342 -0.682 Q 0.338 -0.683 0.334 -0.683 Q 0.28300000000000003 -0.683 0.225 -0.578 Q 0.187 -0.511 0.149 -0.368 Q 0.149 -0.365 0.148 -0.363 M 0.34800000000000003 -0.331 L 0.14 -0.331 Q 0.108 -0.21 0.108 -0.133 Q 0.108 -0.013000000000000001 0.162 -0.011 Q 0.218 -0.011 0.278 -0.128 Q 0.317 -0.202 0.34800000000000003 -0.331 Z"/></g></g></g></g></svg>