<svg version="1.1" xmlns="http://www.w3.org/2000/svg" xmlns:xlink="http://www.w3.org/1999/xlink" width="1524" height="988"><defs><clipPath id="PeWxPwbTTCmA"><path fill="none" stroke="none" d=" M 0 0 L 1524 0 L 1524 988 L 0 988 L 0 0 Z"/></clipPath></defs><g transform="scale(1,1)" clip-path="url(#PeWxPwbTTCmA)"><g><rect fill="rgb(255,255,255)" stroke="none" x="0" y="0" width="1524" height="988" fill-opacity="1"/><path fill="rgb(21,101,192)" stroke="none" paint-order="stroke fill markers" fill-rule="evenodd" d=" M 926.8387578878808 471.5031296936115 L 903 480.5 L 903.8292871358149 499.9105003145867 L 926.7729650205429 489.13561814015407 Z" fill-opacity="0.09803921568627451"/><path fill="rgb(21,101,192)" stroke="none" paint-order="stroke fill markers" fill-rule="evenodd" d=" M 926.8536691304843 467.50691667586 L 898 466.5 L 896.9630729314224 487.02042032190377 L 926.7729650205429 489.13561814015407 Z" fill-opacity="0.09803921568627451"/><path fill="none" stroke="rgb(0,0,0)" paint-order="fill stroke markers" d=" M 583.9072490868848 464.807156563456 C 590.4274890875025 462.54217204964914 593.8770552314076 455.4203404356614 591.6120707176007 448.9001004350437 C 589.3470862037938 442.37986043442606 582.225254589806 438.930294290521 575.7050145891883 441.19527880432787" stroke-opacity="0.6980392156862745" stroke-linecap="round" stroke-linejoin="round" stroke-miterlimit="10" stroke-width="1.5"/><path fill="none" stroke="rgb(211,47,47)" paint-order="fill stroke markers" d=" M 730.3260549781447 592.9722805029224 C 736.0077729465847 589.588798417562 737.8708612423525 582.2400017847295 734.4873791569919 576.5582838162896 C 731.1038970716313 570.8765658478496 723.7551004387989 569.013477552082 718.0733824703589 572.3969596374426" stroke-opacity="0.6980392156862745" stroke-linecap="round" stroke-linejoin="round" stroke-miterlimit="10" stroke-width="1.5"/><path fill="none" stroke="rgb(97,97,97)" paint-order="fill stroke markers" d=" M 363 400.5 L 15.928528952115812 816.4153481810395" stroke-opacity="0.6980392156862745" stroke-linecap="round" stroke-linejoin="round" stroke-miterlimit="10"/><path fill="none" stroke="rgb(97,97,97)" paint-order="fill stroke markers" d=" M 15.928528952115812 816.4153481810395 L 1235.4304547991587 830.9634333987989" stroke-opacity="0.6980392156862745" stroke-linecap="round" stroke-linejoin="round" stroke-miterlimit="10"/><path fill="none" stroke="rgb(0,0,0)" paint-order="fill stroke markers" d=" M 1235.4304547991587 830.9634333987989 L 1490.401257242585 249.81376656828866" stroke-opacity="0.6980392156862745" stroke-linecap="round" stroke-linejoin="round" stroke-miterlimit="10"/><path fill="none" stroke="rgb(21,101,192)" paint-order="fill stroke markers" d=" M 928.28586905014 83.67733820811418 L 926.7729650205429 489.13561814015407" stroke-opacity="0.6980392156862745" stroke-linejoin="round" stroke-miterlimit="10" stroke-width="2" stroke-dasharray="6,4"/><path fill="none" stroke="rgb(0,0,0)" paint-order="fill stroke markers" d=" M 554.4785173490683 462.7190044500701 L 926.7729650205429 489.13561814015407" stroke-opacity="0.6980392156862745" stroke-linejoin="round" stroke-miterlimit="10" stroke-dasharray="9,8"/><path fill="none" stroke="rgb(0,0,0)" paint-order="fill stroke markers" d=" M 380 51.5 L 385 538.5" stroke-opacity="0.6980392156862745" stroke-linecap="round" stroke-linejoin="round" stroke-miterlimit="10" stroke-width="1.5"/><path fill="none" stroke="rgb(21,101,192)" paint-order="fill stroke markers" d=" M 924.2514193297767 488.95669874226485 L 702.7808485616118 607.7466793017197" stroke-opacity="0.6980392156862745" stroke-linecap="round" stroke-linejoin="round" stroke-miterlimit="10" stroke-width="2"/><path fill="none" stroke="rgb(21,101,192)" paint-order="fill stroke markers" d=" M 928.2753328965823 86.5010273615544 L 702.7808485616118 607.7466793017197" stroke-opacity="0.6980392156862745" stroke-linejoin="round" stroke-miterlimit="10" stroke-width="1.5" stroke-dasharray="9.5,8"/><path fill="none" stroke="rgb(21,101,192)" paint-order="fill stroke markers" d=" M 926.8387578878808 471.5031296936115 L 903 480.5" stroke-opacity="0.6980392156862745" stroke-linecap="round" stroke-linejoin="round" stroke-miterlimit="10" stroke-width="0.5"/><path fill="none" stroke="rgb(21,101,192)" paint-order="fill stroke markers" d=" M 903 480.5 L 903.8292871358149 499.9105003145867" stroke-opacity="0.6980392156862745" stroke-linecap="round" stroke-linejoin="round" stroke-miterlimit="10" stroke-width="0.5"/><path fill="none" stroke="rgb(21,101,192)" paint-order="fill stroke markers" d=" M 903.8292871358149 499.9105003145867 L 926.7729650205429 489.13561814015407" stroke-opacity="0.6980392156862745" stroke-linecap="round" stroke-linejoin="round" stroke-miterlimit="10" stroke-width="2.5"/><path fill="none" stroke="rgb(21,101,192)" paint-order="fill stroke markers" d=" M 926.7729650205429 489.13561814015407 L 926.8387578878808 471.5031296936115" stroke-opacity="0.6980392156862745" stroke-linecap="round" stroke-linejoin="round" stroke-miterlimit="10" stroke-width="2.5"/><path fill="none" stroke="rgb(21,101,192)" paint-order="fill stroke markers" d=" M 926.8536691304843 467.50691667586 L 898 466.5" stroke-opacity="0.6980392156862745" stroke-linecap="round" stroke-linejoin="round" stroke-miterlimit="10" stroke-width="0.5"/><path fill="none" stroke="rgb(21,101,192)" paint-order="fill stroke markers" d=" M 898 466.5 L 896.9630729314224 487.02042032190377" stroke-opacity="0.6980392156862745" stroke-linecap="round" stroke-linejoin="round" stroke-miterlimit="10" stroke-width="0.5"/><path fill="none" stroke="rgb(21,101,192)" paint-order="fill stroke markers" d=" M 896.9630729314224 487.02042032190377 L 926.7729650205429 489.13561814015407" stroke-opacity="0.6980392156862745" stroke-linecap="round" stroke-linejoin="round" stroke-miterlimit="10" stroke-width="2.5"/><path fill="none" stroke="rgb(21,101,192)" paint-order="fill stroke markers" d=" M 926.7729650205429 489.13561814015407 L 926.8536691304843 467.50691667586" stroke-opacity="0.6980392156862745" stroke-linecap="round" stroke-linejoin="round" stroke-miterlimit="10" stroke-width="2.5"/><path fill="none" stroke="rgb(0,0,0)" paint-order="fill stroke markers" d=" M 554.4785173490683 462.7190044500701 L 918.4554396815024 93.64542019153646" stroke-opacity="0.6980392156862745" stroke-linecap="round" stroke-linejoin="round" stroke-miterlimit="10"/><path fill="rgb(0,0,0)" stroke="none" paint-order="stroke fill markers" fill-rule="evenodd" d=" M 928.28586905014 83.67733820811418 L 920.9474601773579 96.10302753369585 L 915.9634191856469 91.18781284937707 Z" fill-opacity="0.6980392156862745"/><path fill="none" stroke="rgb(0,0,0)" paint-order="fill stroke markers" d=" M 554.4785173490683 462.7190044500701 L 791.3732004838821 694.3828279305095" stroke-opacity="0.6980392156862745" stroke-linecap="round" stroke-linejoin="round" stroke-miterlimit="10"/><path fill="rgb(0,0,0)" stroke="none" paint-order="stroke fill markers" fill-rule="evenodd" d=" M 801.3825869783382 704.1711976622166 L 788.9261080509553 696.8851745541235 L 793.8202929168089 691.8804813068955 Z" fill-opacity="0.6980392156862745"/><path fill="none" stroke="rgb(255,255,255)" paint-order="fill stroke markers" d=" M 364 400.5 C 364 401.0522847498308 363.5522847498308 401.5 363 401.5 C 362.4477152501692 401.5 362 401.0522847498308 362 400.5 C 362 399.9477152501692 362.4477152501692 399.5 363 399.5 C 363.5522847498308 399.5 364 399.9477152501692 364 400.5 Z" stroke-opacity="1" stroke-linecap="square" stroke-miterlimit="10" stroke-width="0.5"/><text fill="rgb(255,255,255)" stroke="none" font-family="geogebra-sans-serif, sans-serif" font-size="16px" font-style="normal" font-weight="normal" text-decoration="normal" x="367" y="399" text-anchor="start" dominant-baseline="alphabetic" fill-opacity="1">A</text><path fill="rgb(255,255,255)" stroke="none" paint-order="stroke fill markers" d=" M 941 464 L 1056 464 L 1056 509 L 941 509 L 941 464 Z" fill-opacity="1"/><g transform="scale(25,25)"><g transform="translate(38.3806225,19.582779000000002)"><path fill="rgb(0,102,153)" stroke="none" paint-order="stroke fill markers" d=" M 0.25 -0.6940000000000001 L 0.383 -0.558 L 0.365 -0.54 L 0.25 -0.642 L 0.134 -0.54 L 0.116 -0.558 L 0.25 -0.6940000000000001 Z"/></g><g transform="translate(38.293334,19.838335000000004)"><path fill="rgb(0,102,153)" stroke="none" paint-order="stroke fill markers" d=" M 0.734 -0.6 L 0.429 -0.274 L 0.373 -0.049 Q 0.41500000000000004 -0.047 0.434 -0.047 Q 0.451 -0.047 0.458 -0.0465 Q 0.465 -0.046 0.47050000000000003 -0.042 Q 0.47600000000000003 -0.038 0.47600000000000003 -0.029 Q 0.47600000000000003 -0.016 0.47000000000000003 -0.009000000000000001 Q 0.464 -0.002 0.459 -0.001 Q 0.454 0 0.447 0 Q 0.43 0 0.3705 -0.0015 Q 0.311 -0.003 0.294 -0.003 Q 0.28200000000000003 -0.003 0.2575 -0.0025 Q 0.233 -0.002 0.221 -0.002 Q 0.20800000000000002 -0.002 0.183 -0.001 Q 0.158 0 0.145 0 Q 0.123 0 0.123 -0.018000000000000002 Q 0.123 -0.035 0.133 -0.043000000000000003 Q 0.137 -0.047 0.169 -0.047 Q 0.20400000000000001 -0.047 0.221 -0.049 Q 0.234 -0.05 0.23750000000000002 -0.0525 Q 0.241 -0.055 0.244 -0.068 L 0.296 -0.274 L 0.14400000000000002 -0.623 Q 0.14 -0.632 0.137 -0.634 Q 0.134 -0.636 0.124 -0.638 Q 0.11 -0.639 0.085 -0.639 Q 0.068 -0.639 0.0615 -0.6395000000000001 Q 0.055 -0.64 0.0495 -0.644 Q 0.044 -0.648 0.044 -0.657 Q 0.044 -0.67 0.0495 -0.677 Q 0.055 -0.684 0.059500000000000004 -0.685 Q 0.064 -0.686 0.07200000000000001 -0.686 Q 0.083 -0.686 0.1075 -0.685 Q 0.132 -0.684 0.14400000000000002 -0.684 Q 0.155 -0.684 0.178 -0.6835 Q 0.201 -0.683 0.213 -0.683 Q 0.23 -0.683 0.2905 -0.6845 Q 0.35100000000000003 -0.686 0.368 -0.686 Q 0.39 -0.686 0.39 -0.668 Q 0.39 -0.649 0.3815 -0.644 Q 0.373 -0.639 0.356 -0.639 Q 0.328 -0.639 0.3 -0.635 L 0.428 -0.342 L 0.6990000000000001 -0.632 Q 0.678 -0.639 0.654 -0.639 Q 0.627 -0.639 0.627 -0.657 Q 0.627 -0.686 0.654 -0.686 Q 0.672 -0.686 0.709 -0.6845 Q 0.746 -0.683 0.765 -0.683 Q 0.78 -0.683 0.8115 -0.6845 Q 0.843 -0.686 0.857 -0.686 Q 0.866 -0.686 0.8705 -0.68 Q 0.875 -0.674 0.875 -0.668 Q 0.875 -0.655 0.8695 -0.648 Q 0.864 -0.641 0.859 -0.64 Q 0.854 -0.639 0.846 -0.639 Q 0.8 -0.638 0.7765 -0.629 Q 0.753 -0.62 0.734 -0.6 Z"/></g><g transform="translate(39.24569161111111,19.838335)"><path fill="rgb(0,102,153)" stroke="none" paint-order="stroke fill markers" d=" M 0.687 -0.327 L 0.09 -0.327 Q 0.058 -0.327 0.056 -0.34700000000000003 Q 0.056 -0.367 0.089 -0.367 L 0.6880000000000001 -0.367 Q 0.72 -0.367 0.721 -0.34700000000000003 Q 0.721 -0.327 0.687 -0.327 M 0.6880000000000001 -0.133 L 0.089 -0.133 Q 0.057 -0.133 0.056 -0.153 Q 0.056 -0.17300000000000001 0.09 -0.17300000000000001 L 0.687 -0.17300000000000001 Q 0.719 -0.17300000000000001 0.721 -0.153 Q 0.721 -0.133 0.6880000000000001 -0.133 Z"/></g><g transform="translate(40.30125122222222,19.838335)"><path fill="rgb(0,102,153)" stroke="none" paint-order="stroke fill markers" d=" M 0.582 -0.395 L 0.74 -0.064 Q 0.745 -0.054 0.7485 -0.051500000000000004 Q 0.752 -0.049 0.763 -0.048 Q 0.778 -0.047 0.802 -0.047 Q 0.8170000000000001 -0.047 0.8235 -0.0465 Q 0.8300000000000001 -0.046 0.836 -0.042 Q 0.842 -0.038 0.842 -0.029 Q 0.842 0 0.8140000000000001 0 Q 0.802 0 0.7785 -0.001 Q 0.755 -0.002 0.744 -0.002 Q 0.732 -0.002 0.709 -0.0025 Q 0.686 -0.003 0.675 -0.003 Q 0.658 -0.003 0.5985 -0.0015 Q 0.539 0 0.522 0 Q 0.5 0 0.5 -0.018000000000000002 Q 0.5 -0.031 0.506 -0.038 Q 0.512 -0.045 0.5165 -0.046 Q 0.521 -0.047 0.529 -0.047 Q 0.54 -0.047 0.554 -0.0485 Q 0.5680000000000001 -0.05 0.578 -0.052000000000000005 L 0.587 -0.053 L 0.47400000000000003 -0.289 L 0.241 -0.057 Q 0.268 -0.047 0.3 -0.047 Q 0.326 -0.047 0.326 -0.029 Q 0.326 0 0.298 0 Q 0.28300000000000003 0 0.2325 -0.0015 Q 0.182 -0.003 0.168 -0.003 Q 0.156 -0.003 0.1135 -0.0015 Q 0.07100000000000001 0 0.059000000000000004 0 Q 0.049 0 0.044 -0.0055 Q 0.039 -0.011 0.039 -0.018000000000000002 Q 0.039 -0.032 0.0445 -0.0385 Q 0.05 -0.045 0.056 -0.046 Q 0.062 -0.047 0.074 -0.047 Q 0.115 -0.047 0.14300000000000002 -0.0545 Q 0.171 -0.062 0.18 -0.068 Q 0.189 -0.074 0.202 -0.08600000000000001 L 0.453 -0.334 L 0.315 -0.623 Q 0.31 -0.632 0.307 -0.6345000000000001 Q 0.304 -0.637 0.294 -0.638 Q 0.28 -0.639 0.255 -0.639 Q 0.23800000000000002 -0.639 0.231 -0.6395000000000001 Q 0.224 -0.64 0.219 -0.6445 Q 0.214 -0.649 0.214 -0.658 Q 0.214 -0.671 0.22 -0.6775 Q 0.226 -0.684 0.2305 -0.685 Q 0.23500000000000001 -0.686 0.242 -0.686 Q 0.253 -0.686 0.2765 -0.685 Q 0.3 -0.684 0.312 -0.684 Q 0.324 -0.684 0.34700000000000003 -0.6835 Q 0.37 -0.683 0.381 -0.683 Q 0.398 -0.683 0.457 -0.6845 Q 0.516 -0.686 0.533 -0.686 Q 0.555 -0.686 0.555 -0.667 Q 0.555 -0.639 0.526 -0.639 Q 0.498 -0.639 0.468 -0.633 L 0.56 -0.44 L 0.751 -0.629 Q 0.714 -0.638 0.6910000000000001 -0.639 Q 0.666 -0.639 0.666 -0.658 Q 0.666 -0.686 0.6940000000000001 -0.686 Q 0.708 -0.686 0.759 -0.6845 Q 0.81 -0.683 0.8240000000000001 -0.683 Q 0.842 -0.683 0.879 -0.6845 Q 0.916 -0.686 0.933 -0.686 Q 0.9530000000000001 -0.686 0.9530000000000001 -0.668 Q 0.9530000000000001 -0.664 0.9520000000000001 -0.6585 Q 0.9510000000000001 -0.653 0.9460000000000001 -0.646 Q 0.9410000000000001 -0.639 0.932 -0.639 Q 0.859 -0.638 0.834 -0.629 Q 0.809 -0.62 0.776 -0.588 L 0.714 -0.525 L 0.582 -0.395 Z"/></g><g transform="translate(41.32832772222222,19.574445000000004)"><path fill="rgb(0,102,153)" stroke="none" paint-order="stroke fill markers" d=" M 0.25 -0.6940000000000001 L 0.383 -0.558 L 0.365 -0.54 L 0.25 -0.642 L 0.134 -0.54 L 0.116 -0.558 L 0.25 -0.6940000000000001 Z"/></g><g transform="translate(41.24846922222222,19.838335000000008)"><path fill="rgb(0,102,153)" stroke="none" paint-order="stroke fill markers" d=" M 0.02 0.164 L 0.17200000000000001 -0.446 Q 0.199 -0.554 0.295 -0.628 Q 0.391 -0.7020000000000001 0.499 -0.7020000000000001 Q 0.5710000000000001 -0.7020000000000001 0.613 -0.667 Q 0.655 -0.632 0.655 -0.5690000000000001 Q 0.655 -0.521 0.6315000000000001 -0.47550000000000003 Q 0.608 -0.43 0.578 -0.405 Q 0.642 -0.357 0.642 -0.272 Q 0.642 -0.20400000000000001 0.607 -0.1405 Q 0.5720000000000001 -0.077 0.498 -0.0325 Q 0.424 0.012 0.329 0.012 Q 0.189 0.012 0.13 -0.08700000000000001 Q 0.129 -0.085 0.0985 0.0375 Q 0.068 0.16 0.066 0.171 Q 0.063 0.183 0.061 0.1865 Q 0.059000000000000004 0.19 0.0545 0.192 Q 0.05 0.194 0.04 0.194 Q 0.016 0.194 0.016 0.18 Q 0.016 0.17200000000000001 0.02 0.164 M 0.47300000000000003 -0.401 Q 0.454 -0.40800000000000003 0.424 -0.40800000000000003 Q 0.362 -0.40800000000000003 0.362 -0.392 Q 0.362 -0.384 0.41000000000000003 -0.384 Q 0.449 -0.384 0.47300000000000003 -0.401 M 0.507 -0.436 Q 0.523 -0.464 0.538 -0.524 Q 0.553 -0.584 0.553 -0.609 Q 0.553 -0.666 0.494 -0.666 Q 0.40700000000000003 -0.666 0.327 -0.6025 Q 0.247 -0.539 0.222 -0.455 Q 0.215 -0.429 0.1905 -0.3305 Q 0.166 -0.232 0.163 -0.221 Q 0.156 -0.186 0.156 -0.17 Q 0.156 -0.10400000000000001 0.20550000000000002 -0.064 Q 0.255 -0.024 0.327 -0.024 Q 0.418 -0.024 0.47000000000000003 -0.106 Q 0.491 -0.14200000000000002 0.509 -0.213 Q 0.527 -0.28400000000000003 0.527 -0.315 Q 0.527 -0.34600000000000003 0.516 -0.367 Q 0.47100000000000003 -0.34800000000000003 0.40900000000000003 -0.34800000000000003 Q 0.39 -0.34800000000000003 0.3785 -0.34900000000000003 Q 0.367 -0.35000000000000003 0.34950000000000003 -0.3535 Q 0.332 -0.357 0.323 -0.366 Q 0.314 -0.375 0.314 -0.39 Q 0.314 -0.444 0.427 -0.444 Q 0.47400000000000003 -0.444 0.507 -0.436 Z"/></g></g><g transform="scale(25,25)"><g transform="translate(29.84,28.164444)"><path fill="rgb(0,0,0)" stroke="none" paint-order="stroke fill markers" d=" M 0.354 -0.623 L 0.354 -0.047 L 0.494 -0.047 L 0.494 0 Q 0.45 -0.003 0.295 -0.003 Q 0.14 -0.003 0.096 0 L 0.096 -0.047 L 0.23500000000000001 -0.047 L 0.23500000000000001 -0.5640000000000001 Q 0.17300000000000001 -0.544 0.105 -0.544 L 0.085 -0.544 L 0.085 -0.591 L 0.105 -0.591 Q 0.229 -0.591 0.306 -0.648 Q 0.315 -0.655 0.328 -0.655 Q 0.34600000000000003 -0.655 0.35000000000000003 -0.6485 Q 0.354 -0.642 0.354 -0.623 Z"/></g></g><g transform="scale(25,25)"><g transform="translate(28.12,10.646111000000001)"><path fill="rgb(0,0,0)" stroke="none" paint-order="stroke fill markers" d=" M 0.734 -0.6 L 0.429 -0.274 L 0.373 -0.049 Q 0.41500000000000004 -0.047 0.434 -0.047 Q 0.451 -0.047 0.458 -0.0465 Q 0.465 -0.046 0.47050000000000003 -0.042 Q 0.47600000000000003 -0.038 0.47600000000000003 -0.029 Q 0.47600000000000003 -0.016 0.47000000000000003 -0.009000000000000001 Q 0.464 -0.002 0.459 -0.001 Q 0.454 0 0.447 0 Q 0.43 0 0.3705 -0.0015 Q 0.311 -0.003 0.294 -0.003 Q 0.28200000000000003 -0.003 0.2575 -0.0025 Q 0.233 -0.002 0.221 -0.002 Q 0.20800000000000002 -0.002 0.183 -0.001 Q 0.158 0 0.145 0 Q 0.123 0 0.123 -0.018000000000000002 Q 0.123 -0.035 0.133 -0.043000000000000003 Q 0.137 -0.047 0.169 -0.047 Q 0.20400000000000001 -0.047 0.221 -0.049 Q 0.234 -0.05 0.23750000000000002 -0.0525 Q 0.241 -0.055 0.244 -0.068 L 0.296 -0.274 L 0.14400000000000002 -0.623 Q 0.14 -0.632 0.137 -0.634 Q 0.134 -0.636 0.124 -0.638 Q 0.11 -0.639 0.085 -0.639 Q 0.068 -0.639 0.0615 -0.6395000000000001 Q 0.055 -0.64 0.0495 -0.644 Q 0.044 -0.648 0.044 -0.657 Q 0.044 -0.67 0.0495 -0.677 Q 0.055 -0.684 0.059500000000000004 -0.685 Q 0.064 -0.686 0.07200000000000001 -0.686 Q 0.083 -0.686 0.1075 -0.685 Q 0.132 -0.684 0.14400000000000002 -0.684 Q 0.155 -0.684 0.178 -0.6835 Q 0.201 -0.683 0.213 -0.683 Q 0.23 -0.683 0.2905 -0.6845 Q 0.35100000000000003 -0.686 0.368 -0.686 Q 0.39 -0.686 0.39 -0.668 Q 0.39 -0.649 0.3815 -0.644 Q 0.373 -0.639 0.356 -0.639 Q 0.328 -0.639 0.3 -0.635 L 0.428 -0.342 L 0.6990000000000001 -0.632 Q 0.678 -0.639 0.654 -0.639 Q 0.627 -0.639 0.627 -0.657 Q 0.627 -0.686 0.654 -0.686 Q 0.672 -0.686 0.709 -0.6845 Q 0.746 -0.683 0.765 -0.683 Q 0.78 -0.683 0.8115 -0.6845 Q 0.843 -0.686 0.857 -0.686 Q 0.866 -0.686 0.8705 -0.68 Q 0.875 -0.674 0.875 -0.668 Q 0.875 -0.655 0.8695 -0.648 Q 0.864 -0.641 0.859 -0.64 Q 0.854 -0.639 0.846 -0.639 Q 0.8 -0.638 0.7765 -0.629 Q 0.753 -0.62 0.734 -0.6 Z"/></g></g><g transform="scale(35,35)"><g transform="translate(5.714285714285714,21.521428571428572)"><path fill="rgb(0,0,0)" stroke="none" paint-order="stroke fill markers" d=" M 0.385 -0.557 L 0.385 -0.557 L 0.353 -0.428 Q 0.325 -0.315 0.254 -0.14200000000000002 Q 0.181 0.03 0.127 0.048 Q 0.12 0.05 0.114 0.05 Q 0.088 0.05 0.059000000000000004 0.035 Q 0.028 0.019 0.027 -0.002 Q 0.027 -0.034 0.048 -0.064 Q 0.057 -0.075 0.063 -0.075 Q 0.066 -0.075 0.07200000000000001 -0.07 Q 0.10300000000000001 -0.045 0.14400000000000002 -0.042 Q 0.186 -0.042 0.254 -0.225 L 0.276 -0.28600000000000003 Q 0.338 -0.459 0.365 -0.651 Q 0.369 -0.673 0.381 -0.683 L 0.382 -0.684 Q 0.383 -0.685 0.385 -0.686 Q 0.41200000000000003 -0.705 0.429 -0.705 Q 0.44 -0.705 0.442 -0.6950000000000001 L 0.442 -0.6940000000000001 L 0.442 -0.6940000000000001 Q 0.442 -0.6910000000000001 0.443 -0.685 Q 0.515 -0.273 0.591 -0.13 Q 0.686 -0.222 0.791 -0.34400000000000003 L 1.074 -0.68 Q 1.095 -0.704 1.099 -0.704 Q 1.107 -0.704 1.107 -0.6890000000000001 Q 1.107 -0.686 1.105 -0.672 Q 1.067 -0.512 1.041 -0.266 Q 1.032 -0.179 1.032 -0.134 Q 1.032 -0.054 1.043 -0.038 Q 1.05 -0.027 1.063 -0.026000000000000002 Q 1.088 -0.042 1.107 -0.042 Q 1.116 -0.042 1.116 -0.035 Q 1.116 -0.018000000000000002 1.069 0.007 Q 1.049 0.017 1.03 0.023 Q 1.012 0.029 0.998 0.029 Q 0.96 0.029 0.9520000000000001 -0.006 Q 0.9470000000000001 -0.025 0.9470000000000001 -0.092 Q 0.9470000000000001 -0.217 0.99 -0.47500000000000003 L 0.997 -0.517 L 0.778 -0.26 Q 0.67 -0.135 0.5750000000000001 -0.043000000000000003 Q 0.5650000000000001 -0.034 0.558 -0.034 Q 0.55 -0.034 0.546 -0.039 Q 0.501 -0.115 0.47600000000000003 -0.193 Q 0.442 -0.294 0.41000000000000003 -0.442 L 0.386 -0.557 L 0.385 -0.557 Z"/></g><g transform="translate(6.915185714285714,21.521428571428572)"><path fill="rgb(0,0,0)" stroke="none" paint-order="stroke fill markers" d=" M 0.331 0.24 L 0.331 0.24 Q 0.331 0.25 0.321 0.25 Q 0.309 0.25 0.268 0.209 Q 0.20600000000000002 0.147 0.165 0.062 Q 0.099 -0.074 0.099 -0.25 Q 0.099 -0.419 0.162 -0.555 Q 0.214 -0.666 0.294 -0.733 Q 0.315 -0.75 0.321 -0.75 Q 0.331 -0.75 0.331 -0.74 Q 0.331 -0.735 0.318 -0.723 Q 0.157 -0.559 0.157 -0.25 Q 0.157 0.058 0.314 0.218 Q 0.331 0.23500000000000001 0.331 0.24 Z"/></g><g transform="translate(7.304075714285714,21.521428571428572)"><path fill="rgb(0,0,0)" stroke="none" paint-order="stroke fill markers" d=" M 0.485 -0.41100000000000003 L 0.647 -0.585 Q 0.666 -0.606 0.666 -0.621 Q 0.666 -0.648 0.626 -0.652 Q 0.614 -0.654 0.614 -0.663 Q 0.614 -0.683 0.633 -0.683 L 0.743 -0.68 L 0.744 -0.68 L 0.837 -0.683 L 0.838 -0.683 Q 0.851 -0.683 0.851 -0.672 Q 0.851 -0.655 0.837 -0.653 Q 0.835 -0.652 0.8290000000000001 -0.652 Q 0.759 -0.649 0.7020000000000001 -0.601 Q 0.6890000000000001 -0.59 0.552 -0.442 Q 0.519 -0.406 0.497 -0.384 Q 0.503 -0.368 0.626 -0.075 Q 0.639 -0.044 0.65 -0.038 L 0.651 -0.038 L 0.651 -0.038 L 0.651 -0.038 L 0.651 -0.038 L 0.652 -0.038 L 0.652 -0.037 Q 0.665 -0.032 0.712 -0.031 Q 0.73 -0.031 0.73 -0.019 Q 0.73 0 0.711 0 L 0.601 -0.003 L 0.6 -0.003 L 0.47500000000000003 0 L 0.47400000000000003 0 Q 0.459 0 0.459 -0.012 Q 0.459 -0.028 0.47400000000000003 -0.03 Q 0.47600000000000003 -0.031 0.47900000000000004 -0.031 Q 0.524 -0.036000000000000004 0.536 -0.056 Q 0.537 -0.058 0.537 -0.06 L 0.532 -0.074 L 0.431 -0.313 L 0.341 -0.215 L 0.23900000000000002 -0.107 Q 0.212 -0.078 0.212 -0.062 Q 0.212 -0.035 0.252 -0.031 Q 0.264 -0.031 0.264 -0.02 Q 0.264 0 0.246 0 L 0.135 -0.003 L 0.134 -0.003 L 0.041 0 L 0.04 0 Q 0.027 0 0.027 -0.011 Q 0.027 -0.028 0.041 -0.03 Q 0.043000000000000003 -0.031 0.049 -0.031 Q 0.134 -0.036000000000000004 0.196 -0.10300000000000001 L 0.209 -0.114 L 0.42 -0.341 L 0.302 -0.62 Q 0.293 -0.641 0.278 -0.647 L 0.277 -0.647 L 0.277 -0.647 L 0.277 -0.647 Q 0.262 -0.652 0.227 -0.652 Q 0.20500000000000002 -0.652 0.20400000000000001 -0.663 Q 0.20400000000000001 -0.683 0.222 -0.683 L 0.333 -0.68 L 0.334 -0.68 L 0.459 -0.683 L 0.46 -0.683 Q 0.47500000000000003 -0.683 0.47500000000000003 -0.671 Q 0.47500000000000003 -0.654 0.455 -0.652 Q 0.40900000000000003 -0.648 0.396 -0.623 L 0.401 -0.61 L 0.485 -0.41100000000000003 Z"/></g><g transform="translate(8.211020714285715,21.521428571428572)"><path fill="rgb(0,0,0)" stroke="none" paint-order="stroke fill markers" d=" M 0.289 -0.25 L 0.289 -0.25 Q 0.289 -0.081 0.226 0.055 Q 0.17400000000000002 0.166 0.094 0.233 Q 0.073 0.25 0.067 0.25 Q 0.057 0.25 0.057 0.24 Q 0.057 0.23500000000000001 0.07 0.223 Q 0.231 0.059000000000000004 0.231 -0.25 Q 0.231 -0.555 0.081 -0.712 L 0.076 -0.717 Q 0.057 -0.735 0.057 -0.74 Q 0.057 -0.75 0.067 -0.75 Q 0.079 -0.75 0.12 -0.709 Q 0.182 -0.647 0.223 -0.562 Q 0.289 -0.426 0.289 -0.25 Z"/></g></g><g transform="scale(35,35)"><g transform="translate(6.914285714285715,3.041860642857143)"><path fill="rgb(0,0,0)" stroke="none" paint-order="stroke fill markers" d=" M 0.385 -0.557 L 0.385 -0.557 L 0.353 -0.428 Q 0.325 -0.315 0.254 -0.14200000000000002 Q 0.181 0.03 0.127 0.048 Q 0.12 0.05 0.114 0.05 Q 0.088 0.05 0.059000000000000004 0.035 Q 0.028 0.019 0.027 -0.002 Q 0.027 -0.034 0.048 -0.064 Q 0.057 -0.075 0.063 -0.075 Q 0.066 -0.075 0.07200000000000001 -0.07 Q 0.10300000000000001 -0.045 0.14400000000000002 -0.042 Q 0.186 -0.042 0.254 -0.225 L 0.276 -0.28600000000000003 Q 0.338 -0.459 0.365 -0.651 Q 0.369 -0.673 0.381 -0.683 L 0.382 -0.684 Q 0.383 -0.685 0.385 -0.686 Q 0.41200000000000003 -0.705 0.429 -0.705 Q 0.44 -0.705 0.442 -0.6950000000000001 L 0.442 -0.6940000000000001 L 0.442 -0.6940000000000001 Q 0.442 -0.6910000000000001 0.443 -0.685 Q 0.515 -0.273 0.591 -0.13 Q 0.686 -0.222 0.791 -0.34400000000000003 L 1.074 -0.68 Q 1.095 -0.704 1.099 -0.704 Q 1.107 -0.704 1.107 -0.6890000000000001 Q 1.107 -0.686 1.105 -0.672 Q 1.067 -0.512 1.041 -0.266 Q 1.032 -0.179 1.032 -0.134 Q 1.032 -0.054 1.043 -0.038 Q 1.05 -0.027 1.063 -0.026000000000000002 Q 1.088 -0.042 1.107 -0.042 Q 1.116 -0.042 1.116 -0.035 Q 1.116 -0.018000000000000002 1.069 0.007 Q 1.049 0.017 1.03 0.023 Q 1.012 0.029 0.998 0.029 Q 0.96 0.029 0.9520000000000001 -0.006 Q 0.9470000000000001 -0.025 0.9470000000000001 -0.092 Q 0.9470000000000001 -0.217 0.99 -0.47500000000000003 L 0.997 -0.517 L 0.778 -0.26 Q 0.67 -0.135 0.5750000000000001 -0.043000000000000003 Q 0.5650000000000001 -0.034 0.558 -0.034 Q 0.55 -0.034 0.546 -0.039 Q 0.501 -0.115 0.47600000000000003 -0.193 Q 0.442 -0.294 0.41000000000000003 -0.442 L 0.386 -0.557 L 0.385 -0.557 Z"/></g><g transform="translate(8.115185714285715,3.041860642857143)"><path fill="rgb(0,0,0)" stroke="none" paint-order="stroke fill markers" d=" M 0.331 0.24 L 0.331 0.24 Q 0.331 0.25 0.321 0.25 Q 0.309 0.25 0.268 0.209 Q 0.20600000000000002 0.147 0.165 0.062 Q 0.099 -0.074 0.099 -0.25 Q 0.099 -0.419 0.162 -0.555 Q 0.214 -0.666 0.294 -0.733 Q 0.315 -0.75 0.321 -0.75 Q 0.331 -0.75 0.331 -0.74 Q 0.331 -0.735 0.318 -0.723 Q 0.157 -0.559 0.157 -0.25 Q 0.157 0.058 0.314 0.218 Q 0.331 0.23500000000000001 0.331 0.24 Z"/></g><g transform="translate(8.504075714285715,3.041860642857143)"><path fill="rgb(0,0,0)" stroke="none" paint-order="stroke fill markers" d=" M 0.485 -0.41100000000000003 L 0.647 -0.585 Q 0.666 -0.606 0.666 -0.621 Q 0.666 -0.648 0.626 -0.652 Q 0.614 -0.654 0.614 -0.663 Q 0.614 -0.683 0.633 -0.683 L 0.743 -0.68 L 0.744 -0.68 L 0.837 -0.683 L 0.838 -0.683 Q 0.851 -0.683 0.851 -0.672 Q 0.851 -0.655 0.837 -0.653 Q 0.835 -0.652 0.8290000000000001 -0.652 Q 0.759 -0.649 0.7020000000000001 -0.601 Q 0.6890000000000001 -0.59 0.552 -0.442 Q 0.519 -0.406 0.497 -0.384 Q 0.503 -0.368 0.626 -0.075 Q 0.639 -0.044 0.65 -0.038 L 0.651 -0.038 L 0.651 -0.038 L 0.651 -0.038 L 0.651 -0.038 L 0.652 -0.038 L 0.652 -0.037 Q 0.665 -0.032 0.712 -0.031 Q 0.73 -0.031 0.73 -0.019 Q 0.73 0 0.711 0 L 0.601 -0.003 L 0.6 -0.003 L 0.47500000000000003 0 L 0.47400000000000003 0 Q 0.459 0 0.459 -0.012 Q 0.459 -0.028 0.47400000000000003 -0.03 Q 0.47600000000000003 -0.031 0.47900000000000004 -0.031 Q 0.524 -0.036000000000000004 0.536 -0.056 Q 0.537 -0.058 0.537 -0.06 L 0.532 -0.074 L 0.431 -0.313 L 0.341 -0.215 L 0.23900000000000002 -0.107 Q 0.212 -0.078 0.212 -0.062 Q 0.212 -0.035 0.252 -0.031 Q 0.264 -0.031 0.264 -0.02 Q 0.264 0 0.246 0 L 0.135 -0.003 L 0.134 -0.003 L 0.041 0 L 0.04 0 Q 0.027 0 0.027 -0.011 Q 0.027 -0.028 0.041 -0.03 Q 0.043000000000000003 -0.031 0.049 -0.031 Q 0.134 -0.036000000000000004 0.196 -0.10300000000000001 L 0.209 -0.114 L 0.42 -0.341 L 0.302 -0.62 Q 0.293 -0.641 0.278 -0.647 L 0.277 -0.647 L 0.277 -0.647 L 0.277 -0.647 Q 0.262 -0.652 0.227 -0.652 Q 0.20500000000000002 -0.652 0.20400000000000001 -0.663 Q 0.20400000000000001 -0.683 0.222 -0.683 L 0.333 -0.68 L 0.334 -0.68 L 0.459 -0.683 L 0.46 -0.683 Q 0.47500000000000003 -0.683 0.47500000000000003 -0.671 Q 0.47500000000000003 -0.654 0.455 -0.652 Q 0.40900000000000003 -0.648 0.396 -0.623 L 0.401 -0.61 L 0.485 -0.41100000000000003 Z"/></g><g transform="translate(9.411020714285716,3.041860642857143)"><path fill="rgb(0,0,0)" stroke="none" paint-order="stroke fill markers" d=" M 0.289 -0.25 L 0.289 -0.25 Q 0.289 -0.081 0.226 0.055 Q 0.17400000000000002 0.166 0.094 0.233 Q 0.073 0.25 0.067 0.25 Q 0.057 0.25 0.057 0.24 Q 0.057 0.23500000000000001 0.07 0.223 Q 0.231 0.059000000000000004 0.231 -0.25 Q 0.231 -0.555 0.081 -0.712 L 0.076 -0.717 Q 0.057 -0.735 0.057 -0.74 Q 0.057 -0.75 0.067 -0.75 Q 0.079 -0.75 0.12 -0.709 Q 0.182 -0.647 0.223 -0.562 Q 0.289 -0.426 0.289 -0.25 Z"/></g><g transform="translate(9.799910714285716,2.628968642857143) scale(0.7,0.7)"><path fill="rgb(0,0,0)" stroke="none" paint-order="stroke fill markers" d=" M 0.40900000000000003 -0.633 L 0.40900000000000003 -0.04 L 0.6890000000000001 -0.04 Q 0.721 -0.04 0.722 -0.02 Q 0.722 0 0.6890000000000001 0 L 0.09 0 Q 0.057 0 0.056 -0.02 Q 0.056 -0.04 0.09 -0.04 L 0.369 -0.04 L 0.369 -0.632 Q 0.369 -0.665 0.389 -0.666 Q 0.40900000000000003 -0.666 0.40900000000000003 -0.633 Z"/></g></g><path fill="rgb(255,255,255)" stroke="none" paint-order="stroke fill markers" d=" M 940 197 L 970 197 L 970 236 L 940 236 L 940 197 Z" fill-opacity="1"/><g transform="scale(25,25)"><g transform="translate(37.934408000000005,8.974445)"><path fill="rgb(0,102,153)" stroke="none" paint-order="stroke fill markers" d=" M 0.25 -0.6940000000000001 L 0.383 -0.558 L 0.365 -0.54 L 0.25 -0.642 L 0.134 -0.54 L 0.116 -0.558 L 0.25 -0.6940000000000001 Z"/></g><g transform="translate(37.92,8.988335)"><path fill="rgb(0,102,153)" stroke="none" paint-order="stroke fill markers" d=" M 0.41200000000000003 -0.108 L 0.41600000000000004 -0.11 Q 0.419 -0.111 0.422 -0.111 Q 0.429 -0.111 0.434 -0.106 Q 0.439 -0.101 0.439 -0.094 Q 0.439 -0.08600000000000001 0.4275 -0.0695 Q 0.41600000000000004 -0.053 0.3935 -0.033 Q 0.371 -0.013000000000000001 0.326 0.002 Q 0.281 0.017 0.224 0.017 Q 0.129 0.017 0.082 -0.02 Q 0.035 -0.057 0.035 -0.113 Q 0.035 -0.182 0.1 -0.23600000000000002 Q 0.079 -0.26 0.079 -0.294 Q 0.079 -0.355 0.1465 -0.40800000000000003 Q 0.214 -0.461 0.333 -0.461 Q 0.386 -0.461 0.43 -0.441 Q 0.459 -0.427 0.47100000000000003 -0.41600000000000004 Q 0.483 -0.405 0.483 -0.392 Q 0.483 -0.375 0.4685 -0.361 Q 0.454 -0.34700000000000003 0.438 -0.34700000000000003 Q 0.429 -0.34700000000000003 0.41600000000000004 -0.355 Q 0.373 -0.385 0.314 -0.385 Q 0.226 -0.385 0.176 -0.3605 Q 0.126 -0.336 0.126 -0.294 Q 0.126 -0.274 0.138 -0.259 Q 0.191 -0.28400000000000003 0.265 -0.28400000000000003 Q 0.28200000000000003 -0.28400000000000003 0.2925 -0.28300000000000003 Q 0.303 -0.28200000000000003 0.3185 -0.279 Q 0.334 -0.276 0.342 -0.2665 Q 0.35000000000000003 -0.257 0.35000000000000003 -0.243 Q 0.35000000000000003 -0.188 0.247 -0.188 Q 0.17500000000000002 -0.188 0.134 -0.21 Q 0.109 -0.192 0.0965 -0.168 Q 0.084 -0.14400000000000002 0.084 -0.126 Q 0.084 -0.10200000000000001 0.098 -0.08750000000000001 Q 0.112 -0.073 0.1405 -0.0675 Q 0.169 -0.062 0.1885 -0.0605 Q 0.20800000000000002 -0.059000000000000004 0.241 -0.059000000000000004 Q 0.317 -0.059000000000000004 0.3565 -0.068 Q 0.396 -0.077 0.41200000000000003 -0.108 M 0.177 -0.23500000000000001 Q 0.20500000000000002 -0.224 0.248 -0.224 Q 0.271 -0.224 0.28300000000000003 -0.2265 Q 0.295 -0.229 0.298 -0.2325 Q 0.301 -0.23600000000000002 0.303 -0.243 Q 0.28800000000000003 -0.248 0.261 -0.248 Q 0.213 -0.248 0.177 -0.23500000000000001 Z"/></g></g><g transform="scale(25,25)"><g transform="translate(26.325137,24.350554)"><path fill="rgb(0,0,0)" stroke="none" paint-order="stroke fill markers" d=" M 0.43 -0.559 L 0.069 -0.559 L 0.069 -0.59 L 0.43 -0.59 L 0.43 -0.559 Z"/></g><g transform="translate(26.28,24.364444)"><path fill="rgb(0,0,0)" stroke="none" paint-order="stroke fill markers" d=" M 0.577 -0.377 L 0.483 0.001 Q 0.461 0.09 0.3785 0.146 Q 0.296 0.202 0.20500000000000002 0.202 Q 0.145 0.202 0.108 0.178 Q 0.07100000000000001 0.154 0.07100000000000001 0.115 Q 0.07100000000000001 0.083 0.0925 0.061 Q 0.114 0.039 0.14300000000000002 0.039 Q 0.162 0.039 0.177 0.05 Q 0.192 0.061 0.192 0.085 Q 0.192 0.132 0.14400000000000002 0.152 Q 0.167 0.166 0.20500000000000002 0.166 Q 0.26 0.166 0.3085 0.116 Q 0.357 0.066 0.377 -0.022 Q 0.334 0.008 0.281 0.008 Q 0.254 0.008 0.2305 0.0035 Q 0.20700000000000002 -0.001 0.1805 -0.0135 Q 0.154 -0.026000000000000002 0.138 -0.054 Q 0.122 -0.082 0.122 -0.122 Q 0.122 -0.157 0.1355 -0.2005 Q 0.149 -0.244 0.182 -0.33 Q 0.199 -0.375 0.199 -0.395 Q 0.199 -0.405 0.196 -0.41000000000000003 Q 0.193 -0.41500000000000004 0.19 -0.41550000000000004 Q 0.187 -0.41600000000000004 0.182 -0.41600000000000004 Q 0.17400000000000002 -0.41600000000000004 0.1635 -0.41200000000000003 Q 0.153 -0.40800000000000003 0.1375 -0.3975 Q 0.122 -0.387 0.106 -0.3605 Q 0.09 -0.334 0.079 -0.295 Q 0.075 -0.28200000000000003 0.056 -0.28200000000000003 Q 0.032 -0.28200000000000003 0.032 -0.296 Q 0.032 -0.306 0.042 -0.3295 Q 0.052000000000000005 -0.353 0.07 -0.3815 Q 0.088 -0.41000000000000003 0.11950000000000001 -0.431 Q 0.151 -0.452 0.188 -0.452 Q 0.233 -0.452 0.267 -0.4275 Q 0.301 -0.403 0.301 -0.362 Q 0.301 -0.34600000000000003 0.28800000000000003 -0.312 Q 0.229 -0.16 0.229 -0.101 Q 0.229 -0.028 0.289 -0.028 Q 0.319 -0.028 0.357 -0.052000000000000005 Q 0.36 -0.054 0.3675 -0.06 Q 0.375 -0.066 0.3845 -0.078 Q 0.394 -0.09 0.396 -0.1 Q 0.403 -0.127 0.438 -0.266 L 0.464 -0.37 Q 0.468 -0.385 0.47100000000000003 -0.394 Q 0.47400000000000003 -0.403 0.482 -0.4165 Q 0.49 -0.43 0.5035000000000001 -0.437 Q 0.517 -0.444 0.535 -0.444 Q 0.557 -0.444 0.5695 -0.431 Q 0.582 -0.418 0.582 -0.4 Q 0.582 -0.395 0.577 -0.377 Z"/></g><g transform="translate(26.870276,24.364444)"><path fill="rgb(0,0,0)" stroke="none" paint-order="stroke fill markers" d=" M 0.354 -0.623 L 0.354 -0.047 L 0.494 -0.047 L 0.494 0 Q 0.45 -0.003 0.295 -0.003 Q 0.14 -0.003 0.096 0 L 0.096 -0.047 L 0.23500000000000001 -0.047 L 0.23500000000000001 -0.5640000000000001 Q 0.17300000000000001 -0.544 0.105 -0.544 L 0.085 -0.544 L 0.085 -0.591 L 0.105 -0.591 Q 0.229 -0.591 0.306 -0.648 Q 0.315 -0.655 0.328 -0.655 Q 0.34600000000000003 -0.655 0.35000000000000003 -0.6485 Q 0.354 -0.642 0.354 -0.623 Z"/></g></g><g transform="scale(25,25)"><g transform="translate(24.4,17.974445000000003)"><path fill="rgb(0,0,0)" stroke="none" paint-order="stroke fill markers" d=" M 0.455 -0.5 L 0.455 -0.5 Q 0.455 -0.34700000000000003 0.377 -0.19 Q 0.307 -0.05 0.222 -0.005 Q 0.191 0.011 0.162 0.011 Q 0.08 0.011 0.052000000000000005 -0.101 Q 0.042 -0.14300000000000002 0.042 -0.194 Q 0.042 -0.35100000000000003 0.122 -0.509 Q 0.192 -0.646 0.277 -0.6900000000000001 Q 0.307 -0.705 0.335 -0.705 Q 0.422 -0.705 0.447 -0.578 Q 0.455 -0.54 0.455 -0.5 M 0.148 -0.363 L 0.148 -0.363 L 0.357 -0.363 Q 0.389 -0.495 0.389 -0.562 Q 0.389 -0.675 0.342 -0.682 Q 0.338 -0.683 0.334 -0.683 Q 0.28300000000000003 -0.683 0.225 -0.578 Q 0.187 -0.511 0.149 -0.368 Q 0.149 -0.365 0.148 -0.363 M 0.34800000000000003 -0.331 L 0.14 -0.331 Q 0.108 -0.21 0.108 -0.133 Q 0.108 -0.013000000000000001 0.162 -0.011 Q 0.218 -0.011 0.278 -0.128 Q 0.317 -0.202 0.34800000000000003 -0.331 Z"/></g><g transform="translate(24.869443999999998,18.124445) scale(0.7,0.7)"><path fill="rgb(0,0,0)" stroke="none" paint-order="stroke fill markers" d=" M 0.46 -0.32 Q 0.46 -0.17400000000000002 0.423 -0.094 Q 0.364 0.018000000000000002 0.249 0.022 Q 0.158 0.022 0.10300000000000001 -0.05 Q 0.092 -0.063 0.084 -0.079 Q 0.039 -0.162 0.039 -0.32 Q 0.039 -0.467 0.076 -0.547 Q 0.126 -0.659 0.23800000000000002 -0.666 L 0.25 -0.666 Q 0.339 -0.666 0.395 -0.595 L 0.395 -0.594 Q 0.40900000000000003 -0.5760000000000001 0.42 -0.554 Q 0.46 -0.46900000000000003 0.46 -0.32 M 0.249 0 L 0.249 0 Q 0.312 0 0.34600000000000003 -0.061 Q 0.36 -0.088 0.366 -0.125 Q 0.377 -0.189 0.377 -0.332 Q 0.377 -0.47100000000000003 0.367 -0.527 Q 0.34900000000000003 -0.622 0.275 -0.641 Q 0.262 -0.644 0.249 -0.644 Q 0.179 -0.644 0.147 -0.5740000000000001 Q 0.136 -0.55 0.13 -0.516 Q 0.122 -0.462 0.122 -0.332 Q 0.122 -0.181 0.133 -0.121 Q 0.151 -0.025 0.221 -0.004 Q 0.23500000000000001 0 0.249 0 Z"/></g></g><g transform="scale(25,25)"><g transform="translate(29.76,22.614445000000003)"><path fill="rgb(204,0,0)" stroke="none" paint-order="stroke fill markers" d=" M 0.455 -0.5 L 0.455 -0.5 Q 0.455 -0.34700000000000003 0.377 -0.19 Q 0.307 -0.05 0.222 -0.005 Q 0.191 0.011 0.162 0.011 Q 0.08 0.011 0.052000000000000005 -0.101 Q 0.042 -0.14300000000000002 0.042 -0.194 Q 0.042 -0.35100000000000003 0.122 -0.509 Q 0.192 -0.646 0.277 -0.6900000000000001 Q 0.307 -0.705 0.335 -0.705 Q 0.422 -0.705 0.447 -0.578 Q 0.455 -0.54 0.455 -0.5 M 0.148 -0.363 L 0.148 -0.363 L 0.357 -0.363 Q 0.389 -0.495 0.389 -0.562 Q 0.389 -0.675 0.342 -0.682 Q 0.338 -0.683 0.334 -0.683 Q 0.28300000000000003 -0.683 0.225 -0.578 Q 0.187 -0.511 0.149 -0.368 Q 0.149 -0.365 0.148 -0.363 M 0.34800000000000003 -0.331 L 0.14 -0.331 Q 0.108 -0.21 0.108 -0.133 Q 0.108 -0.013000000000000001 0.162 -0.011 Q 0.218 -0.011 0.278 -0.128 Q 0.317 -0.202 0.34800000000000003 -0.331 Z"/></g></g><g transform="scale(25,25)"><g transform="translate(28.453334,14.35)"><path fill="rgb(0,102,153)" stroke="none" paint-order="stroke fill markers" d=" M 0.17200000000000001 -0.718 L 0.17200000000000001 0.218 Q 0.17200000000000001 0.248 0.152 0.25 Q 0.132 0.25 0.132 0.214 L 0.132 -0.714 Q 0.132 -0.749 0.152 -0.75 Q 0.17200000000000001 -0.75 0.17200000000000001 -0.718 M 0.367 -0.714 L 0.367 0.214 Q 0.367 0.249 0.34700000000000003 0.25 Q 0.327 0.25 0.327 0.218 L 0.327 -0.718 Q 0.327 -0.748 0.34700000000000003 -0.75 Q 0.367 -0.75 0.367 -0.714 Z"/></g><g transform="translate(28.953336,14.35)"><path fill="rgb(0,102,153)" stroke="none" paint-order="stroke fill markers" d=" M 0.734 -0.6 L 0.429 -0.274 L 0.373 -0.049 Q 0.41500000000000004 -0.047 0.434 -0.047 Q 0.451 -0.047 0.458 -0.0465 Q 0.465 -0.046 0.47050000000000003 -0.042 Q 0.47600000000000003 -0.038 0.47600000000000003 -0.029 Q 0.47600000000000003 -0.016 0.47000000000000003 -0.009000000000000001 Q 0.464 -0.002 0.459 -0.001 Q 0.454 0 0.447 0 Q 0.43 0 0.3705 -0.0015 Q 0.311 -0.003 0.294 -0.003 Q 0.28200000000000003 -0.003 0.2575 -0.0025 Q 0.233 -0.002 0.221 -0.002 Q 0.20800000000000002 -0.002 0.183 -0.001 Q 0.158 0 0.145 0 Q 0.123 0 0.123 -0.018000000000000002 Q 0.123 -0.035 0.133 -0.043000000000000003 Q 0.137 -0.047 0.169 -0.047 Q 0.20400000000000001 -0.047 0.221 -0.049 Q 0.234 -0.05 0.23750000000000002 -0.0525 Q 0.241 -0.055 0.244 -0.068 L 0.296 -0.274 L 0.14400000000000002 -0.623 Q 0.14 -0.632 0.137 -0.634 Q 0.134 -0.636 0.124 -0.638 Q 0.11 -0.639 0.085 -0.639 Q 0.068 -0.639 0.0615 -0.6395000000000001 Q 0.055 -0.64 0.0495 -0.644 Q 0.044 -0.648 0.044 -0.657 Q 0.044 -0.67 0.0495 -0.677 Q 0.055 -0.684 0.059500000000000004 -0.685 Q 0.064 -0.686 0.07200000000000001 -0.686 Q 0.083 -0.686 0.1075 -0.685 Q 0.132 -0.684 0.14400000000000002 -0.684 Q 0.155 -0.684 0.178 -0.6835 Q 0.201 -0.683 0.213 -0.683 Q 0.23 -0.683 0.2905 -0.6845 Q 0.35100000000000003 -0.686 0.368 -0.686 Q 0.39 -0.686 0.39 -0.668 Q 0.39 -0.649 0.3815 -0.644 Q 0.373 -0.639 0.356 -0.639 Q 0.328 -0.639 0.3 -0.635 L 0.428 -0.342 L 0.6990000000000001 -0.632 Q 0.678 -0.639 0.654 -0.639 Q 0.627 -0.639 0.627 -0.657 Q 0.627 -0.686 0.654 -0.686 Q 0.672 -0.686 0.709 -0.6845 Q 0.746 -0.683 0.765 -0.683 Q 0.78 -0.683 0.8115 -0.6845 Q 0.843 -0.686 0.857 -0.686 Q 0.866 -0.686 0.8705 -0.68 Q 0.875 -0.674 0.875 -0.668 Q 0.875 -0.655 0.8695 -0.648 Q 0.864 -0.641 0.859 -0.64 Q 0.854 -0.639 0.846 -0.639 Q 0.8 -0.638 0.7765 -0.629 Q 0.753 -0.62 0.734 -0.6 Z"/></g><g transform="translate(29.85013788888889,14.35)"><path fill="rgb(0,102,153)" stroke="none" paint-order="stroke fill markers" d=" M 0.661 -0.23 L 0.116 -0.23 Q 0.084 -0.23 0.083 -0.25 Q 0.083 -0.27 0.116 -0.27 L 0.661 -0.27 Q 0.6930000000000001 -0.27 0.6940000000000001 -0.25 Q 0.6940000000000001 -0.23 0.661 -0.23 Z"/></g><g transform="translate(30.895278777777783,14.33611)"><path fill="rgb(0,102,153)" stroke="none" paint-order="stroke fill markers" d=" M 0.43 -0.559 L 0.069 -0.559 L 0.069 -0.59 L 0.43 -0.59 L 0.43 -0.559 Z"/></g><g transform="translate(30.850141777777782,14.35)"><path fill="rgb(0,102,153)" stroke="none" paint-order="stroke fill markers" d=" M 0.577 -0.377 L 0.483 0.001 Q 0.461 0.09 0.3785 0.146 Q 0.296 0.202 0.20500000000000002 0.202 Q 0.145 0.202 0.108 0.178 Q 0.07100000000000001 0.154 0.07100000000000001 0.115 Q 0.07100000000000001 0.083 0.0925 0.061 Q 0.114 0.039 0.14300000000000002 0.039 Q 0.162 0.039 0.177 0.05 Q 0.192 0.061 0.192 0.085 Q 0.192 0.132 0.14400000000000002 0.152 Q 0.167 0.166 0.20500000000000002 0.166 Q 0.26 0.166 0.3085 0.116 Q 0.357 0.066 0.377 -0.022 Q 0.334 0.008 0.281 0.008 Q 0.254 0.008 0.2305 0.0035 Q 0.20700000000000002 -0.001 0.1805 -0.0135 Q 0.154 -0.026000000000000002 0.138 -0.054 Q 0.122 -0.082 0.122 -0.122 Q 0.122 -0.157 0.1355 -0.2005 Q 0.149 -0.244 0.182 -0.33 Q 0.199 -0.375 0.199 -0.395 Q 0.199 -0.405 0.196 -0.41000000000000003 Q 0.193 -0.41500000000000004 0.19 -0.41550000000000004 Q 0.187 -0.41600000000000004 0.182 -0.41600000000000004 Q 0.17400000000000002 -0.41600000000000004 0.1635 -0.41200000000000003 Q 0.153 -0.40800000000000003 0.1375 -0.3975 Q 0.122 -0.387 0.106 -0.3605 Q 0.09 -0.334 0.079 -0.295 Q 0.075 -0.28200000000000003 0.056 -0.28200000000000003 Q 0.032 -0.28200000000000003 0.032 -0.296 Q 0.032 -0.306 0.042 -0.3295 Q 0.052000000000000005 -0.353 0.07 -0.3815 Q 0.088 -0.41000000000000003 0.11950000000000001 -0.431 Q 0.151 -0.452 0.188 -0.452 Q 0.233 -0.452 0.267 -0.4275 Q 0.301 -0.403 0.301 -0.362 Q 0.301 -0.34600000000000003 0.28800000000000003 -0.312 Q 0.229 -0.16 0.229 -0.101 Q 0.229 -0.028 0.289 -0.028 Q 0.319 -0.028 0.357 -0.052000000000000005 Q 0.36 -0.054 0.3675 -0.06 Q 0.375 -0.066 0.3845 -0.078 Q 0.394 -0.09 0.396 -0.1 Q 0.403 -0.127 0.438 -0.266 L 0.464 -0.37 Q 0.468 -0.385 0.47100000000000003 -0.394 Q 0.47400000000000003 -0.403 0.482 -0.4165 Q 0.49 -0.43 0.5035000000000001 -0.437 Q 0.517 -0.444 0.535 -0.444 Q 0.557 -0.444 0.5695 -0.431 Q 0.582 -0.418 0.582 -0.4 Q 0.582 -0.395 0.577 -0.377 Z"/></g><g transform="translate(31.440417777777782,14.35)"><path fill="rgb(0,102,153)" stroke="none" paint-order="stroke fill markers" d=" M 0.354 -0.623 L 0.354 -0.047 L 0.494 -0.047 L 0.494 0 Q 0.45 -0.003 0.295 -0.003 Q 0.14 -0.003 0.096 0 L 0.096 -0.047 L 0.23500000000000001 -0.047 L 0.23500000000000001 -0.5640000000000001 Q 0.17300000000000001 -0.544 0.105 -0.544 L 0.085 -0.544 L 0.085 -0.591 L 0.105 -0.591 Q 0.229 -0.591 0.306 -0.648 Q 0.315 -0.655 0.328 -0.655 Q 0.34600000000000003 -0.655 0.35000000000000003 -0.6485 Q 0.354 -0.642 0.354 -0.623 Z"/></g><g transform="translate(32.015414777777785,14.35)"><path fill="rgb(0,102,153)" stroke="none" paint-order="stroke fill markers" d=" M 0.17200000000000001 -0.718 L 0.17200000000000001 0.218 Q 0.17200000000000001 0.248 0.152 0.25 Q 0.132 0.25 0.132 0.214 L 0.132 -0.714 Q 0.132 -0.749 0.152 -0.75 Q 0.17200000000000001 -0.75 0.17200000000000001 -0.718 M 0.367 -0.714 L 0.367 0.214 Q 0.367 0.249 0.34700000000000003 0.25 Q 0.327 0.25 0.327 0.218 L 0.327 -0.718 Q 0.327 -0.748 0.34700000000000003 -0.75 Q 0.367 -0.75 0.367 -0.714 Z"/></g></g><g transform="scale(25,25)"><g transform="translate(32.72,23.147222)"><path fill="rgb(0,102,153)" stroke="none" paint-order="stroke fill markers" d=" M 0.17200000000000001 -0.718 L 0.17200000000000001 0.218 Q 0.17200000000000001 0.248 0.152 0.25 Q 0.132 0.25 0.132 0.214 L 0.132 -0.714 Q 0.132 -0.749 0.152 -0.75 Q 0.17200000000000001 -0.75 0.17200000000000001 -0.718 M 0.367 -0.714 L 0.367 0.214 Q 0.367 0.249 0.34700000000000003 0.25 Q 0.327 0.25 0.327 0.218 L 0.327 -0.718 Q 0.327 -0.748 0.34700000000000003 -0.75 Q 0.367 -0.75 0.367 -0.714 Z"/></g><g transform="translate(33.2602795,22.894444999999997)"><path fill="rgb(0,102,153)" stroke="none" paint-order="stroke fill markers" d=" M 0.25 -0.6940000000000001 L 0.383 -0.558 L 0.365 -0.54 L 0.25 -0.642 L 0.134 -0.54 L 0.116 -0.558 L 0.25 -0.6940000000000001 Z"/></g><g transform="translate(33.220002,23.147222)"><path fill="rgb(0,102,153)" stroke="none" paint-order="stroke fill markers" d=" M 0.597 -0.5690000000000001 L 0.597 -0.5690000000000001 L 0.34900000000000003 -0.28400000000000003 Q 0.341 -0.275 0.335 -0.253 L 0.3 -0.112 Q 0.28600000000000003 -0.053 0.28600000000000003 -0.049 Q 0.28600000000000003 -0.037 0.3 -0.035 Q 0.304 -0.034 0.313 -0.033 Q 0.33 -0.031 0.35100000000000003 -0.031 Q 0.377 -0.031 0.379 -0.02 Q 0.379 0 0.36 0 L 0.233 -0.003 L 0.232 -0.003 L 0.107 0 L 0.106 0 Q 0.092 0 0.092 -0.011 Q 0.092 -0.029 0.105 -0.03 Q 0.109 -0.031 0.11900000000000001 -0.031 Q 0.182 -0.032 0.194 -0.042 L 0.196 -0.044 L 0.197 -0.045 Q 0.20400000000000001 -0.053 0.213 -0.09 L 0.258 -0.272 Q 0.258 -0.277 0.254 -0.289 L 0.131 -0.618 Q 0.123 -0.641 0.11 -0.646 Q 0.096 -0.652 0.058 -0.652 Q 0.036000000000000004 -0.652 0.035 -0.663 Q 0.035 -0.683 0.054 -0.683 L 0.165 -0.68 L 0.166 -0.68 L 0.291 -0.683 L 0.292 -0.683 Q 0.307 -0.683 0.307 -0.672 Q 0.299 -0.653 0.28300000000000003 -0.652 Q 0.224 -0.652 0.224 -0.628 Q 0.224 -0.625 0.23 -0.611 L 0.34 -0.314 L 0.5720000000000001 -0.581 Q 0.599 -0.615 0.599 -0.629 Q 0.599 -0.651 0.5630000000000001 -0.652 Q 0.548 -0.652 0.548 -0.664 Q 0.548 -0.683 0.5670000000000001 -0.683 L 0.662 -0.68 L 0.667 -0.68 L 0.747 -0.683 L 0.749 -0.683 Q 0.762 -0.683 0.762 -0.671 Q 0.762 -0.655 0.748 -0.653 Q 0.747 -0.652 0.742 -0.652 Q 0.677 -0.647 0.625 -0.597 L 0.611 -0.583 L 0.597 -0.5690000000000001 Z"/></g><g transform="translate(34.022781888888886,23.147222)"><path fill="rgb(0,102,153)" stroke="none" paint-order="stroke fill markers" d=" M 0.661 -0.23 L 0.116 -0.23 Q 0.084 -0.23 0.083 -0.25 Q 0.083 -0.27 0.116 -0.27 L 0.661 -0.27 Q 0.6930000000000001 -0.27 0.6940000000000001 -0.25 Q 0.6940000000000001 -0.23 0.661 -0.23 Z"/></g><g transform="translate(35.07348277777777,23.147222)"><path fill="rgb(0,102,153)" stroke="none" paint-order="stroke fill markers" d=" M 0.43 -0.559 L 0.069 -0.559 L 0.069 -0.59 L 0.43 -0.59 L 0.43 -0.559 Z"/></g><g transform="translate(35.02278577777777,23.147222)"><path fill="rgb(0,102,153)" stroke="none" paint-order="stroke fill markers" d=" M 0.486 -0.381 L 0.39 0.001 Q 0.366 0.099 0.28300000000000003 0.16 Q 0.222 0.20500000000000002 0.156 0.20500000000000002 Q 0.089 0.20500000000000002 0.061 0.159 Q 0.05 0.14 0.05 0.11800000000000001 Q 0.05 0.067 0.091 0.055 Q 0.099 0.053 0.106 0.053 Q 0.138 0.053 0.14200000000000002 0.081 Q 0.14300000000000002 0.084 0.14300000000000002 0.088 Q 0.14300000000000002 0.111 0.123 0.129 Q 0.109 0.14100000000000001 0.08 0.14100000000000001 Q 0.098 0.183 0.156 0.183 Q 0.218 0.183 0.266 0.12 Q 0.305 0.068 0.328 -0.021 Q 0.329 -0.025 0.331 -0.034 Q 0.28600000000000003 0.011 0.23 0.011 Q 0.15 0.011 0.121 -0.048 Q 0.108 -0.074 0.108 -0.108 Q 0.108 -0.163 0.161 -0.305 Q 0.163 -0.311 0.166 -0.318 Q 0.183 -0.364 0.183 -0.388 Q 0.183 -0.42 0.158 -0.42 Q 0.10300000000000001 -0.42 0.068 -0.329 L 0.068 -0.328 Q 0.062 -0.313 0.057 -0.296 Q 0.046 -0.279 0.041 -0.278 Q 0.029 -0.278 0.029 -0.28800000000000003 Q 0.029 -0.306 0.05 -0.35100000000000003 Q 0.094 -0.442 0.161 -0.442 Q 0.214 -0.442 0.23500000000000001 -0.397 Q 0.243 -0.38 0.243 -0.36 Q 0.243 -0.339 0.223 -0.28800000000000003 Q 0.17200000000000001 -0.156 0.17200000000000001 -0.092 Q 0.17200000000000001 -0.011 0.234 -0.011 Q 0.292 -0.011 0.335 -0.073 Q 0.34500000000000003 -0.088 0.34700000000000003 -0.096 L 0.392 -0.276 Q 0.399 -0.309 0.41200000000000003 -0.356 Q 0.422 -0.399 0.426 -0.41000000000000003 Q 0.439 -0.431 0.461 -0.431 Q 0.486 -0.426 0.49 -0.404 Q 0.49 -0.395 0.486 -0.381 Z"/></g><g transform="translate(35.51306777777777,23.147222)"><path fill="rgb(0,102,153)" stroke="none" paint-order="stroke fill markers" d=" M 0.354 -0.623 L 0.354 -0.047 L 0.494 -0.047 L 0.494 0 Q 0.45 -0.003 0.295 -0.003 Q 0.14 -0.003 0.096 0 L 0.096 -0.047 L 0.23500000000000001 -0.047 L 0.23500000000000001 -0.5640000000000001 Q 0.17300000000000001 -0.544 0.105 -0.544 L 0.085 -0.544 L 0.085 -0.591 L 0.105 -0.591 Q 0.229 -0.591 0.306 -0.648 Q 0.315 -0.655 0.328 -0.655 Q 0.34600000000000003 -0.655 0.35000000000000003 -0.6485 Q 0.354 -0.642 0.354 -0.623 Z"/></g><g transform="translate(36.088064777777774,23.147222)"><path fill="rgb(0,102,153)" stroke="none" paint-order="stroke fill markers" d=" M 0.17200000000000001 -0.718 L 0.17200000000000001 0.218 Q 0.17200000000000001 0.248 0.152 0.25 Q 0.132 0.25 0.132 0.214 L 0.132 -0.714 Q 0.132 -0.749 0.152 -0.75 Q 0.17200000000000001 -0.75 0.17200000000000001 -0.718 M 0.367 -0.714 L 0.367 0.214 Q 0.367 0.249 0.34700000000000003 0.25 Q 0.327 0.25 0.327 0.218 L 0.327 -0.718 Q 0.327 -0.748 0.34700000000000003 -0.75 Q 0.367 -0.75 0.367 -0.714 Z"/></g></g><g transform="scale(25,25)"><g transform="translate(37.32,13.070001)"><path fill="rgb(0,102,153)" stroke="none" paint-order="stroke fill markers" d=" M 0.17200000000000001 -0.718 L 0.17200000000000001 0.218 Q 0.17200000000000001 0.248 0.152 0.25 Q 0.132 0.25 0.132 0.214 L 0.132 -0.714 Q 0.132 -0.749 0.152 -0.75 Q 0.17200000000000001 -0.75 0.17200000000000001 -0.718 M 0.367 -0.714 L 0.367 0.214 Q 0.367 0.249 0.34700000000000003 0.25 Q 0.327 0.25 0.327 0.218 L 0.327 -0.718 Q 0.327 -0.748 0.34700000000000003 -0.75 Q 0.367 -0.75 0.367 -0.714 Z"/></g><g transform="translate(37.820002,13.070001)"><path fill="rgb(0,102,153)" stroke="none" paint-order="stroke fill markers" d=" M 0.734 -0.6 L 0.429 -0.274 L 0.373 -0.049 Q 0.41500000000000004 -0.047 0.434 -0.047 Q 0.451 -0.047 0.458 -0.0465 Q 0.465 -0.046 0.47050000000000003 -0.042 Q 0.47600000000000003 -0.038 0.47600000000000003 -0.029 Q 0.47600000000000003 -0.016 0.47000000000000003 -0.009000000000000001 Q 0.464 -0.002 0.459 -0.001 Q 0.454 0 0.447 0 Q 0.43 0 0.3705 -0.0015 Q 0.311 -0.003 0.294 -0.003 Q 0.28200000000000003 -0.003 0.2575 -0.0025 Q 0.233 -0.002 0.221 -0.002 Q 0.20800000000000002 -0.002 0.183 -0.001 Q 0.158 0 0.145 0 Q 0.123 0 0.123 -0.018000000000000002 Q 0.123 -0.035 0.133 -0.043000000000000003 Q 0.137 -0.047 0.169 -0.047 Q 0.20400000000000001 -0.047 0.221 -0.049 Q 0.234 -0.05 0.23750000000000002 -0.0525 Q 0.241 -0.055 0.244 -0.068 L 0.296 -0.274 L 0.14400000000000002 -0.623 Q 0.14 -0.632 0.137 -0.634 Q 0.134 -0.636 0.124 -0.638 Q 0.11 -0.639 0.085 -0.639 Q 0.068 -0.639 0.0615 -0.6395000000000001 Q 0.055 -0.64 0.0495 -0.644 Q 0.044 -0.648 0.044 -0.657 Q 0.044 -0.67 0.0495 -0.677 Q 0.055 -0.684 0.059500000000000004 -0.685 Q 0.064 -0.686 0.07200000000000001 -0.686 Q 0.083 -0.686 0.1075 -0.685 Q 0.132 -0.684 0.14400000000000002 -0.684 Q 0.155 -0.684 0.178 -0.6835 Q 0.201 -0.683 0.213 -0.683 Q 0.23 -0.683 0.2905 -0.6845 Q 0.35100000000000003 -0.686 0.368 -0.686 Q 0.39 -0.686 0.39 -0.668 Q 0.39 -0.649 0.3815 -0.644 Q 0.373 -0.639 0.356 -0.639 Q 0.328 -0.639 0.3 -0.635 L 0.428 -0.342 L 0.6990000000000001 -0.632 Q 0.678 -0.639 0.654 -0.639 Q 0.627 -0.639 0.627 -0.657 Q 0.627 -0.686 0.654 -0.686 Q 0.672 -0.686 0.709 -0.6845 Q 0.746 -0.683 0.765 -0.683 Q 0.78 -0.683 0.8115 -0.6845 Q 0.843 -0.686 0.857 -0.686 Q 0.866 -0.686 0.8705 -0.68 Q 0.875 -0.674 0.875 -0.668 Q 0.875 -0.655 0.8695 -0.648 Q 0.864 -0.641 0.859 -0.64 Q 0.854 -0.639 0.846 -0.639 Q 0.8 -0.638 0.7765 -0.629 Q 0.753 -0.62 0.734 -0.6 Z"/></g><g transform="translate(38.71680388888889,13.070001)"><path fill="rgb(0,102,153)" stroke="none" paint-order="stroke fill markers" d=" M 0.661 -0.23 L 0.116 -0.23 Q 0.084 -0.23 0.083 -0.25 Q 0.083 -0.27 0.116 -0.27 L 0.661 -0.27 Q 0.6930000000000001 -0.27 0.6940000000000001 -0.25 Q 0.6940000000000001 -0.23 0.661 -0.23 Z"/></g><g transform="translate(39.804096277777774,12.814445)"><path fill="rgb(0,102,153)" stroke="none" paint-order="stroke fill markers" d=" M 0.25 -0.6940000000000001 L 0.383 -0.558 L 0.365 -0.54 L 0.25 -0.642 L 0.134 -0.54 L 0.116 -0.558 L 0.25 -0.6940000000000001 Z"/></g><g transform="translate(39.716807777777774,13.070001)"><path fill="rgb(0,102,153)" stroke="none" paint-order="stroke fill markers" d=" M 0.734 -0.6 L 0.429 -0.274 L 0.373 -0.049 Q 0.41500000000000004 -0.047 0.434 -0.047 Q 0.451 -0.047 0.458 -0.0465 Q 0.465 -0.046 0.47050000000000003 -0.042 Q 0.47600000000000003 -0.038 0.47600000000000003 -0.029 Q 0.47600000000000003 -0.016 0.47000000000000003 -0.009000000000000001 Q 0.464 -0.002 0.459 -0.001 Q 0.454 0 0.447 0 Q 0.43 0 0.3705 -0.0015 Q 0.311 -0.003 0.294 -0.003 Q 0.28200000000000003 -0.003 0.2575 -0.0025 Q 0.233 -0.002 0.221 -0.002 Q 0.20800000000000002 -0.002 0.183 -0.001 Q 0.158 0 0.145 0 Q 0.123 0 0.123 -0.018000000000000002 Q 0.123 -0.035 0.133 -0.043000000000000003 Q 0.137 -0.047 0.169 -0.047 Q 0.20400000000000001 -0.047 0.221 -0.049 Q 0.234 -0.05 0.23750000000000002 -0.0525 Q 0.241 -0.055 0.244 -0.068 L 0.296 -0.274 L 0.14400000000000002 -0.623 Q 0.14 -0.632 0.137 -0.634 Q 0.134 -0.636 0.124 -0.638 Q 0.11 -0.639 0.085 -0.639 Q 0.068 -0.639 0.0615 -0.6395000000000001 Q 0.055 -0.64 0.0495 -0.644 Q 0.044 -0.648 0.044 -0.657 Q 0.044 -0.67 0.0495 -0.677 Q 0.055 -0.684 0.059500000000000004 -0.685 Q 0.064 -0.686 0.07200000000000001 -0.686 Q 0.083 -0.686 0.1075 -0.685 Q 0.132 -0.684 0.14400000000000002 -0.684 Q 0.155 -0.684 0.178 -0.6835 Q 0.201 -0.683 0.213 -0.683 Q 0.23 -0.683 0.2905 -0.6845 Q 0.35100000000000003 -0.686 0.368 -0.686 Q 0.39 -0.686 0.39 -0.668 Q 0.39 -0.649 0.3815 -0.644 Q 0.373 -0.639 0.356 -0.639 Q 0.328 -0.639 0.3 -0.635 L 0.428 -0.342 L 0.6990000000000001 -0.632 Q 0.678 -0.639 0.654 -0.639 Q 0.627 -0.639 0.627 -0.657 Q 0.627 -0.686 0.654 -0.686 Q 0.672 -0.686 0.709 -0.6845 Q 0.746 -0.683 0.765 -0.683 Q 0.78 -0.683 0.8115 -0.6845 Q 0.843 -0.686 0.857 -0.686 Q 0.866 -0.686 0.8705 -0.68 Q 0.875 -0.674 0.875 -0.668 Q 0.875 -0.655 0.8695 -0.648 Q 0.864 -0.641 0.859 -0.64 Q 0.854 -0.639 0.846 -0.639 Q 0.8 -0.638 0.7765 -0.629 Q 0.753 -0.62 0.734 -0.6 Z"/></g><g transform="translate(40.391386777777775,13.070001)"><path fill="rgb(0,102,153)" stroke="none" paint-order="stroke fill markers" d=" M 0.17200000000000001 -0.718 L 0.17200000000000001 0.218 Q 0.17200000000000001 0.248 0.152 0.25 Q 0.132 0.25 0.132 0.214 L 0.132 -0.714 Q 0.132 -0.749 0.152 -0.75 Q 0.17200000000000001 -0.75 0.17200000000000001 -0.718 M 0.367 -0.714 L 0.367 0.214 Q 0.367 0.249 0.34700000000000003 0.25 Q 0.327 0.25 0.327 0.218 L 0.327 -0.718 Q 0.327 -0.748 0.34700000000000003 -0.75 Q 0.367 -0.75 0.367 -0.714 Z"/></g></g></g></g></svg>