<svg version="1.1" xmlns="http://www.w3.org/2000/svg" xmlns:xlink="http://www.w3.org/1999/xlink" width="1492" height="910"><defs><clipPath id="tbOKrLGWNhvM"><path fill="none" stroke="none" d=" M 0 0 L 1492 0 L 1492 910 L 0 910 L 0 0 Z"/></clipPath></defs><g transform="scale(1,1)" clip-path="url(#tbOKrLGWNhvM)"><g><rect fill="rgb(255,255,255)" stroke="none" x="0" y="0" width="1492" height="910" fill-opacity="1"/><path fill="none" stroke="rgb(0,0,0)" paint-order="fill stroke markers" d=" M 707.9090909090917 10.94545454545414 L 466.09090909091 271.85454545454525" stroke-opacity="0.6980392156862745" stroke-linejoin="round" stroke-miterlimit="10" stroke-dasharray="1,3"/><path fill="none" stroke="rgb(0,0,0)" paint-order="fill stroke markers" d=" M 466.09090909091 271.85454545454525 L 495.6363636363644 761.6727272727273" stroke-opacity="0.6980392156862745" stroke-linejoin="round" stroke-miterlimit="10" stroke-dasharray="1,3"/><path fill="none" stroke="rgb(0,0,0)" paint-order="fill stroke markers" d=" M 495.6363636363644 761.6727272727273 L 731.0909090909098 428.03636363636355" stroke-opacity="0.6980392156862745" stroke-linejoin="round" stroke-miterlimit="10" stroke-dasharray="1,3"/><path fill="none" stroke="rgb(0,0,0)" paint-order="fill stroke markers" d=" M 731.0909090909098 428.03636363636355 L 707.9090909090917 10.94545454545414" stroke-opacity="0.6980392156862745" stroke-linejoin="round" stroke-miterlimit="10" stroke-dasharray="1,3"/><path fill="none" stroke="rgb(0,0,0)" paint-order="fill stroke markers" d=" M 487.27272727272805 491.30909090909086 L 1099.09090909091 624.0363636363636" stroke-opacity="0.6980392156862745" stroke-linecap="round" stroke-linejoin="round" stroke-miterlimit="10" stroke-width="1.5"/><path fill="none" stroke="rgb(0,0,0)" paint-order="fill stroke markers" d=" M 504.5454545454552 634.0363636363636 L 690.0000000000007 369.490909090909" stroke-opacity="0.6980392156862745" stroke-linejoin="round" stroke-miterlimit="10" stroke-width="1.5" stroke-dasharray="9.5,8"/><path fill="none" stroke="rgb(0,0,0)" paint-order="fill stroke markers" d=" M 862.5841399884439 379.09857450583786 L 863.6363636363644 481.30909090909086" stroke-opacity="0.6980392156862745" stroke-linejoin="round" stroke-miterlimit="10" stroke-width="2.5" stroke-dasharray="6.5,4"/><path fill="none" stroke="rgb(211,47,47)" paint-order="fill stroke markers" d=" M 863.6363636363644 481.30909090909086 L 815.5835658400586 562.5325417721373" stroke-opacity="0.6980392156862745" stroke-linejoin="round" stroke-miterlimit="10" stroke-width="2.5" stroke-dasharray="10.5,8"/><path fill="none" stroke="rgb(0,0,0)" paint-order="fill stroke markers" d=" M 862.5841399884439 379.09857450583786 L 815.5835658400586 562.5325417721373" stroke-opacity="0.6980392156862745" stroke-linejoin="round" stroke-miterlimit="10" stroke-dasharray="9,8"/><path fill="none" stroke="rgb(0,0,0)" paint-order="fill stroke markers" d=" M 863.6363636363644 481.30909090909086 L 640.2388525747757 440.47372232983287" stroke-opacity="0.6980392156862745" stroke-linejoin="round" stroke-miterlimit="10" stroke-dasharray="5,4"/><path fill="none" stroke="rgb(0,0,0)" paint-order="fill stroke markers" d=" M 640.2388525747757 440.47372232983287 L 862.5841399884439 379.09857450583786" stroke-opacity="0.6980392156862745" stroke-linejoin="round" stroke-miterlimit="10" stroke-dasharray="9,8"/><path fill="none" stroke="rgb(211,47,47)" paint-order="fill stroke markers" d=" M 589.113621556415 513.4023606942592 L 863.6363636363644 481.30909090909086" stroke-opacity="0.6980392156862745" stroke-linecap="round" stroke-linejoin="round" stroke-miterlimit="10" stroke-width="2.5"/><path fill="none" stroke="rgb(0,0,0)" paint-order="fill stroke markers" d=" M 589.113621556415 513.4023606942592 L 640.2388525747757 440.47372232983287" stroke-opacity="0.6980392156862745" stroke-linecap="round" stroke-linejoin="round" stroke-miterlimit="10" stroke-width="2.5"/><path fill="none" stroke="rgb(211,47,47)" paint-order="fill stroke markers" d=" M 589.113621556415 513.4023606942592 L 815.5835658400586 562.5325417721373" stroke-opacity="0.6980392156862745" stroke-linecap="round" stroke-linejoin="round" stroke-miterlimit="10" stroke-width="3"/><path fill="none" stroke="rgb(97,97,97)" paint-order="fill stroke markers" d=" M 239 683 L 465.05530296810116 683" stroke-opacity="0.6980392156862745" stroke-linecap="round" stroke-linejoin="round" stroke-miterlimit="10" stroke-width="2.5"/><path fill="none" stroke="rgb(97,97,97)" paint-order="fill stroke markers" d=" M 572 684 L 1190.000809060959 684" stroke-opacity="0.6980392156862745" stroke-linecap="round" stroke-linejoin="round" stroke-miterlimit="10" stroke-width="2.5"/><path fill="none" stroke="rgb(97,97,97)" paint-order="fill stroke markers" d=" M 1190.000809060959 684 L 1406.2302499720445 309.47962224978994" stroke-opacity="0.6980392156862745" stroke-linecap="round" stroke-linejoin="round" stroke-miterlimit="10" stroke-width="2.5"/><path fill="none" stroke="rgb(97,97,97)" paint-order="fill stroke markers" d=" M 1406.2302499720445 309.47962224978994 L 770.9902452973937 309.47962224979005" stroke-opacity="0.6980392156862745" stroke-linecap="round" stroke-linejoin="round" stroke-miterlimit="10" stroke-width="2.5"/><path fill="none" stroke="rgb(97,97,97)" paint-order="fill stroke markers" d=" M 663 313 L 438 316" stroke-opacity="0.6980392156862745" stroke-linecap="round" stroke-linejoin="round" stroke-miterlimit="10" stroke-width="2.5"/><path fill="none" stroke="rgb(97,97,97)" paint-order="fill stroke markers" d=" M 438 316 L 188 683" stroke-opacity="0.6980392156862745" stroke-linecap="round" stroke-linejoin="round" stroke-miterlimit="10" stroke-width="2.5"/><path fill="none" stroke="rgb(97,97,97)" paint-order="fill stroke markers" d=" M 188 683 L 239 683" stroke-opacity="0.6980392156862745" stroke-linecap="round" stroke-linejoin="round" stroke-miterlimit="10" stroke-width="2.5"/><path fill="none" stroke="rgb(0,102,153)" paint-order="fill stroke markers" d=" M 589.113621556415 513.4023606942592 L 848.3772201125047 386.07571829579416" stroke-opacity="0.6980392156862745" stroke-linecap="round" stroke-linejoin="round" stroke-miterlimit="10" stroke-width="2.5"/><path fill="rgb(0,102,153)" stroke="none" paint-order="stroke fill markers" fill-rule="evenodd" d=" M 863.6363636363644 378.58181818181805 L 850.2506951409987 389.89050417675907 L 846.5037450840107 382.26093241482926 Z" fill-opacity="0.6980392156862745"/><path fill="none" stroke="rgb(255,255,255)" paint-order="fill stroke markers" d=" M 539.181818181819 344.0363636363635 C 539.181818181819 344.5886483861943 538.7341029316499 345.0363636363635 538.181818181819 345.0363636363635 C 537.6295334319882 345.0363636363635 537.181818181819 344.5886483861943 537.181818181819 344.0363636363635 C 537.181818181819 343.4840788865327 537.6295334319882 343.0363636363635 538.181818181819 343.0363636363635 C 538.7341029316499 343.0363636363635 539.181818181819 343.4840788865327 539.181818181819 344.0363636363635 Z" stroke-opacity="1" stroke-linecap="square" stroke-miterlimit="10" stroke-width="0.5"/><text fill="rgb(255,255,255)" stroke="none" font-family="geogebra-sans-serif, sans-serif" font-size="16px" font-style="normal" font-weight="normal" text-decoration="normal" x="542" y="342" text-anchor="start" dominant-baseline="alphabetic" fill-opacity="1">A</text><path fill="rgb(97,97,97)" stroke="none" paint-order="stroke fill markers" d=" M 594.113621556415 513.4023606942592 C 594.113621556415 516.1637844434132 591.875045305569 518.4023606942592 589.113621556415 518.4023606942592 C 586.352197807261 518.4023606942592 584.113621556415 516.1637844434132 584.113621556415 513.4023606942592 C 584.113621556415 510.64093694510524 586.352197807261 508.4023606942592 589.113621556415 508.4023606942592 C 591.875045305569 508.4023606942592 594.113621556415 510.64093694510524 594.113621556415 513.4023606942592 Z" fill-opacity="1"/><path fill="none" stroke="rgb(0,0,0)" paint-order="fill stroke markers" d=" M 594.113621556415 513.4023606942592 C 594.113621556415 516.1637844434132 591.875045305569 518.4023606942592 589.113621556415 518.4023606942592 C 586.352197807261 518.4023606942592 584.113621556415 516.1637844434132 584.113621556415 513.4023606942592 C 584.113621556415 510.64093694510524 586.352197807261 508.4023606942592 589.113621556415 508.4023606942592 C 591.875045305569 508.4023606942592 594.113621556415 510.64093694510524 594.113621556415 513.4023606942592 Z" stroke-opacity="1" stroke-linecap="round" stroke-linejoin="round" stroke-miterlimit="10"/><text fill="none" stroke="rgb(255,255,255)" font-family="geogebra-sans-serif, sans-serif" font-size="16px" font-style="normal" font-weight="normal" text-decoration="normal" x="578" y="502" text-anchor="start" dominant-baseline="alphabetic" stroke-opacity="1" stroke-linecap="round" stroke-linejoin="bevel" stroke-miterlimit="10" stroke-width="3">O</text><text fill="rgb(97,97,97)" stroke="none" font-family="geogebra-sans-serif, sans-serif" font-size="16px" font-style="normal" font-weight="normal" text-decoration="normal" x="578" y="502" text-anchor="start" dominant-baseline="alphabetic" fill-opacity="1">O</text><g transform="scale(35,35)"><g transform="translate(7.714285714285714,18.37857142857143)"><path fill="rgb(0,0,0)" stroke="none" paint-order="stroke fill markers" d=" M 0.385 -0.557 L 0.385 -0.557 L 0.353 -0.428 Q 0.325 -0.315 0.254 -0.14200000000000002 Q 0.181 0.03 0.127 0.048 Q 0.12 0.05 0.114 0.05 Q 0.088 0.05 0.059000000000000004 0.035 Q 0.028 0.019 0.027 -0.002 Q 0.027 -0.034 0.048 -0.064 Q 0.057 -0.075 0.063 -0.075 Q 0.066 -0.075 0.07200000000000001 -0.07 Q 0.10300000000000001 -0.045 0.14400000000000002 -0.042 Q 0.186 -0.042 0.254 -0.225 L 0.276 -0.28600000000000003 Q 0.338 -0.459 0.365 -0.651 Q 0.369 -0.673 0.381 -0.683 L 0.382 -0.684 Q 0.383 -0.685 0.385 -0.686 Q 0.41200000000000003 -0.705 0.429 -0.705 Q 0.44 -0.705 0.442 -0.6950000000000001 L 0.442 -0.6940000000000001 L 0.442 -0.6940000000000001 Q 0.442 -0.6910000000000001 0.443 -0.685 Q 0.515 -0.273 0.591 -0.13 Q 0.686 -0.222 0.791 -0.34400000000000003 L 1.074 -0.68 Q 1.095 -0.704 1.099 -0.704 Q 1.107 -0.704 1.107 -0.6890000000000001 Q 1.107 -0.686 1.105 -0.672 Q 1.067 -0.512 1.041 -0.266 Q 1.032 -0.179 1.032 -0.134 Q 1.032 -0.054 1.043 -0.038 Q 1.05 -0.027 1.063 -0.026000000000000002 Q 1.088 -0.042 1.107 -0.042 Q 1.116 -0.042 1.116 -0.035 Q 1.116 -0.018000000000000002 1.069 0.007 Q 1.049 0.017 1.03 0.023 Q 1.012 0.029 0.998 0.029 Q 0.96 0.029 0.9520000000000001 -0.006 Q 0.9470000000000001 -0.025 0.9470000000000001 -0.092 Q 0.9470000000000001 -0.217 0.99 -0.47500000000000003 L 0.997 -0.517 L 0.778 -0.26 Q 0.67 -0.135 0.5750000000000001 -0.043000000000000003 Q 0.5650000000000001 -0.034 0.558 -0.034 Q 0.55 -0.034 0.546 -0.039 Q 0.501 -0.115 0.47600000000000003 -0.193 Q 0.442 -0.294 0.41000000000000003 -0.442 L 0.386 -0.557 L 0.385 -0.557 Z"/></g><g transform="translate(8.915185714285714,18.37857142857143)"><path fill="rgb(0,0,0)" stroke="none" paint-order="stroke fill markers" d=" M 0.331 0.24 L 0.331 0.24 Q 0.331 0.25 0.321 0.25 Q 0.309 0.25 0.268 0.209 Q 0.20600000000000002 0.147 0.165 0.062 Q 0.099 -0.074 0.099 -0.25 Q 0.099 -0.419 0.162 -0.555 Q 0.214 -0.666 0.294 -0.733 Q 0.315 -0.75 0.321 -0.75 Q 0.331 -0.75 0.331 -0.74 Q 0.331 -0.735 0.318 -0.723 Q 0.157 -0.559 0.157 -0.25 Q 0.157 0.058 0.314 0.218 Q 0.331 0.23500000000000001 0.331 0.24 Z"/></g><g transform="translate(9.304075714285714,18.37857142857143)"><path fill="rgb(0,0,0)" stroke="none" paint-order="stroke fill markers" d=" M 0.485 -0.41100000000000003 L 0.647 -0.585 Q 0.666 -0.606 0.666 -0.621 Q 0.666 -0.648 0.626 -0.652 Q 0.614 -0.654 0.614 -0.663 Q 0.614 -0.683 0.633 -0.683 L 0.743 -0.68 L 0.744 -0.68 L 0.837 -0.683 L 0.838 -0.683 Q 0.851 -0.683 0.851 -0.672 Q 0.851 -0.655 0.837 -0.653 Q 0.835 -0.652 0.8290000000000001 -0.652 Q 0.759 -0.649 0.7020000000000001 -0.601 Q 0.6890000000000001 -0.59 0.552 -0.442 Q 0.519 -0.406 0.497 -0.384 Q 0.503 -0.368 0.626 -0.075 Q 0.639 -0.044 0.65 -0.038 L 0.651 -0.038 L 0.651 -0.038 L 0.651 -0.038 L 0.651 -0.038 L 0.652 -0.038 L 0.652 -0.037 Q 0.665 -0.032 0.712 -0.031 Q 0.73 -0.031 0.73 -0.019 Q 0.73 0 0.711 0 L 0.601 -0.003 L 0.6 -0.003 L 0.47500000000000003 0 L 0.47400000000000003 0 Q 0.459 0 0.459 -0.012 Q 0.459 -0.028 0.47400000000000003 -0.03 Q 0.47600000000000003 -0.031 0.47900000000000004 -0.031 Q 0.524 -0.036000000000000004 0.536 -0.056 Q 0.537 -0.058 0.537 -0.06 L 0.532 -0.074 L 0.431 -0.313 L 0.341 -0.215 L 0.23900000000000002 -0.107 Q 0.212 -0.078 0.212 -0.062 Q 0.212 -0.035 0.252 -0.031 Q 0.264 -0.031 0.264 -0.02 Q 0.264 0 0.246 0 L 0.135 -0.003 L 0.134 -0.003 L 0.041 0 L 0.04 0 Q 0.027 0 0.027 -0.011 Q 0.027 -0.028 0.041 -0.03 Q 0.043000000000000003 -0.031 0.049 -0.031 Q 0.134 -0.036000000000000004 0.196 -0.10300000000000001 L 0.209 -0.114 L 0.42 -0.341 L 0.302 -0.62 Q 0.293 -0.641 0.278 -0.647 L 0.277 -0.647 L 0.277 -0.647 L 0.277 -0.647 Q 0.262 -0.652 0.227 -0.652 Q 0.20500000000000002 -0.652 0.20400000000000001 -0.663 Q 0.20400000000000001 -0.683 0.222 -0.683 L 0.333 -0.68 L 0.334 -0.68 L 0.459 -0.683 L 0.46 -0.683 Q 0.47500000000000003 -0.683 0.47500000000000003 -0.671 Q 0.47500000000000003 -0.654 0.455 -0.652 Q 0.40900000000000003 -0.648 0.396 -0.623 L 0.401 -0.61 L 0.485 -0.41100000000000003 Z"/></g><g transform="translate(10.211020714285715,18.37857142857143)"><path fill="rgb(0,0,0)" stroke="none" paint-order="stroke fill markers" d=" M 0.289 -0.25 L 0.289 -0.25 Q 0.289 -0.081 0.226 0.055 Q 0.17400000000000002 0.166 0.094 0.233 Q 0.073 0.25 0.067 0.25 Q 0.057 0.25 0.057 0.24 Q 0.057 0.23500000000000001 0.07 0.223 Q 0.231 0.059000000000000004 0.231 -0.25 Q 0.231 -0.555 0.081 -0.712 L 0.076 -0.717 Q 0.057 -0.735 0.057 -0.74 Q 0.057 -0.75 0.067 -0.75 Q 0.079 -0.75 0.12 -0.709 Q 0.182 -0.647 0.223 -0.562 Q 0.289 -0.426 0.289 -0.25 Z"/></g></g><g transform="scale(25,25)"><g transform="translate(24.72,5.8990035)"><path fill="rgb(0,0,0)" stroke="none" paint-order="stroke fill markers" d=" M 0.385 -0.557 L 0.385 -0.557 L 0.353 -0.428 Q 0.325 -0.315 0.254 -0.14200000000000002 Q 0.181 0.03 0.127 0.048 Q 0.12 0.05 0.114 0.05 Q 0.088 0.05 0.059000000000000004 0.035 Q 0.028 0.019 0.027 -0.002 Q 0.027 -0.034 0.048 -0.064 Q 0.057 -0.075 0.063 -0.075 Q 0.066 -0.075 0.07200000000000001 -0.07 Q 0.10300000000000001 -0.045 0.14400000000000002 -0.042 Q 0.186 -0.042 0.254 -0.225 L 0.276 -0.28600000000000003 Q 0.338 -0.459 0.365 -0.651 Q 0.369 -0.673 0.381 -0.683 L 0.382 -0.684 Q 0.383 -0.685 0.385 -0.686 Q 0.41200000000000003 -0.705 0.429 -0.705 Q 0.44 -0.705 0.442 -0.6950000000000001 L 0.442 -0.6940000000000001 L 0.442 -0.6940000000000001 Q 0.442 -0.6910000000000001 0.443 -0.685 Q 0.515 -0.273 0.591 -0.13 Q 0.686 -0.222 0.791 -0.34400000000000003 L 1.074 -0.68 Q 1.095 -0.704 1.099 -0.704 Q 1.107 -0.704 1.107 -0.6890000000000001 Q 1.107 -0.686 1.105 -0.672 Q 1.067 -0.512 1.041 -0.266 Q 1.032 -0.179 1.032 -0.134 Q 1.032 -0.054 1.043 -0.038 Q 1.05 -0.027 1.063 -0.026000000000000002 Q 1.088 -0.042 1.107 -0.042 Q 1.116 -0.042 1.116 -0.035 Q 1.116 -0.018000000000000002 1.069 0.007 Q 1.049 0.017 1.03 0.023 Q 1.012 0.029 0.998 0.029 Q 0.96 0.029 0.9520000000000001 -0.006 Q 0.9470000000000001 -0.025 0.9470000000000001 -0.092 Q 0.9470000000000001 -0.217 0.99 -0.47500000000000003 L 0.997 -0.517 L 0.778 -0.26 Q 0.67 -0.135 0.5750000000000001 -0.043000000000000003 Q 0.5650000000000001 -0.034 0.558 -0.034 Q 0.55 -0.034 0.546 -0.039 Q 0.501 -0.115 0.47600000000000003 -0.193 Q 0.442 -0.294 0.41000000000000003 -0.442 L 0.386 -0.557 L 0.385 -0.557 Z"/></g><g transform="translate(25.9209,5.8990035)"><path fill="rgb(0,0,0)" stroke="none" paint-order="stroke fill markers" d=" M 0.331 0.24 L 0.331 0.24 Q 0.331 0.25 0.321 0.25 Q 0.309 0.25 0.268 0.209 Q 0.20600000000000002 0.147 0.165 0.062 Q 0.099 -0.074 0.099 -0.25 Q 0.099 -0.419 0.162 -0.555 Q 0.214 -0.666 0.294 -0.733 Q 0.315 -0.75 0.321 -0.75 Q 0.331 -0.75 0.331 -0.74 Q 0.331 -0.735 0.318 -0.723 Q 0.157 -0.559 0.157 -0.25 Q 0.157 0.058 0.314 0.218 Q 0.331 0.23500000000000001 0.331 0.24 Z"/></g><g transform="translate(26.30979,5.8990035)"><path fill="rgb(0,0,0)" stroke="none" paint-order="stroke fill markers" d=" M 0.72 -0.659 L 0.161 -0.034 L 0.332 -0.034 Q 0.467 -0.034 0.527 -0.10400000000000001 Q 0.5630000000000001 -0.147 0.594 -0.242 Q 0.602 -0.265 0.611 -0.267 Q 0.624 -0.267 0.624 -0.256 L 0.62 -0.241 L 0.549 -0.02 Q 0.544 -0.003 0.536 -0.001 L 0.536 -0.001 L 0.535 -0.001 Q 0.531 0 0.518 0 L 0.083 0 Q 0.06 0 0.058 -0.009000000000000001 L 0.062 -0.027 L 0.062 -0.027 L 0.621 -0.652 L 0.458 -0.652 Q 0.322 -0.652 0.264 -0.5760000000000001 L 0.263 -0.5750000000000001 L 0.263 -0.5750000000000001 L 0.263 -0.5750000000000001 L 0.262 -0.5740000000000001 Q 0.234 -0.537 0.212 -0.468 Q 0.20600000000000002 -0.459 0.199 -0.458 Q 0.187 -0.458 0.187 -0.46900000000000003 Q 0.187 -0.47600000000000003 0.19 -0.483 L 0.245 -0.663 Q 0.25 -0.68 0.258 -0.682 Q 0.262 -0.683 0.276 -0.683 L 0.6980000000000001 -0.683 Q 0.721 -0.683 0.723 -0.674 Q 0.723 -0.671 0.72 -0.659 Z"/></g><g transform="translate(27.0639575,5.8990035)"><path fill="rgb(0,0,0)" stroke="none" paint-order="stroke fill markers" d=" M 0.289 -0.25 L 0.289 -0.25 Q 0.289 -0.081 0.226 0.055 Q 0.17400000000000002 0.166 0.094 0.233 Q 0.073 0.25 0.067 0.25 Q 0.057 0.25 0.057 0.24 Q 0.057 0.23500000000000001 0.07 0.223 Q 0.231 0.059000000000000004 0.231 -0.25 Q 0.231 -0.555 0.081 -0.712 L 0.076 -0.717 Q 0.057 -0.735 0.057 -0.74 Q 0.057 -0.75 0.067 -0.75 Q 0.079 -0.75 0.12 -0.709 Q 0.182 -0.647 0.223 -0.562 Q 0.289 -0.426 0.289 -0.25 Z"/></g><g transform="translate(27.4528475,5.4861115) scale(0.7,0.7)"><path fill="rgb(0,0,0)" stroke="none" paint-order="stroke fill markers" d=" M 0.40900000000000003 -0.633 L 0.40900000000000003 -0.04 L 0.6890000000000001 -0.04 Q 0.721 -0.04 0.722 -0.02 Q 0.722 0 0.6890000000000001 0 L 0.09 0 Q 0.057 0 0.056 -0.02 Q 0.056 -0.04 0.09 -0.04 L 0.369 -0.04 L 0.369 -0.632 Q 0.369 -0.665 0.389 -0.666 Q 0.40900000000000003 -0.666 0.40900000000000003 -0.633 Z"/></g></g><g transform="scale(25,25)"><g transform="translate(41.12,23.55)"><path fill="rgb(0,0,0)" stroke="none" paint-order="stroke fill markers" d=" M 0.385 -0.557 L 0.385 -0.557 L 0.353 -0.428 Q 0.325 -0.315 0.254 -0.14200000000000002 Q 0.181 0.03 0.127 0.048 Q 0.12 0.05 0.114 0.05 Q 0.088 0.05 0.059000000000000004 0.035 Q 0.028 0.019 0.027 -0.002 Q 0.027 -0.034 0.048 -0.064 Q 0.057 -0.075 0.063 -0.075 Q 0.066 -0.075 0.07200000000000001 -0.07 Q 0.10300000000000001 -0.045 0.14400000000000002 -0.042 Q 0.186 -0.042 0.254 -0.225 L 0.276 -0.28600000000000003 Q 0.338 -0.459 0.365 -0.651 Q 0.369 -0.673 0.381 -0.683 L 0.382 -0.684 Q 0.383 -0.685 0.385 -0.686 Q 0.41200000000000003 -0.705 0.429 -0.705 Q 0.44 -0.705 0.442 -0.6950000000000001 L 0.442 -0.6940000000000001 L 0.442 -0.6940000000000001 Q 0.442 -0.6910000000000001 0.443 -0.685 Q 0.515 -0.273 0.591 -0.13 Q 0.686 -0.222 0.791 -0.34400000000000003 L 1.074 -0.68 Q 1.095 -0.704 1.099 -0.704 Q 1.107 -0.704 1.107 -0.6890000000000001 Q 1.107 -0.686 1.105 -0.672 Q 1.067 -0.512 1.041 -0.266 Q 1.032 -0.179 1.032 -0.134 Q 1.032 -0.054 1.043 -0.038 Q 1.05 -0.027 1.063 -0.026000000000000002 Q 1.088 -0.042 1.107 -0.042 Q 1.116 -0.042 1.116 -0.035 Q 1.116 -0.018000000000000002 1.069 0.007 Q 1.049 0.017 1.03 0.023 Q 1.012 0.029 0.998 0.029 Q 0.96 0.029 0.9520000000000001 -0.006 Q 0.9470000000000001 -0.025 0.9470000000000001 -0.092 Q 0.9470000000000001 -0.217 0.99 -0.47500000000000003 L 0.997 -0.517 L 0.778 -0.26 Q 0.67 -0.135 0.5750000000000001 -0.043000000000000003 Q 0.5650000000000001 -0.034 0.558 -0.034 Q 0.55 -0.034 0.546 -0.039 Q 0.501 -0.115 0.47600000000000003 -0.193 Q 0.442 -0.294 0.41000000000000003 -0.442 L 0.386 -0.557 L 0.385 -0.557 Z"/></g><g transform="translate(42.320899999999995,23.55)"><path fill="rgb(0,0,0)" stroke="none" paint-order="stroke fill markers" d=" M 0.331 0.24 L 0.331 0.24 Q 0.331 0.25 0.321 0.25 Q 0.309 0.25 0.268 0.209 Q 0.20600000000000002 0.147 0.165 0.062 Q 0.099 -0.074 0.099 -0.25 Q 0.099 -0.419 0.162 -0.555 Q 0.214 -0.666 0.294 -0.733 Q 0.315 -0.75 0.321 -0.75 Q 0.331 -0.75 0.331 -0.74 Q 0.331 -0.735 0.318 -0.723 Q 0.157 -0.559 0.157 -0.25 Q 0.157 0.058 0.314 0.218 Q 0.331 0.23500000000000001 0.331 0.24 Z"/></g><g transform="translate(42.70979,23.55)"><path fill="rgb(0,0,0)" stroke="none" paint-order="stroke fill markers" d=" M 0.72 -0.659 L 0.161 -0.034 L 0.332 -0.034 Q 0.467 -0.034 0.527 -0.10400000000000001 Q 0.5630000000000001 -0.147 0.594 -0.242 Q 0.602 -0.265 0.611 -0.267 Q 0.624 -0.267 0.624 -0.256 L 0.62 -0.241 L 0.549 -0.02 Q 0.544 -0.003 0.536 -0.001 L 0.536 -0.001 L 0.535 -0.001 Q 0.531 0 0.518 0 L 0.083 0 Q 0.06 0 0.058 -0.009000000000000001 L 0.062 -0.027 L 0.062 -0.027 L 0.621 -0.652 L 0.458 -0.652 Q 0.322 -0.652 0.264 -0.5760000000000001 L 0.263 -0.5750000000000001 L 0.263 -0.5750000000000001 L 0.263 -0.5750000000000001 L 0.262 -0.5740000000000001 Q 0.234 -0.537 0.212 -0.468 Q 0.20600000000000002 -0.459 0.199 -0.458 Q 0.187 -0.458 0.187 -0.46900000000000003 Q 0.187 -0.47600000000000003 0.19 -0.483 L 0.245 -0.663 Q 0.25 -0.68 0.258 -0.682 Q 0.262 -0.683 0.276 -0.683 L 0.6980000000000001 -0.683 Q 0.721 -0.683 0.723 -0.674 Q 0.723 -0.671 0.72 -0.659 Z"/></g><g transform="translate(43.4639575,23.55)"><path fill="rgb(0,0,0)" stroke="none" paint-order="stroke fill markers" d=" M 0.289 -0.25 L 0.289 -0.25 Q 0.289 -0.081 0.226 0.055 Q 0.17400000000000002 0.166 0.094 0.233 Q 0.073 0.25 0.067 0.25 Q 0.057 0.25 0.057 0.24 Q 0.057 0.23500000000000001 0.07 0.223 Q 0.231 0.059000000000000004 0.231 -0.25 Q 0.231 -0.555 0.081 -0.712 L 0.076 -0.717 Q 0.057 -0.735 0.057 -0.74 Q 0.057 -0.75 0.067 -0.75 Q 0.079 -0.75 0.12 -0.709 Q 0.182 -0.647 0.223 -0.562 Q 0.289 -0.426 0.289 -0.25 Z"/></g></g><g transform="scale(25,25)"><g transform="translate(20.36,26.299003499999998)"><path fill="rgb(0,0,0)" stroke="none" paint-order="stroke fill markers" d=" M 0.385 -0.557 L 0.385 -0.557 L 0.353 -0.428 Q 0.325 -0.315 0.254 -0.14200000000000002 Q 0.181 0.03 0.127 0.048 Q 0.12 0.05 0.114 0.05 Q 0.088 0.05 0.059000000000000004 0.035 Q 0.028 0.019 0.027 -0.002 Q 0.027 -0.034 0.048 -0.064 Q 0.057 -0.075 0.063 -0.075 Q 0.066 -0.075 0.07200000000000001 -0.07 Q 0.10300000000000001 -0.045 0.14400000000000002 -0.042 Q 0.186 -0.042 0.254 -0.225 L 0.276 -0.28600000000000003 Q 0.338 -0.459 0.365 -0.651 Q 0.369 -0.673 0.381 -0.683 L 0.382 -0.684 Q 0.383 -0.685 0.385 -0.686 Q 0.41200000000000003 -0.705 0.429 -0.705 Q 0.44 -0.705 0.442 -0.6950000000000001 L 0.442 -0.6940000000000001 L 0.442 -0.6940000000000001 Q 0.442 -0.6910000000000001 0.443 -0.685 Q 0.515 -0.273 0.591 -0.13 Q 0.686 -0.222 0.791 -0.34400000000000003 L 1.074 -0.68 Q 1.095 -0.704 1.099 -0.704 Q 1.107 -0.704 1.107 -0.6890000000000001 Q 1.107 -0.686 1.105 -0.672 Q 1.067 -0.512 1.041 -0.266 Q 1.032 -0.179 1.032 -0.134 Q 1.032 -0.054 1.043 -0.038 Q 1.05 -0.027 1.063 -0.026000000000000002 Q 1.088 -0.042 1.107 -0.042 Q 1.116 -0.042 1.116 -0.035 Q 1.116 -0.018000000000000002 1.069 0.007 Q 1.049 0.017 1.03 0.023 Q 1.012 0.029 0.998 0.029 Q 0.96 0.029 0.9520000000000001 -0.006 Q 0.9470000000000001 -0.025 0.9470000000000001 -0.092 Q 0.9470000000000001 -0.217 0.99 -0.47500000000000003 L 0.997 -0.517 L 0.778 -0.26 Q 0.67 -0.135 0.5750000000000001 -0.043000000000000003 Q 0.5650000000000001 -0.034 0.558 -0.034 Q 0.55 -0.034 0.546 -0.039 Q 0.501 -0.115 0.47600000000000003 -0.193 Q 0.442 -0.294 0.41000000000000003 -0.442 L 0.386 -0.557 L 0.385 -0.557 Z"/></g><g transform="translate(21.5609,26.299003499999998)"><path fill="rgb(0,0,0)" stroke="none" paint-order="stroke fill markers" d=" M 0.331 0.24 L 0.331 0.24 Q 0.331 0.25 0.321 0.25 Q 0.309 0.25 0.268 0.209 Q 0.20600000000000002 0.147 0.165 0.062 Q 0.099 -0.074 0.099 -0.25 Q 0.099 -0.419 0.162 -0.555 Q 0.214 -0.666 0.294 -0.733 Q 0.315 -0.75 0.321 -0.75 Q 0.331 -0.75 0.331 -0.74 Q 0.331 -0.735 0.318 -0.723 Q 0.157 -0.559 0.157 -0.25 Q 0.157 0.058 0.314 0.218 Q 0.331 0.23500000000000001 0.331 0.24 Z"/></g><g transform="translate(21.94979,26.299003499999998)"><path fill="rgb(0,0,0)" stroke="none" paint-order="stroke fill markers" d=" M 0.485 -0.41100000000000003 L 0.647 -0.585 Q 0.666 -0.606 0.666 -0.621 Q 0.666 -0.648 0.626 -0.652 Q 0.614 -0.654 0.614 -0.663 Q 0.614 -0.683 0.633 -0.683 L 0.743 -0.68 L 0.744 -0.68 L 0.837 -0.683 L 0.838 -0.683 Q 0.851 -0.683 0.851 -0.672 Q 0.851 -0.655 0.837 -0.653 Q 0.835 -0.652 0.8290000000000001 -0.652 Q 0.759 -0.649 0.7020000000000001 -0.601 Q 0.6890000000000001 -0.59 0.552 -0.442 Q 0.519 -0.406 0.497 -0.384 Q 0.503 -0.368 0.626 -0.075 Q 0.639 -0.044 0.65 -0.038 L 0.651 -0.038 L 0.651 -0.038 L 0.651 -0.038 L 0.651 -0.038 L 0.652 -0.038 L 0.652 -0.037 Q 0.665 -0.032 0.712 -0.031 Q 0.73 -0.031 0.73 -0.019 Q 0.73 0 0.711 0 L 0.601 -0.003 L 0.6 -0.003 L 0.47500000000000003 0 L 0.47400000000000003 0 Q 0.459 0 0.459 -0.012 Q 0.459 -0.028 0.47400000000000003 -0.03 Q 0.47600000000000003 -0.031 0.47900000000000004 -0.031 Q 0.524 -0.036000000000000004 0.536 -0.056 Q 0.537 -0.058 0.537 -0.06 L 0.532 -0.074 L 0.431 -0.313 L 0.341 -0.215 L 0.23900000000000002 -0.107 Q 0.212 -0.078 0.212 -0.062 Q 0.212 -0.035 0.252 -0.031 Q 0.264 -0.031 0.264 -0.02 Q 0.264 0 0.246 0 L 0.135 -0.003 L 0.134 -0.003 L 0.041 0 L 0.04 0 Q 0.027 0 0.027 -0.011 Q 0.027 -0.028 0.041 -0.03 Q 0.043000000000000003 -0.031 0.049 -0.031 Q 0.134 -0.036000000000000004 0.196 -0.10300000000000001 L 0.209 -0.114 L 0.42 -0.341 L 0.302 -0.62 Q 0.293 -0.641 0.278 -0.647 L 0.277 -0.647 L 0.277 -0.647 L 0.277 -0.647 Q 0.262 -0.652 0.227 -0.652 Q 0.20500000000000002 -0.652 0.20400000000000001 -0.663 Q 0.20400000000000001 -0.683 0.222 -0.683 L 0.333 -0.68 L 0.334 -0.68 L 0.459 -0.683 L 0.46 -0.683 Q 0.47500000000000003 -0.683 0.47500000000000003 -0.671 Q 0.47500000000000003 -0.654 0.455 -0.652 Q 0.40900000000000003 -0.648 0.396 -0.623 L 0.401 -0.61 L 0.485 -0.41100000000000003 Z"/></g><g transform="translate(22.856735,26.299003499999998)"><path fill="rgb(0,0,0)" stroke="none" paint-order="stroke fill markers" d=" M 0.289 -0.25 L 0.289 -0.25 Q 0.289 -0.081 0.226 0.055 Q 0.17400000000000002 0.166 0.094 0.233 Q 0.073 0.25 0.067 0.25 Q 0.057 0.25 0.057 0.24 Q 0.057 0.23500000000000001 0.07 0.223 Q 0.231 0.059000000000000004 0.231 -0.25 Q 0.231 -0.555 0.081 -0.712 L 0.076 -0.717 Q 0.057 -0.735 0.057 -0.74 Q 0.057 -0.75 0.067 -0.75 Q 0.079 -0.75 0.12 -0.709 Q 0.182 -0.647 0.223 -0.562 Q 0.289 -0.426 0.289 -0.25 Z"/></g><g transform="translate(23.46784788888889,26.299003499999998)"><path fill="rgb(0,0,0)" stroke="none" paint-order="stroke fill markers" d=" M 0.61 -0.381 L 0.61 -0.011 Q 0.61 0.021 0.59 0.022 Q 0.5700000000000001 0.022 0.5700000000000001 -0.011 L 0.5700000000000001 -0.378 Q 0.5700000000000001 -0.486 0.456 -0.534 Q 0.399 -0.558 0.333 -0.558 Q 0.231 -0.558 0.162 -0.507 Q 0.096 -0.458 0.096 -0.378 L 0.096 -0.011 Q 0.096 0.021 0.076 0.022 Q 0.056 0.022 0.056 -0.011 L 0.056 -0.381 Q 0.056 -0.495 0.165 -0.556 Q 0.24 -0.598 0.333 -0.598 Q 0.453 -0.598 0.533 -0.535 Q 0.61 -0.47500000000000003 0.61 -0.381 Z"/></g><g transform="translate(24.35673977777778,26.299003499999998)"><path fill="rgb(0,0,0)" stroke="none" paint-order="stroke fill markers" d=" M 0.385 -0.557 L 0.385 -0.557 L 0.353 -0.428 Q 0.325 -0.315 0.254 -0.14200000000000002 Q 0.181 0.03 0.127 0.048 Q 0.12 0.05 0.114 0.05 Q 0.088 0.05 0.059000000000000004 0.035 Q 0.028 0.019 0.027 -0.002 Q 0.027 -0.034 0.048 -0.064 Q 0.057 -0.075 0.063 -0.075 Q 0.066 -0.075 0.07200000000000001 -0.07 Q 0.10300000000000001 -0.045 0.14400000000000002 -0.042 Q 0.186 -0.042 0.254 -0.225 L 0.276 -0.28600000000000003 Q 0.338 -0.459 0.365 -0.651 Q 0.369 -0.673 0.381 -0.683 L 0.382 -0.684 Q 0.383 -0.685 0.385 -0.686 Q 0.41200000000000003 -0.705 0.429 -0.705 Q 0.44 -0.705 0.442 -0.6950000000000001 L 0.442 -0.6940000000000001 L 0.442 -0.6940000000000001 Q 0.442 -0.6910000000000001 0.443 -0.685 Q 0.515 -0.273 0.591 -0.13 Q 0.686 -0.222 0.791 -0.34400000000000003 L 1.074 -0.68 Q 1.095 -0.704 1.099 -0.704 Q 1.107 -0.704 1.107 -0.6890000000000001 Q 1.107 -0.686 1.105 -0.672 Q 1.067 -0.512 1.041 -0.266 Q 1.032 -0.179 1.032 -0.134 Q 1.032 -0.054 1.043 -0.038 Q 1.05 -0.027 1.063 -0.026000000000000002 Q 1.088 -0.042 1.107 -0.042 Q 1.116 -0.042 1.116 -0.035 Q 1.116 -0.018000000000000002 1.069 0.007 Q 1.049 0.017 1.03 0.023 Q 1.012 0.029 0.998 0.029 Q 0.96 0.029 0.9520000000000001 -0.006 Q 0.9470000000000001 -0.025 0.9470000000000001 -0.092 Q 0.9470000000000001 -0.217 0.99 -0.47500000000000003 L 0.997 -0.517 L 0.778 -0.26 Q 0.67 -0.135 0.5750000000000001 -0.043000000000000003 Q 0.5650000000000001 -0.034 0.558 -0.034 Q 0.55 -0.034 0.546 -0.039 Q 0.501 -0.115 0.47600000000000003 -0.193 Q 0.442 -0.294 0.41000000000000003 -0.442 L 0.386 -0.557 L 0.385 -0.557 Z"/></g><g transform="translate(25.55763977777778,26.299003499999998)"><path fill="rgb(0,0,0)" stroke="none" paint-order="stroke fill markers" d=" M 0.331 0.24 L 0.331 0.24 Q 0.331 0.25 0.321 0.25 Q 0.309 0.25 0.268 0.209 Q 0.20600000000000002 0.147 0.165 0.062 Q 0.099 -0.074 0.099 -0.25 Q 0.099 -0.419 0.162 -0.555 Q 0.214 -0.666 0.294 -0.733 Q 0.315 -0.75 0.321 -0.75 Q 0.331 -0.75 0.331 -0.74 Q 0.331 -0.735 0.318 -0.723 Q 0.157 -0.559 0.157 -0.25 Q 0.157 0.058 0.314 0.218 Q 0.331 0.23500000000000001 0.331 0.24 Z"/></g><g transform="translate(25.94652977777778,26.299003499999998)"><path fill="rgb(0,0,0)" stroke="none" paint-order="stroke fill markers" d=" M 0.72 -0.659 L 0.161 -0.034 L 0.332 -0.034 Q 0.467 -0.034 0.527 -0.10400000000000001 Q 0.5630000000000001 -0.147 0.594 -0.242 Q 0.602 -0.265 0.611 -0.267 Q 0.624 -0.267 0.624 -0.256 L 0.62 -0.241 L 0.549 -0.02 Q 0.544 -0.003 0.536 -0.001 L 0.536 -0.001 L 0.535 -0.001 Q 0.531 0 0.518 0 L 0.083 0 Q 0.06 0 0.058 -0.009000000000000001 L 0.062 -0.027 L 0.062 -0.027 L 0.621 -0.652 L 0.458 -0.652 Q 0.322 -0.652 0.264 -0.5760000000000001 L 0.263 -0.5750000000000001 L 0.263 -0.5750000000000001 L 0.263 -0.5750000000000001 L 0.262 -0.5740000000000001 Q 0.234 -0.537 0.212 -0.468 Q 0.20600000000000002 -0.459 0.199 -0.458 Q 0.187 -0.458 0.187 -0.46900000000000003 Q 0.187 -0.47600000000000003 0.19 -0.483 L 0.245 -0.663 Q 0.25 -0.68 0.258 -0.682 Q 0.262 -0.683 0.276 -0.683 L 0.6980000000000001 -0.683 Q 0.721 -0.683 0.723 -0.674 Q 0.723 -0.671 0.72 -0.659 Z"/></g><g transform="translate(26.70069727777778,26.299003499999998)"><path fill="rgb(0,0,0)" stroke="none" paint-order="stroke fill markers" d=" M 0.289 -0.25 L 0.289 -0.25 Q 0.289 -0.081 0.226 0.055 Q 0.17400000000000002 0.166 0.094 0.233 Q 0.073 0.25 0.067 0.25 Q 0.057 0.25 0.057 0.24 Q 0.057 0.23500000000000001 0.07 0.223 Q 0.231 0.059000000000000004 0.231 -0.25 Q 0.231 -0.555 0.081 -0.712 L 0.076 -0.717 Q 0.057 -0.735 0.057 -0.74 Q 0.057 -0.75 0.067 -0.75 Q 0.079 -0.75 0.12 -0.709 Q 0.182 -0.647 0.223 -0.562 Q 0.289 -0.426 0.289 -0.25 Z"/></g><g transform="translate(27.08958727777778,25.8861115) scale(0.7,0.7)"><path fill="rgb(0,0,0)" stroke="none" paint-order="stroke fill markers" d=" M 0.40900000000000003 -0.633 L 0.40900000000000003 -0.04 L 0.6890000000000001 -0.04 Q 0.721 -0.04 0.722 -0.02 Q 0.722 0 0.6890000000000001 0 L 0.09 0 Q 0.057 0 0.056 -0.02 Q 0.056 -0.04 0.09 -0.04 L 0.369 -0.04 L 0.369 -0.632 Q 0.369 -0.665 0.389 -0.666 Q 0.40900000000000003 -0.666 0.40900000000000003 -0.633 Z"/></g></g><path fill="rgb(255,255,255)" stroke="none" paint-order="stroke fill markers" d=" M 820 344 L 853 344 L 853 383 L 820 383 L 820 344 Z" fill-opacity="1"/><g transform="scale(25,25)"><g transform="translate(33.12,14.846111)"><path fill="rgb(0,102,153)" stroke="none" paint-order="stroke fill markers" d=" M 0.734 -0.6 L 0.429 -0.274 L 0.373 -0.049 Q 0.41500000000000004 -0.047 0.434 -0.047 Q 0.451 -0.047 0.458 -0.0465 Q 0.465 -0.046 0.47050000000000003 -0.042 Q 0.47600000000000003 -0.038 0.47600000000000003 -0.029 Q 0.47600000000000003 -0.016 0.47000000000000003 -0.009000000000000001 Q 0.464 -0.002 0.459 -0.001 Q 0.454 0 0.447 0 Q 0.43 0 0.3705 -0.0015 Q 0.311 -0.003 0.294 -0.003 Q 0.28200000000000003 -0.003 0.2575 -0.0025 Q 0.233 -0.002 0.221 -0.002 Q 0.20800000000000002 -0.002 0.183 -0.001 Q 0.158 0 0.145 0 Q 0.123 0 0.123 -0.018000000000000002 Q 0.123 -0.035 0.133 -0.043000000000000003 Q 0.137 -0.047 0.169 -0.047 Q 0.20400000000000001 -0.047 0.221 -0.049 Q 0.234 -0.05 0.23750000000000002 -0.0525 Q 0.241 -0.055 0.244 -0.068 L 0.296 -0.274 L 0.14400000000000002 -0.623 Q 0.14 -0.632 0.137 -0.634 Q 0.134 -0.636 0.124 -0.638 Q 0.11 -0.639 0.085 -0.639 Q 0.068 -0.639 0.0615 -0.6395000000000001 Q 0.055 -0.64 0.0495 -0.644 Q 0.044 -0.648 0.044 -0.657 Q 0.044 -0.67 0.0495 -0.677 Q 0.055 -0.684 0.059500000000000004 -0.685 Q 0.064 -0.686 0.07200000000000001 -0.686 Q 0.083 -0.686 0.1075 -0.685 Q 0.132 -0.684 0.14400000000000002 -0.684 Q 0.155 -0.684 0.178 -0.6835 Q 0.201 -0.683 0.213 -0.683 Q 0.23 -0.683 0.2905 -0.6845 Q 0.35100000000000003 -0.686 0.368 -0.686 Q 0.39 -0.686 0.39 -0.668 Q 0.39 -0.649 0.3815 -0.644 Q 0.373 -0.639 0.356 -0.639 Q 0.328 -0.639 0.3 -0.635 L 0.428 -0.342 L 0.6990000000000001 -0.632 Q 0.678 -0.639 0.654 -0.639 Q 0.627 -0.639 0.627 -0.657 Q 0.627 -0.686 0.654 -0.686 Q 0.672 -0.686 0.709 -0.6845 Q 0.746 -0.683 0.765 -0.683 Q 0.78 -0.683 0.8115 -0.6845 Q 0.843 -0.686 0.857 -0.686 Q 0.866 -0.686 0.8705 -0.68 Q 0.875 -0.674 0.875 -0.668 Q 0.875 -0.655 0.8695 -0.648 Q 0.864 -0.641 0.859 -0.64 Q 0.854 -0.639 0.846 -0.639 Q 0.8 -0.638 0.7765 -0.629 Q 0.753 -0.62 0.734 -0.6 Z"/></g></g><path fill="rgb(255,255,255)" stroke="none" paint-order="stroke fill markers" d=" M 733 477 L 784 477 L 784 508 L 733 508 L 733 477 Z" fill-opacity="1"/><g transform="scale(19,19)"><g transform="translate(38.94736842105263,26.159795210526315)"><path fill="rgb(204,0,0)" stroke="none" paint-order="stroke fill markers" d=" M 0.303 -0.316 L 0.303 -0.316 L 0.241 -0.066 L 0.23800000000000002 -0.049 Q 0.23800000000000002 -0.032 0.28400000000000003 -0.031 L 0.28400000000000003 -0.031 L 0.28400000000000003 -0.031 L 0.303 -0.031 Q 0.329 -0.031 0.331 -0.02 Q 0.331 0 0.311 0 L 0.247 -0.002 L 0.246 -0.002 L 0.184 -0.003 L 0.182 -0.003 L 0.056 0 L 0.055 0 Q 0.04 0 0.04 -0.012 Q 0.04 -0.029 0.056 -0.031 L 0.068 -0.031 Q 0.133 -0.031 0.146 -0.045 Q 0.152 -0.052000000000000005 0.158 -0.073 Q 0.158 -0.074 0.159 -0.078 L 0.293 -0.615 Q 0.297 -0.631 0.297 -0.634 Q 0.297 -0.646 0.281 -0.649 L 0.28 -0.649 L 0.28 -0.649 Q 0.278 -0.65 0.275 -0.65 Q 0.251 -0.652 0.232 -0.652 Q 0.20600000000000002 -0.652 0.20400000000000001 -0.66 Q 0.203 -0.662 0.203 -0.664 Q 0.203 -0.681 0.22 -0.683 L 0.22 -0.683 L 0.233 -0.683 L 0.557 -0.683 Q 0.678 -0.683 0.73 -0.609 Q 0.754 -0.5740000000000001 0.754 -0.532 Q 0.754 -0.451 0.671 -0.385 Q 0.583 -0.316 0.47300000000000003 -0.316 L 0.303 -0.316 M 0.375 -0.614 L 0.307 -0.342 L 0.448 -0.342 Q 0.543 -0.342 0.602 -0.395 Q 0.643 -0.433 0.658 -0.522 L 0.658 -0.523 Q 0.661 -0.542 0.661 -0.556 Q 0.661 -0.652 0.525 -0.652 L 0.429 -0.652 Q 0.393 -0.652 0.385 -0.642 L 0.385 -0.642 L 0.385 -0.641 L 0.384 -0.641 L 0.384 -0.64 Q 0.38 -0.634 0.375 -0.614 Z"/></g><g transform="translate(39.58938242105263,26.309795210526314) scale(0.7,0.7)"><path fill="rgb(204,0,0)" stroke="none" paint-order="stroke fill markers" d=" M 0.485 -0.41100000000000003 L 0.647 -0.585 Q 0.666 -0.606 0.666 -0.621 Q 0.666 -0.648 0.626 -0.652 Q 0.614 -0.654 0.614 -0.663 Q 0.614 -0.683 0.633 -0.683 L 0.743 -0.68 L 0.744 -0.68 L 0.837 -0.683 L 0.838 -0.683 Q 0.851 -0.683 0.851 -0.672 Q 0.851 -0.655 0.837 -0.653 Q 0.835 -0.652 0.8290000000000001 -0.652 Q 0.759 -0.649 0.7020000000000001 -0.601 Q 0.6890000000000001 -0.59 0.552 -0.442 Q 0.519 -0.406 0.497 -0.384 Q 0.503 -0.368 0.626 -0.075 Q 0.639 -0.044 0.65 -0.038 L 0.651 -0.038 L 0.651 -0.038 L 0.651 -0.038 L 0.651 -0.038 L 0.652 -0.038 L 0.652 -0.037 Q 0.665 -0.032 0.712 -0.031 Q 0.73 -0.031 0.73 -0.019 Q 0.73 0 0.711 0 L 0.601 -0.003 L 0.6 -0.003 L 0.47500000000000003 0 L 0.47400000000000003 0 Q 0.459 0 0.459 -0.012 Q 0.459 -0.028 0.47400000000000003 -0.03 Q 0.47600000000000003 -0.031 0.47900000000000004 -0.031 Q 0.524 -0.036000000000000004 0.536 -0.056 Q 0.537 -0.058 0.537 -0.06 L 0.532 -0.074 L 0.431 -0.313 L 0.341 -0.215 L 0.23900000000000002 -0.107 Q 0.212 -0.078 0.212 -0.062 Q 0.212 -0.035 0.252 -0.031 Q 0.264 -0.031 0.264 -0.02 Q 0.264 0 0.246 0 L 0.135 -0.003 L 0.134 -0.003 L 0.041 0 L 0.04 0 Q 0.027 0 0.027 -0.011 Q 0.027 -0.028 0.041 -0.03 Q 0.043000000000000003 -0.031 0.049 -0.031 Q 0.134 -0.036000000000000004 0.196 -0.10300000000000001 L 0.209 -0.114 L 0.42 -0.341 L 0.302 -0.62 Q 0.293 -0.641 0.278 -0.647 L 0.277 -0.647 L 0.277 -0.647 L 0.277 -0.647 Q 0.262 -0.652 0.227 -0.652 Q 0.20500000000000002 -0.652 0.20400000000000001 -0.663 Q 0.20400000000000001 -0.683 0.222 -0.683 L 0.333 -0.68 L 0.334 -0.68 L 0.459 -0.683 L 0.46 -0.683 Q 0.47500000000000003 -0.683 0.47500000000000003 -0.671 Q 0.47500000000000003 -0.654 0.455 -0.652 Q 0.40900000000000003 -0.648 0.396 -0.623 L 0.401 -0.61 L 0.485 -0.41100000000000003 Z"/></g><g transform="translate(40.16931422105263,26.159795210526315)"><path fill="rgb(204,0,0)" stroke="none" paint-order="stroke fill markers" d=" M 0.734 -0.6 L 0.429 -0.274 L 0.373 -0.049 Q 0.41500000000000004 -0.047 0.434 -0.047 Q 0.451 -0.047 0.458 -0.0465 Q 0.465 -0.046 0.47050000000000003 -0.042 Q 0.47600000000000003 -0.038 0.47600000000000003 -0.029 Q 0.47600000000000003 -0.016 0.47000000000000003 -0.009000000000000001 Q 0.464 -0.002 0.459 -0.001 Q 0.454 0 0.447 0 Q 0.43 0 0.3705 -0.0015 Q 0.311 -0.003 0.294 -0.003 Q 0.28200000000000003 -0.003 0.2575 -0.0025 Q 0.233 -0.002 0.221 -0.002 Q 0.20800000000000002 -0.002 0.183 -0.001 Q 0.158 0 0.145 0 Q 0.123 0 0.123 -0.018000000000000002 Q 0.123 -0.035 0.133 -0.043000000000000003 Q 0.137 -0.047 0.169 -0.047 Q 0.20400000000000001 -0.047 0.221 -0.049 Q 0.234 -0.05 0.23750000000000002 -0.0525 Q 0.241 -0.055 0.244 -0.068 L 0.296 -0.274 L 0.14400000000000002 -0.623 Q 0.14 -0.632 0.137 -0.634 Q 0.134 -0.636 0.124 -0.638 Q 0.11 -0.639 0.085 -0.639 Q 0.068 -0.639 0.0615 -0.6395000000000001 Q 0.055 -0.64 0.0495 -0.644 Q 0.044 -0.648 0.044 -0.657 Q 0.044 -0.67 0.0495 -0.677 Q 0.055 -0.684 0.059500000000000004 -0.685 Q 0.064 -0.686 0.07200000000000001 -0.686 Q 0.083 -0.686 0.1075 -0.685 Q 0.132 -0.684 0.14400000000000002 -0.684 Q 0.155 -0.684 0.178 -0.6835 Q 0.201 -0.683 0.213 -0.683 Q 0.23 -0.683 0.2905 -0.6845 Q 0.35100000000000003 -0.686 0.368 -0.686 Q 0.39 -0.686 0.39 -0.668 Q 0.39 -0.649 0.3815 -0.644 Q 0.373 -0.639 0.356 -0.639 Q 0.328 -0.639 0.3 -0.635 L 0.428 -0.342 L 0.6990000000000001 -0.632 Q 0.678 -0.639 0.654 -0.639 Q 0.627 -0.639 0.627 -0.657 Q 0.627 -0.686 0.654 -0.686 Q 0.672 -0.686 0.709 -0.6845 Q 0.746 -0.683 0.765 -0.683 Q 0.78 -0.683 0.8115 -0.6845 Q 0.843 -0.686 0.857 -0.686 Q 0.866 -0.686 0.8705 -0.68 Q 0.875 -0.674 0.875 -0.668 Q 0.875 -0.655 0.8695 -0.648 Q 0.864 -0.641 0.859 -0.64 Q 0.854 -0.639 0.846 -0.639 Q 0.8 -0.638 0.7765 -0.629 Q 0.753 -0.62 0.734 -0.6 Z"/></g></g><path fill="rgb(255,255,255)" stroke="none" paint-order="stroke fill markers" d=" M 711 534 L 760 534 L 760 565 L 711 565 L 711 534 Z" fill-opacity="1"/><g transform="scale(19,19)"><g transform="translate(37.78947368421053,29.159795210526315)"><path fill="rgb(204,0,0)" stroke="none" paint-order="stroke fill markers" d=" M 0.303 -0.316 L 0.303 -0.316 L 0.241 -0.066 L 0.23800000000000002 -0.049 Q 0.23800000000000002 -0.032 0.28400000000000003 -0.031 L 0.28400000000000003 -0.031 L 0.28400000000000003 -0.031 L 0.303 -0.031 Q 0.329 -0.031 0.331 -0.02 Q 0.331 0 0.311 0 L 0.247 -0.002 L 0.246 -0.002 L 0.184 -0.003 L 0.182 -0.003 L 0.056 0 L 0.055 0 Q 0.04 0 0.04 -0.012 Q 0.04 -0.029 0.056 -0.031 L 0.068 -0.031 Q 0.133 -0.031 0.146 -0.045 Q 0.152 -0.052000000000000005 0.158 -0.073 Q 0.158 -0.074 0.159 -0.078 L 0.293 -0.615 Q 0.297 -0.631 0.297 -0.634 Q 0.297 -0.646 0.281 -0.649 L 0.28 -0.649 L 0.28 -0.649 Q 0.278 -0.65 0.275 -0.65 Q 0.251 -0.652 0.232 -0.652 Q 0.20600000000000002 -0.652 0.20400000000000001 -0.66 Q 0.203 -0.662 0.203 -0.664 Q 0.203 -0.681 0.22 -0.683 L 0.22 -0.683 L 0.233 -0.683 L 0.557 -0.683 Q 0.678 -0.683 0.73 -0.609 Q 0.754 -0.5740000000000001 0.754 -0.532 Q 0.754 -0.451 0.671 -0.385 Q 0.583 -0.316 0.47300000000000003 -0.316 L 0.303 -0.316 M 0.375 -0.614 L 0.307 -0.342 L 0.448 -0.342 Q 0.543 -0.342 0.602 -0.395 Q 0.643 -0.433 0.658 -0.522 L 0.658 -0.523 Q 0.661 -0.542 0.661 -0.556 Q 0.661 -0.652 0.525 -0.652 L 0.429 -0.652 Q 0.393 -0.652 0.385 -0.642 L 0.385 -0.642 L 0.385 -0.641 L 0.384 -0.641 L 0.384 -0.64 Q 0.38 -0.634 0.375 -0.614 Z"/></g><g transform="translate(38.43148768421053,29.309795210526314) scale(0.7,0.7)"><path fill="rgb(204,0,0)" stroke="none" paint-order="stroke fill markers" d=" M 0.72 -0.659 L 0.161 -0.034 L 0.332 -0.034 Q 0.467 -0.034 0.527 -0.10400000000000001 Q 0.5630000000000001 -0.147 0.594 -0.242 Q 0.602 -0.265 0.611 -0.267 Q 0.624 -0.267 0.624 -0.256 L 0.62 -0.241 L 0.549 -0.02 Q 0.544 -0.003 0.536 -0.001 L 0.536 -0.001 L 0.535 -0.001 Q 0.531 0 0.518 0 L 0.083 0 Q 0.06 0 0.058 -0.009000000000000001 L 0.062 -0.027 L 0.062 -0.027 L 0.621 -0.652 L 0.458 -0.652 Q 0.322 -0.652 0.264 -0.5760000000000001 L 0.263 -0.5750000000000001 L 0.263 -0.5750000000000001 L 0.263 -0.5750000000000001 L 0.262 -0.5740000000000001 Q 0.234 -0.537 0.212 -0.468 Q 0.20600000000000002 -0.459 0.199 -0.458 Q 0.187 -0.458 0.187 -0.46900000000000003 Q 0.187 -0.47600000000000003 0.19 -0.483 L 0.245 -0.663 Q 0.25 -0.68 0.258 -0.682 Q 0.262 -0.683 0.276 -0.683 L 0.6980000000000001 -0.683 Q 0.721 -0.683 0.723 -0.674 Q 0.723 -0.671 0.72 -0.659 Z"/></g><g transform="translate(38.909335684210525,29.159795210526315)"><path fill="rgb(204,0,0)" stroke="none" paint-order="stroke fill markers" d=" M 0.734 -0.6 L 0.429 -0.274 L 0.373 -0.049 Q 0.41500000000000004 -0.047 0.434 -0.047 Q 0.451 -0.047 0.458 -0.0465 Q 0.465 -0.046 0.47050000000000003 -0.042 Q 0.47600000000000003 -0.038 0.47600000000000003 -0.029 Q 0.47600000000000003 -0.016 0.47000000000000003 -0.009000000000000001 Q 0.464 -0.002 0.459 -0.001 Q 0.454 0 0.447 0 Q 0.43 0 0.3705 -0.0015 Q 0.311 -0.003 0.294 -0.003 Q 0.28200000000000003 -0.003 0.2575 -0.0025 Q 0.233 -0.002 0.221 -0.002 Q 0.20800000000000002 -0.002 0.183 -0.001 Q 0.158 0 0.145 0 Q 0.123 0 0.123 -0.018000000000000002 Q 0.123 -0.035 0.133 -0.043000000000000003 Q 0.137 -0.047 0.169 -0.047 Q 0.20400000000000001 -0.047 0.221 -0.049 Q 0.234 -0.05 0.23750000000000002 -0.0525 Q 0.241 -0.055 0.244 -0.068 L 0.296 -0.274 L 0.14400000000000002 -0.623 Q 0.14 -0.632 0.137 -0.634 Q 0.134 -0.636 0.124 -0.638 Q 0.11 -0.639 0.085 -0.639 Q 0.068 -0.639 0.0615 -0.6395000000000001 Q 0.055 -0.64 0.0495 -0.644 Q 0.044 -0.648 0.044 -0.657 Q 0.044 -0.67 0.0495 -0.677 Q 0.055 -0.684 0.059500000000000004 -0.685 Q 0.064 -0.686 0.07200000000000001 -0.686 Q 0.083 -0.686 0.1075 -0.685 Q 0.132 -0.684 0.14400000000000002 -0.684 Q 0.155 -0.684 0.178 -0.6835 Q 0.201 -0.683 0.213 -0.683 Q 0.23 -0.683 0.2905 -0.6845 Q 0.35100000000000003 -0.686 0.368 -0.686 Q 0.39 -0.686 0.39 -0.668 Q 0.39 -0.649 0.3815 -0.644 Q 0.373 -0.639 0.356 -0.639 Q 0.328 -0.639 0.3 -0.635 L 0.428 -0.342 L 0.6990000000000001 -0.632 Q 0.678 -0.639 0.654 -0.639 Q 0.627 -0.639 0.627 -0.657 Q 0.627 -0.686 0.654 -0.686 Q 0.672 -0.686 0.709 -0.6845 Q 0.746 -0.683 0.765 -0.683 Q 0.78 -0.683 0.8115 -0.6845 Q 0.843 -0.686 0.857 -0.686 Q 0.866 -0.686 0.8705 -0.68 Q 0.875 -0.674 0.875 -0.668 Q 0.875 -0.655 0.8695 -0.648 Q 0.864 -0.641 0.859 -0.64 Q 0.854 -0.639 0.846 -0.639 Q 0.8 -0.638 0.7765 -0.629 Q 0.753 -0.62 0.734 -0.6 Z"/></g></g><path fill="rgb(255,255,255)" stroke="none" paint-order="stroke fill markers" d=" M 837 507 L 915 507 L 915 539 L 837 539 L 837 507 Z" fill-opacity="1"/><g transform="scale(19,19)"><g transform="translate(44.421052631578945,27.73874257894737)"><path fill="rgb(204,0,0)" stroke="none" paint-order="stroke fill markers" d=" M 0.303 -0.316 L 0.303 -0.316 L 0.241 -0.066 L 0.23800000000000002 -0.049 Q 0.23800000000000002 -0.032 0.28400000000000003 -0.031 L 0.28400000000000003 -0.031 L 0.28400000000000003 -0.031 L 0.303 -0.031 Q 0.329 -0.031 0.331 -0.02 Q 0.331 0 0.311 0 L 0.247 -0.002 L 0.246 -0.002 L 0.184 -0.003 L 0.182 -0.003 L 0.056 0 L 0.055 0 Q 0.04 0 0.04 -0.012 Q 0.04 -0.029 0.056 -0.031 L 0.068 -0.031 Q 0.133 -0.031 0.146 -0.045 Q 0.152 -0.052000000000000005 0.158 -0.073 Q 0.158 -0.074 0.159 -0.078 L 0.293 -0.615 Q 0.297 -0.631 0.297 -0.634 Q 0.297 -0.646 0.281 -0.649 L 0.28 -0.649 L 0.28 -0.649 Q 0.278 -0.65 0.275 -0.65 Q 0.251 -0.652 0.232 -0.652 Q 0.20600000000000002 -0.652 0.20400000000000001 -0.66 Q 0.203 -0.662 0.203 -0.664 Q 0.203 -0.681 0.22 -0.683 L 0.22 -0.683 L 0.233 -0.683 L 0.557 -0.683 Q 0.678 -0.683 0.73 -0.609 Q 0.754 -0.5740000000000001 0.754 -0.532 Q 0.754 -0.451 0.671 -0.385 Q 0.583 -0.316 0.47300000000000003 -0.316 L 0.303 -0.316 M 0.375 -0.614 L 0.307 -0.342 L 0.448 -0.342 Q 0.543 -0.342 0.602 -0.395 Q 0.643 -0.433 0.658 -0.522 L 0.658 -0.523 Q 0.661 -0.542 0.661 -0.556 Q 0.661 -0.652 0.525 -0.652 L 0.429 -0.652 Q 0.393 -0.652 0.385 -0.642 L 0.385 -0.642 L 0.385 -0.641 L 0.384 -0.641 L 0.384 -0.64 Q 0.38 -0.634 0.375 -0.614 Z"/></g><g transform="translate(45.06306663157895,27.94374337894737) scale(0.7,0.7)"><path fill="rgb(204,0,0)" stroke="none" paint-order="stroke fill markers" d=" M 0.485 -0.41100000000000003 L 0.647 -0.585 Q 0.666 -0.606 0.666 -0.621 Q 0.666 -0.648 0.626 -0.652 Q 0.614 -0.654 0.614 -0.663 Q 0.614 -0.683 0.633 -0.683 L 0.743 -0.68 L 0.744 -0.68 L 0.837 -0.683 L 0.838 -0.683 Q 0.851 -0.683 0.851 -0.672 Q 0.851 -0.655 0.837 -0.653 Q 0.835 -0.652 0.8290000000000001 -0.652 Q 0.759 -0.649 0.7020000000000001 -0.601 Q 0.6890000000000001 -0.59 0.552 -0.442 Q 0.519 -0.406 0.497 -0.384 Q 0.503 -0.368 0.626 -0.075 Q 0.639 -0.044 0.65 -0.038 L 0.651 -0.038 L 0.651 -0.038 L 0.651 -0.038 L 0.651 -0.038 L 0.652 -0.038 L 0.652 -0.037 Q 0.665 -0.032 0.712 -0.031 Q 0.73 -0.031 0.73 -0.019 Q 0.73 0 0.711 0 L 0.601 -0.003 L 0.6 -0.003 L 0.47500000000000003 0 L 0.47400000000000003 0 Q 0.459 0 0.459 -0.012 Q 0.459 -0.028 0.47400000000000003 -0.03 Q 0.47600000000000003 -0.031 0.47900000000000004 -0.031 Q 0.524 -0.036000000000000004 0.536 -0.056 Q 0.537 -0.058 0.537 -0.06 L 0.532 -0.074 L 0.431 -0.313 L 0.341 -0.215 L 0.23900000000000002 -0.107 Q 0.212 -0.078 0.212 -0.062 Q 0.212 -0.035 0.252 -0.031 Q 0.264 -0.031 0.264 -0.02 Q 0.264 0 0.246 0 L 0.135 -0.003 L 0.134 -0.003 L 0.041 0 L 0.04 0 Q 0.027 0 0.027 -0.011 Q 0.027 -0.028 0.041 -0.03 Q 0.043000000000000003 -0.031 0.049 -0.031 Q 0.134 -0.036000000000000004 0.196 -0.10300000000000001 L 0.209 -0.114 L 0.42 -0.341 L 0.302 -0.62 Q 0.293 -0.641 0.278 -0.647 L 0.277 -0.647 L 0.277 -0.647 L 0.277 -0.647 Q 0.262 -0.652 0.227 -0.652 Q 0.20500000000000002 -0.652 0.20400000000000001 -0.663 Q 0.20400000000000001 -0.683 0.222 -0.683 L 0.333 -0.68 L 0.334 -0.68 L 0.459 -0.683 L 0.46 -0.683 Q 0.47500000000000003 -0.683 0.47500000000000003 -0.671 Q 0.47500000000000003 -0.654 0.455 -0.652 Q 0.40900000000000003 -0.648 0.396 -0.623 L 0.401 -0.61 L 0.485 -0.41100000000000003 Z"/></g><g transform="translate(45.69792813157895,27.94374337894737) scale(0.7,0.7)"><path fill="rgb(204,0,0)" stroke="none" paint-order="stroke fill markers" d=" M 0.61 -0.381 L 0.61 -0.011 Q 0.61 0.021 0.59 0.022 Q 0.5700000000000001 0.022 0.5700000000000001 -0.011 L 0.5700000000000001 -0.378 Q 0.5700000000000001 -0.486 0.456 -0.534 Q 0.399 -0.558 0.333 -0.558 Q 0.231 -0.558 0.162 -0.507 Q 0.096 -0.458 0.096 -0.378 L 0.096 -0.011 Q 0.096 0.021 0.076 0.022 Q 0.056 0.022 0.056 -0.011 L 0.056 -0.381 Q 0.056 -0.495 0.165 -0.556 Q 0.24 -0.598 0.333 -0.598 Q 0.453 -0.598 0.533 -0.535 Q 0.61 -0.47500000000000003 0.61 -0.381 Z"/></g><g transform="translate(46.16459643157895,27.94374337894737) scale(0.7,0.7)"><path fill="rgb(204,0,0)" stroke="none" paint-order="stroke fill markers" d=" M 0.72 -0.659 L 0.161 -0.034 L 0.332 -0.034 Q 0.467 -0.034 0.527 -0.10400000000000001 Q 0.5630000000000001 -0.147 0.594 -0.242 Q 0.602 -0.265 0.611 -0.267 Q 0.624 -0.267 0.624 -0.256 L 0.62 -0.241 L 0.549 -0.02 Q 0.544 -0.003 0.536 -0.001 L 0.536 -0.001 L 0.535 -0.001 Q 0.531 0 0.518 0 L 0.083 0 Q 0.06 0 0.058 -0.009000000000000001 L 0.062 -0.027 L 0.062 -0.027 L 0.621 -0.652 L 0.458 -0.652 Q 0.322 -0.652 0.264 -0.5760000000000001 L 0.263 -0.5750000000000001 L 0.263 -0.5750000000000001 L 0.263 -0.5750000000000001 L 0.262 -0.5740000000000001 Q 0.234 -0.537 0.212 -0.468 Q 0.20600000000000002 -0.459 0.199 -0.458 Q 0.187 -0.458 0.187 -0.46900000000000003 Q 0.187 -0.47600000000000003 0.19 -0.483 L 0.245 -0.663 Q 0.25 -0.68 0.258 -0.682 Q 0.262 -0.683 0.276 -0.683 L 0.6980000000000001 -0.683 Q 0.721 -0.683 0.723 -0.674 Q 0.723 -0.671 0.72 -0.659 Z"/></g><g transform="translate(46.69251368157895,27.741521078947372) scale(0.5,0.5)"><path fill="rgb(204,0,0)" stroke="none" paint-order="stroke fill markers" d=" M 0.40900000000000003 -0.633 L 0.40900000000000003 -0.04 L 0.6890000000000001 -0.04 Q 0.721 -0.04 0.722 -0.02 Q 0.722 0 0.6890000000000001 0 L 0.09 0 Q 0.057 0 0.056 -0.02 Q 0.056 -0.04 0.09 -0.04 L 0.369 -0.04 L 0.369 -0.632 Q 0.369 -0.665 0.389 -0.666 Q 0.40900000000000003 -0.666 0.40900000000000003 -0.633 Z"/></g><g transform="translate(47.10771997105263,27.73874257894737)"><path fill="rgb(204,0,0)" stroke="none" paint-order="stroke fill markers" d=" M 0.734 -0.6 L 0.429 -0.274 L 0.373 -0.049 Q 0.41500000000000004 -0.047 0.434 -0.047 Q 0.451 -0.047 0.458 -0.0465 Q 0.465 -0.046 0.47050000000000003 -0.042 Q 0.47600000000000003 -0.038 0.47600000000000003 -0.029 Q 0.47600000000000003 -0.016 0.47000000000000003 -0.009000000000000001 Q 0.464 -0.002 0.459 -0.001 Q 0.454 0 0.447 0 Q 0.43 0 0.3705 -0.0015 Q 0.311 -0.003 0.294 -0.003 Q 0.28200000000000003 -0.003 0.2575 -0.0025 Q 0.233 -0.002 0.221 -0.002 Q 0.20800000000000002 -0.002 0.183 -0.001 Q 0.158 0 0.145 0 Q 0.123 0 0.123 -0.018000000000000002 Q 0.123 -0.035 0.133 -0.043000000000000003 Q 0.137 -0.047 0.169 -0.047 Q 0.20400000000000001 -0.047 0.221 -0.049 Q 0.234 -0.05 0.23750000000000002 -0.0525 Q 0.241 -0.055 0.244 -0.068 L 0.296 -0.274 L 0.14400000000000002 -0.623 Q 0.14 -0.632 0.137 -0.634 Q 0.134 -0.636 0.124 -0.638 Q 0.11 -0.639 0.085 -0.639 Q 0.068 -0.639 0.0615 -0.6395000000000001 Q 0.055 -0.64 0.0495 -0.644 Q 0.044 -0.648 0.044 -0.657 Q 0.044 -0.67 0.0495 -0.677 Q 0.055 -0.684 0.059500000000000004 -0.685 Q 0.064 -0.686 0.07200000000000001 -0.686 Q 0.083 -0.686 0.1075 -0.685 Q 0.132 -0.684 0.14400000000000002 -0.684 Q 0.155 -0.684 0.178 -0.6835 Q 0.201 -0.683 0.213 -0.683 Q 0.23 -0.683 0.2905 -0.6845 Q 0.35100000000000003 -0.686 0.368 -0.686 Q 0.39 -0.686 0.39 -0.668 Q 0.39 -0.649 0.3815 -0.644 Q 0.373 -0.639 0.356 -0.639 Q 0.328 -0.639 0.3 -0.635 L 0.428 -0.342 L 0.6990000000000001 -0.632 Q 0.678 -0.639 0.654 -0.639 Q 0.627 -0.639 0.627 -0.657 Q 0.627 -0.686 0.654 -0.686 Q 0.672 -0.686 0.709 -0.6845 Q 0.746 -0.683 0.765 -0.683 Q 0.78 -0.683 0.8115 -0.6845 Q 0.843 -0.686 0.857 -0.686 Q 0.866 -0.686 0.8705 -0.68 Q 0.875 -0.674 0.875 -0.668 Q 0.875 -0.655 0.8695 -0.648 Q 0.864 -0.641 0.859 -0.64 Q 0.854 -0.639 0.846 -0.639 Q 0.8 -0.638 0.7765 -0.629 Q 0.753 -0.62 0.734 -0.6 Z"/></g></g><path fill="rgb(255,255,255)" stroke="none" paint-order="stroke fill markers" d=" M 565 446 L 643 446 L 643 478 L 565 478 L 565 446 Z" fill-opacity="1"/><g transform="scale(19,19)"><g transform="translate(30.105263157894736,24.528216263157894)"><path fill="rgb(0,0,0)" stroke="none" paint-order="stroke fill markers" d=" M 0.303 -0.316 L 0.303 -0.316 L 0.241 -0.066 L 0.23800000000000002 -0.049 Q 0.23800000000000002 -0.032 0.28400000000000003 -0.031 L 0.28400000000000003 -0.031 L 0.28400000000000003 -0.031 L 0.303 -0.031 Q 0.329 -0.031 0.331 -0.02 Q 0.331 0 0.311 0 L 0.247 -0.002 L 0.246 -0.002 L 0.184 -0.003 L 0.182 -0.003 L 0.056 0 L 0.055 0 Q 0.04 0 0.04 -0.012 Q 0.04 -0.029 0.056 -0.031 L 0.068 -0.031 Q 0.133 -0.031 0.146 -0.045 Q 0.152 -0.052000000000000005 0.158 -0.073 Q 0.158 -0.074 0.159 -0.078 L 0.293 -0.615 Q 0.297 -0.631 0.297 -0.634 Q 0.297 -0.646 0.281 -0.649 L 0.28 -0.649 L 0.28 -0.649 Q 0.278 -0.65 0.275 -0.65 Q 0.251 -0.652 0.232 -0.652 Q 0.20600000000000002 -0.652 0.20400000000000001 -0.66 Q 0.203 -0.662 0.203 -0.664 Q 0.203 -0.681 0.22 -0.683 L 0.22 -0.683 L 0.233 -0.683 L 0.557 -0.683 Q 0.678 -0.683 0.73 -0.609 Q 0.754 -0.5740000000000001 0.754 -0.532 Q 0.754 -0.451 0.671 -0.385 Q 0.583 -0.316 0.47300000000000003 -0.316 L 0.303 -0.316 M 0.375 -0.614 L 0.307 -0.342 L 0.448 -0.342 Q 0.543 -0.342 0.602 -0.395 Q 0.643 -0.433 0.658 -0.522 L 0.658 -0.523 Q 0.661 -0.542 0.661 -0.556 Q 0.661 -0.652 0.525 -0.652 L 0.429 -0.652 Q 0.393 -0.652 0.385 -0.642 L 0.385 -0.642 L 0.385 -0.641 L 0.384 -0.641 L 0.384 -0.64 Q 0.38 -0.634 0.375 -0.614 Z"/></g><g transform="translate(30.747277157894736,24.733217063157895) scale(0.7,0.7)"><path fill="rgb(0,0,0)" stroke="none" paint-order="stroke fill markers" d=" M 0.485 -0.41100000000000003 L 0.647 -0.585 Q 0.666 -0.606 0.666 -0.621 Q 0.666 -0.648 0.626 -0.652 Q 0.614 -0.654 0.614 -0.663 Q 0.614 -0.683 0.633 -0.683 L 0.743 -0.68 L 0.744 -0.68 L 0.837 -0.683 L 0.838 -0.683 Q 0.851 -0.683 0.851 -0.672 Q 0.851 -0.655 0.837 -0.653 Q 0.835 -0.652 0.8290000000000001 -0.652 Q 0.759 -0.649 0.7020000000000001 -0.601 Q 0.6890000000000001 -0.59 0.552 -0.442 Q 0.519 -0.406 0.497 -0.384 Q 0.503 -0.368 0.626 -0.075 Q 0.639 -0.044 0.65 -0.038 L 0.651 -0.038 L 0.651 -0.038 L 0.651 -0.038 L 0.651 -0.038 L 0.652 -0.038 L 0.652 -0.037 Q 0.665 -0.032 0.712 -0.031 Q 0.73 -0.031 0.73 -0.019 Q 0.73 0 0.711 0 L 0.601 -0.003 L 0.6 -0.003 L 0.47500000000000003 0 L 0.47400000000000003 0 Q 0.459 0 0.459 -0.012 Q 0.459 -0.028 0.47400000000000003 -0.03 Q 0.47600000000000003 -0.031 0.47900000000000004 -0.031 Q 0.524 -0.036000000000000004 0.536 -0.056 Q 0.537 -0.058 0.537 -0.06 L 0.532 -0.074 L 0.431 -0.313 L 0.341 -0.215 L 0.23900000000000002 -0.107 Q 0.212 -0.078 0.212 -0.062 Q 0.212 -0.035 0.252 -0.031 Q 0.264 -0.031 0.264 -0.02 Q 0.264 0 0.246 0 L 0.135 -0.003 L 0.134 -0.003 L 0.041 0 L 0.04 0 Q 0.027 0 0.027 -0.011 Q 0.027 -0.028 0.041 -0.03 Q 0.043000000000000003 -0.031 0.049 -0.031 Q 0.134 -0.036000000000000004 0.196 -0.10300000000000001 L 0.209 -0.114 L 0.42 -0.341 L 0.302 -0.62 Q 0.293 -0.641 0.278 -0.647 L 0.277 -0.647 L 0.277 -0.647 L 0.277 -0.647 Q 0.262 -0.652 0.227 -0.652 Q 0.20500000000000002 -0.652 0.20400000000000001 -0.663 Q 0.20400000000000001 -0.683 0.222 -0.683 L 0.333 -0.68 L 0.334 -0.68 L 0.459 -0.683 L 0.46 -0.683 Q 0.47500000000000003 -0.683 0.47500000000000003 -0.671 Q 0.47500000000000003 -0.654 0.455 -0.652 Q 0.40900000000000003 -0.648 0.396 -0.623 L 0.401 -0.61 L 0.485 -0.41100000000000003 Z"/></g><g transform="translate(31.382138657894735,24.733217063157895) scale(0.7,0.7)"><path fill="rgb(0,0,0)" stroke="none" paint-order="stroke fill markers" d=" M 0.61 -0.381 L 0.61 -0.011 Q 0.61 0.021 0.59 0.022 Q 0.5700000000000001 0.022 0.5700000000000001 -0.011 L 0.5700000000000001 -0.378 Q 0.5700000000000001 -0.486 0.456 -0.534 Q 0.399 -0.558 0.333 -0.558 Q 0.231 -0.558 0.162 -0.507 Q 0.096 -0.458 0.096 -0.378 L 0.096 -0.011 Q 0.096 0.021 0.076 0.022 Q 0.056 0.022 0.056 -0.011 L 0.056 -0.381 Q 0.056 -0.495 0.165 -0.556 Q 0.24 -0.598 0.333 -0.598 Q 0.453 -0.598 0.533 -0.535 Q 0.61 -0.47500000000000003 0.61 -0.381 Z"/></g><g transform="translate(31.848806957894734,24.733217063157895) scale(0.7,0.7)"><path fill="rgb(0,0,0)" stroke="none" paint-order="stroke fill markers" d=" M 0.72 -0.659 L 0.161 -0.034 L 0.332 -0.034 Q 0.467 -0.034 0.527 -0.10400000000000001 Q 0.5630000000000001 -0.147 0.594 -0.242 Q 0.602 -0.265 0.611 -0.267 Q 0.624 -0.267 0.624 -0.256 L 0.62 -0.241 L 0.549 -0.02 Q 0.544 -0.003 0.536 -0.001 L 0.536 -0.001 L 0.535 -0.001 Q 0.531 0 0.518 0 L 0.083 0 Q 0.06 0 0.058 -0.009000000000000001 L 0.062 -0.027 L 0.062 -0.027 L 0.621 -0.652 L 0.458 -0.652 Q 0.322 -0.652 0.264 -0.5760000000000001 L 0.263 -0.5750000000000001 L 0.263 -0.5750000000000001 L 0.263 -0.5750000000000001 L 0.262 -0.5740000000000001 Q 0.234 -0.537 0.212 -0.468 Q 0.20600000000000002 -0.459 0.199 -0.458 Q 0.187 -0.458 0.187 -0.46900000000000003 Q 0.187 -0.47600000000000003 0.19 -0.483 L 0.245 -0.663 Q 0.25 -0.68 0.258 -0.682 Q 0.262 -0.683 0.276 -0.683 L 0.6980000000000001 -0.683 Q 0.721 -0.683 0.723 -0.674 Q 0.723 -0.671 0.72 -0.659 Z"/></g><g transform="translate(32.37672420789473,24.530994763157896) scale(0.5,0.5)"><path fill="rgb(0,0,0)" stroke="none" paint-order="stroke fill markers" d=" M 0.40900000000000003 -0.633 L 0.40900000000000003 -0.04 L 0.6890000000000001 -0.04 Q 0.721 -0.04 0.722 -0.02 Q 0.722 0 0.6890000000000001 0 L 0.09 0 Q 0.057 0 0.056 -0.02 Q 0.056 -0.04 0.09 -0.04 L 0.369 -0.04 L 0.369 -0.632 Q 0.369 -0.665 0.389 -0.666 Q 0.40900000000000003 -0.666 0.40900000000000003 -0.633 Z"/></g><g transform="translate(32.79193049736842,24.528216263157894)"><path fill="rgb(0,0,0)" stroke="none" paint-order="stroke fill markers" d=" M 0.734 -0.6 L 0.429 -0.274 L 0.373 -0.049 Q 0.41500000000000004 -0.047 0.434 -0.047 Q 0.451 -0.047 0.458 -0.0465 Q 0.465 -0.046 0.47050000000000003 -0.042 Q 0.47600000000000003 -0.038 0.47600000000000003 -0.029 Q 0.47600000000000003 -0.016 0.47000000000000003 -0.009000000000000001 Q 0.464 -0.002 0.459 -0.001 Q 0.454 0 0.447 0 Q 0.43 0 0.3705 -0.0015 Q 0.311 -0.003 0.294 -0.003 Q 0.28200000000000003 -0.003 0.2575 -0.0025 Q 0.233 -0.002 0.221 -0.002 Q 0.20800000000000002 -0.002 0.183 -0.001 Q 0.158 0 0.145 0 Q 0.123 0 0.123 -0.018000000000000002 Q 0.123 -0.035 0.133 -0.043000000000000003 Q 0.137 -0.047 0.169 -0.047 Q 0.20400000000000001 -0.047 0.221 -0.049 Q 0.234 -0.05 0.23750000000000002 -0.0525 Q 0.241 -0.055 0.244 -0.068 L 0.296 -0.274 L 0.14400000000000002 -0.623 Q 0.14 -0.632 0.137 -0.634 Q 0.134 -0.636 0.124 -0.638 Q 0.11 -0.639 0.085 -0.639 Q 0.068 -0.639 0.0615 -0.6395000000000001 Q 0.055 -0.64 0.0495 -0.644 Q 0.044 -0.648 0.044 -0.657 Q 0.044 -0.67 0.0495 -0.677 Q 0.055 -0.684 0.059500000000000004 -0.685 Q 0.064 -0.686 0.07200000000000001 -0.686 Q 0.083 -0.686 0.1075 -0.685 Q 0.132 -0.684 0.14400000000000002 -0.684 Q 0.155 -0.684 0.178 -0.6835 Q 0.201 -0.683 0.213 -0.683 Q 0.23 -0.683 0.2905 -0.6845 Q 0.35100000000000003 -0.686 0.368 -0.686 Q 0.39 -0.686 0.39 -0.668 Q 0.39 -0.649 0.3815 -0.644 Q 0.373 -0.639 0.356 -0.639 Q 0.328 -0.639 0.3 -0.635 L 0.428 -0.342 L 0.6990000000000001 -0.632 Q 0.678 -0.639 0.654 -0.639 Q 0.627 -0.639 0.627 -0.657 Q 0.627 -0.686 0.654 -0.686 Q 0.672 -0.686 0.709 -0.6845 Q 0.746 -0.683 0.765 -0.683 Q 0.78 -0.683 0.8115 -0.6845 Q 0.843 -0.686 0.857 -0.686 Q 0.866 -0.686 0.8705 -0.68 Q 0.875 -0.674 0.875 -0.668 Q 0.875 -0.655 0.8695 -0.648 Q 0.864 -0.641 0.859 -0.64 Q 0.854 -0.639 0.846 -0.639 Q 0.8 -0.638 0.7765 -0.629 Q 0.753 -0.62 0.734 -0.6 Z"/></g></g></g></g></svg>