<svg version="1.1" xmlns="http://www.w3.org/2000/svg" xmlns:xlink="http://www.w3.org/1999/xlink" width="1540" height="877"><defs><clipPath id="MqClVGEodGIW"><path fill="none" stroke="none" d=" M 0 0 L 1540 0 L 1540 877 L 0 877 L 0 0 Z"/></clipPath></defs><g transform="scale(1,1)" clip-path="url(#MqClVGEodGIW)"><g><rect fill="rgb(255,255,255)" stroke="none" x="0" y="0" width="1540" height="877" fill-opacity="1"/><path fill="rgb(0,0,0)" stroke="none" paint-order="stroke fill markers" fill-rule="evenodd" d=" M 730.630304477347 557.0762248957133 L 736.3608360920999 562.5271336442044 L 726.6952282650205 567.8096543825623 L 720.648534247496 561.8964771133246 Z" fill-opacity="0.09803921568627451"/><path fill="rgb(0,0,0)" stroke="none" paint-order="stroke fill markers" fill-rule="evenodd" d=" M 724.3527371506957 552.4051999948464 L 717.5145824490677 546.229626268253 L 714.3371534692128 555.7126360950444 L 720.648534247496 561.8964771133246 Z" fill-opacity="0.09803921568627451"/><path fill="rgb(21,101,192)" stroke="none" paint-order="stroke fill markers" fill-rule="evenodd" d=" M 913.8135618842568 457.7556586647851 L 902.523792472095 463.23308708906364 L 902.8658849178782 473.90270762848024 L 913.7729650205429 468.6356181401541 Z" fill-opacity="0.09803921568627451"/><path fill="none" stroke="rgb(21,101,192)" paint-order="fill stroke markers" d=" M 734.1611636947116 555.3711533922962 C 736.8842309402962 553.4057300595979 737.4984226848645 549.6049574820191 735.5329993521664 546.8818902364345 C 733.5675760194681 544.15882299085 729.7668034418894 543.5446312462816 727.0437361963047 545.5100545789797" stroke-opacity="0.6980392156862745" stroke-linecap="round" stroke-linejoin="round" stroke-miterlimit="10" stroke-width="1.5"/><path fill="none" stroke="rgb(97,97,97)" paint-order="fill stroke markers" d=" M 466.41284374312545 181.61022552702383 L 23.928528952115812 760.9153481810396" stroke-opacity="0.6980392156862745" stroke-linecap="round" stroke-linejoin="round" stroke-miterlimit="10"/><path fill="none" stroke="rgb(97,97,97)" paint-order="fill stroke markers" d=" M 23.928528952115812 760.9153481810396 L 1270.4304547991587 750.463433398799" stroke-opacity="0.6980392156862745" stroke-linecap="round" stroke-linejoin="round" stroke-miterlimit="10"/><path fill="none" stroke="rgb(0,0,0)" paint-order="fill stroke markers" d=" M 1270.4304547991587 750.463433398799 L 1525.401257242585 169.31376656828866" stroke-opacity="0.6980392156862745" stroke-linecap="round" stroke-linejoin="round" stroke-miterlimit="10"/><path fill="none" stroke="rgb(21,101,192)" paint-order="fill stroke markers" d=" M 915.28586905014 63.17733820811395 L 913.7729650205429 468.6356181401541" stroke-opacity="0.6980392156862745" stroke-linejoin="round" stroke-miterlimit="10" stroke-width="2" stroke-dasharray="6,4"/><path fill="none" stroke="rgb(0,0,0)" paint-order="fill stroke markers" d=" M 913.7729650205429 468.6356181401541 L 791.1639589138599 372.8976953173116" stroke-opacity="0.6980392156862745" stroke-linecap="round" stroke-linejoin="round" stroke-miterlimit="10"/><path fill="none" stroke="rgb(0,0,0)" paint-order="fill stroke markers" d=" M 913.7729650205429 468.6356181401541 L 664.0361454792883 506.53414367108144" stroke-opacity="0.6980392156862745" stroke-linecap="round" stroke-linejoin="round" stroke-miterlimit="10"/><path fill="none" stroke="rgb(21,101,192)" paint-order="fill stroke markers" d=" M 913.7729650205429 468.6356181401541 L 720.6485342474961 561.8964771133246" stroke-opacity="0.6980392156862745" stroke-linejoin="round" stroke-miterlimit="10" stroke-width="2" stroke-dasharray="6,4"/><path fill="none" stroke="rgb(21,101,192)" paint-order="fill stroke markers" d=" M 915.28586905014 63.17733820811395 L 720.6485342474961 561.8964771133246" stroke-opacity="0.6980392156862745" stroke-linejoin="round" stroke-miterlimit="10" stroke-width="2" stroke-dasharray="6,4"/><path fill="none" stroke="rgb(0,0,0)" paint-order="fill stroke markers" d=" M 730.630304477347 557.0762248957133 L 736.3608360920999 562.5271336442044" stroke-opacity="0.6980392156862745" stroke-linecap="round" stroke-linejoin="round" stroke-miterlimit="10" stroke-width="0.5"/><path fill="none" stroke="rgb(0,0,0)" paint-order="fill stroke markers" d=" M 736.3608360920999 562.5271336442044 L 726.6952282650205 567.8096543825623" stroke-opacity="0.6980392156862745" stroke-linecap="round" stroke-linejoin="round" stroke-miterlimit="10" stroke-width="0.5"/><path fill="none" stroke="rgb(0,0,0)" paint-order="fill stroke markers" d=" M 726.6952282650205 567.8096543825623 L 720.648534247496 561.8964771133246" stroke-opacity="0.6980392156862745" stroke-linecap="round" stroke-linejoin="round" stroke-miterlimit="10" stroke-width="0.5"/><path fill="none" stroke="rgb(0,0,0)" paint-order="fill stroke markers" d=" M 720.648534247496 561.8964771133246 L 730.630304477347 557.0762248957133" stroke-opacity="0.6980392156862745" stroke-linecap="round" stroke-linejoin="round" stroke-miterlimit="10" stroke-width="0.5"/><path fill="none" stroke="rgb(0,0,0)" paint-order="fill stroke markers" d=" M 724.3527371506957 552.4051999948464 L 717.5145824490677 546.229626268253" stroke-opacity="0.6980392156862745" stroke-linecap="round" stroke-linejoin="round" stroke-miterlimit="10" stroke-width="0.5"/><path fill="none" stroke="rgb(0,0,0)" paint-order="fill stroke markers" d=" M 717.5145824490677 546.229626268253 L 714.3371534692128 555.7126360950444" stroke-opacity="0.6980392156862745" stroke-linecap="round" stroke-linejoin="round" stroke-miterlimit="10" stroke-width="0.5"/><path fill="none" stroke="rgb(0,0,0)" paint-order="fill stroke markers" d=" M 714.3371534692128 555.7126360950444 L 720.648534247496 561.8964771133246" stroke-opacity="0.6980392156862745" stroke-linecap="round" stroke-linejoin="round" stroke-miterlimit="10" stroke-width="0.5"/><path fill="none" stroke="rgb(0,0,0)" paint-order="fill stroke markers" d=" M 720.648534247496 561.8964771133246 L 724.3527371506957 552.4051999948464" stroke-opacity="0.6980392156862745" stroke-linecap="round" stroke-linejoin="round" stroke-miterlimit="10" stroke-width="0.5"/><path fill="none" stroke="rgb(21,101,192)" paint-order="fill stroke markers" d=" M 913.8135618842568 457.7556586647851 L 902.523792472095 463.23308708906364" stroke-opacity="0.6980392156862745" stroke-linecap="round" stroke-linejoin="round" stroke-miterlimit="10" stroke-width="1.5"/><path fill="none" stroke="rgb(21,101,192)" paint-order="fill stroke markers" d=" M 902.523792472095 463.23308708906364 L 902.8658849178782 473.90270762848024" stroke-opacity="0.6980392156862745" stroke-linecap="round" stroke-linejoin="round" stroke-miterlimit="10" stroke-width="1.5"/><path fill="none" stroke="rgb(21,101,192)" paint-order="fill stroke markers" d=" M 902.8658849178782 473.90270762848024 L 913.7729650205429 468.6356181401541" stroke-opacity="0.6980392156862745" stroke-linecap="round" stroke-linejoin="round" stroke-miterlimit="10" stroke-width="1.5"/><path fill="none" stroke="rgb(21,101,192)" paint-order="fill stroke markers" d=" M 913.7729650205429 468.6356181401541 L 913.8135618842568 457.7556586647851" stroke-opacity="0.6980392156862745" stroke-linecap="round" stroke-linejoin="round" stroke-miterlimit="10" stroke-width="1.5"/><path fill="none" stroke="rgb(0,0,0)" paint-order="fill stroke markers" d=" M 562.4785173490683 407.2190044500702 L 905.2626410254397 72.95153382539445" stroke-opacity="0.6980392156862745" stroke-linecap="round" stroke-linejoin="round" stroke-miterlimit="10"/><path fill="rgb(0,0,0)" stroke="none" paint-order="stroke fill markers" fill-rule="evenodd" d=" M 915.2858690501399 63.17733820811401 L 907.7061899297598 75.4573408315695 L 902.8190921211196 70.4457268192194 Z" fill-opacity="0.6980392156862745"/><path fill="none" stroke="rgb(0,0,0)" paint-order="fill stroke markers" d=" M 562.4785173490683 407.2190044500702 L 1016.4216306451953 339.0908288499234" stroke-opacity="0.6980392156862745" stroke-linecap="round" stroke-linejoin="round" stroke-miterlimit="10"/><path fill="rgb(0,0,0)" stroke="none" paint-order="stroke fill markers" fill-rule="evenodd" d=" M 1030.266575299525 337.01296756520077 L 1016.9410959663759 342.5520650135058 L 1015.9021653240146 335.629592686341 Z" fill-opacity="0.6980392156862745"/><path fill="none" stroke="rgb(0,0,0)" paint-order="fill stroke markers" d=" M 562.4785173490683 407.2190044500702 L 799.3732004838821 638.8828279305096" stroke-opacity="0.6980392156862745" stroke-linecap="round" stroke-linejoin="round" stroke-miterlimit="10"/><path fill="rgb(0,0,0)" stroke="none" paint-order="stroke fill markers" fill-rule="evenodd" d=" M 809.3825869783382 648.6711976622167 L 796.9261080509553 641.3851745541236 L 801.8202929168089 636.3804813068956 Z" fill-opacity="0.6980392156862745"/><path fill="none" stroke="rgb(0,0,0)" paint-order="fill stroke markers" d=" M 562.6518523842726 407.38851208302833 L 778.4167874559882 374.9167383831369" stroke-opacity="0.6980392156862745" stroke-linecap="round" stroke-linejoin="round" stroke-miterlimit="10" stroke-width="0.5"/><path fill="rgb(0,0,0)" stroke="none" paint-order="stroke fill markers" fill-rule="evenodd" d=" M 791.2720230244815 372.9820760150363 L 778.9004530480133 378.1305472752602 L 777.9331218639632 371.70292949101355 Z" fill-opacity="0.6980392156862745"/><path fill="none" stroke="rgb(0,0,0)" paint-order="fill stroke markers" d=" M 562.6518523842726 407.38851208302833 L 654.8305776936202 497.4356823740876" stroke-opacity="0.6980392156862745" stroke-linecap="round" stroke-linejoin="round" stroke-miterlimit="10" stroke-width="0.5"/><path fill="rgb(0,0,0)" stroke="none" paint-order="stroke fill markers" fill-rule="evenodd" d=" M 664.1298559992721 506.51992273825846 L 652.5595176025774 499.7605019505006 L 657.1016377846629 495.1108627976746 Z" fill-opacity="0.6980392156862745"/><path fill="none" stroke="rgb(0,0,0)" paint-order="fill stroke markers" d=" M 664.1298559992721 506.51992273825846 L 711.3628023298243 552.7983903499918" stroke-opacity="0.6980392156862745" stroke-linecap="round" stroke-linejoin="round" stroke-miterlimit="10" stroke-width="0.5"/><path fill="rgb(0,0,0)" stroke="none" paint-order="stroke fill markers" fill-rule="evenodd" d=" M 720.648534247496 561.8964771133246 L 709.088280638991 555.1198233294098 L 713.6373240206575 550.4769573705738 Z" fill-opacity="0.6980392156862745"/><path fill="none" stroke="rgb(0,0,0)" paint-order="fill stroke markers" d=" M 562.4785173490683 407.2190044500702 L 899.9821392863598 466.22457571634766" stroke-opacity="0.6980392156862745" stroke-linejoin="round" stroke-miterlimit="10" stroke-dasharray="5,4"/><path fill="rgb(0,0,0)" stroke="none" paint-order="stroke fill markers" fill-rule="evenodd" d=" M 913.7729650205429 468.6356181401541 L 899.3793786804082 469.6722821498934 L 900.5848998923115 462.7768692828019 Z" fill-opacity="0.6980392156862745"/><path fill="none" stroke="rgb(255,255,255)" paint-order="fill stroke markers" d=" M 467.41284374312545 181.61022552702383 C 467.41284374312545 182.16251027685462 466.96512849295624 182.61022552702383 466.41284374312545 182.61022552702383 C 465.86055899329466 182.61022552702383 465.41284374312545 182.16251027685462 465.41284374312545 181.61022552702383 C 465.41284374312545 181.05794077719304 465.86055899329466 180.61022552702383 466.41284374312545 180.61022552702383 C 466.96512849295624 180.61022552702383 467.41284374312545 181.05794077719304 467.41284374312545 181.61022552702383 Z" stroke-opacity="1" stroke-linecap="square" stroke-miterlimit="10" stroke-width="0.5"/><text fill="rgb(255,255,255)" stroke="none" font-family="geogebra-sans-serif, sans-serif" font-size="16px" font-style="normal" font-weight="normal" text-decoration="normal" x="470" y="180" text-anchor="start" dominant-baseline="alphabetic" fill-opacity="1">A</text><path fill="rgb(255,255,255)" stroke="none" paint-order="stroke fill markers" d=" M 563.4785173490683 407.2190044500702 C 563.4785173490683 407.771289199901 563.0308020988991 408.2190044500702 562.4785173490683 408.2190044500702 C 561.9262325992374 408.2190044500702 561.4785173490683 407.771289199901 561.4785173490683 407.2190044500702 C 561.4785173490683 406.6667197002394 561.9262325992374 406.2190044500702 562.4785173490683 406.2190044500702 C 563.0308020988991 406.2190044500702 563.4785173490683 406.6667197002394 563.4785173490683 407.2190044500702 Z" fill-opacity="1"/><path fill="none" stroke="rgb(0,0,0)" paint-order="fill stroke markers" d=" M 563.4785173490683 407.2190044500702 C 563.4785173490683 407.771289199901 563.0308020988991 408.2190044500702 562.4785173490683 408.2190044500702 C 561.9262325992374 408.2190044500702 561.4785173490683 407.771289199901 561.4785173490683 407.2190044500702 C 561.4785173490683 406.6667197002394 561.9262325992374 406.2190044500702 562.4785173490683 406.2190044500702 C 563.0308020988991 406.2190044500702 563.4785173490683 406.6667197002394 563.4785173490683 407.2190044500702 Z" stroke-opacity="1" stroke-linecap="round" stroke-linejoin="round" stroke-miterlimit="10"/><text fill="rgb(255,255,255)" stroke="none" font-family="geogebra-sans-serif, sans-serif" font-size="16px" font-style="normal" font-weight="normal" text-decoration="normal" x="566" y="405" text-anchor="start" dominant-baseline="alphabetic" fill-opacity="1">E</text><path fill="rgb(255,255,255)" stroke="none" paint-order="stroke fill markers" d=" M 914.7729650205429 468.6356181401541 C 914.7729650205429 469.1879028899849 914.3252497703737 469.6356181401541 913.7729650205429 469.6356181401541 C 913.220680270712 469.6356181401541 912.7729650205429 469.1879028899849 912.7729650205429 468.6356181401541 C 912.7729650205429 468.08333339032333 913.220680270712 467.6356181401541 913.7729650205429 467.6356181401541 C 914.3252497703737 467.6356181401541 914.7729650205429 468.08333339032333 914.7729650205429 468.6356181401541 Z" fill-opacity="1"/><path fill="none" stroke="rgb(0,0,0)" paint-order="fill stroke markers" d=" M 914.7729650205429 468.6356181401541 C 914.7729650205429 469.1879028899849 914.3252497703737 469.6356181401541 913.7729650205429 469.6356181401541 C 913.220680270712 469.6356181401541 912.7729650205429 469.1879028899849 912.7729650205429 468.6356181401541 C 912.7729650205429 468.08333339032333 913.220680270712 467.6356181401541 913.7729650205429 467.6356181401541 C 914.3252497703737 467.6356181401541 914.7729650205429 468.08333339032333 914.7729650205429 468.6356181401541 Z" stroke-opacity="1" stroke-linecap="round" stroke-linejoin="round" stroke-miterlimit="10"/><text fill="rgb(255,255,255)" stroke="none" font-family="geogebra-sans-serif, sans-serif" font-size="16px" font-style="normal" font-weight="normal" text-decoration="normal" x="918" y="467" text-anchor="start" dominant-baseline="alphabetic" fill-opacity="1">\hat{Y}</text><path fill="rgb(255,255,255)" stroke="none" paint-order="stroke fill markers" d=" M 792.1639589138599 372.8976953173116 C 792.1639589138599 373.4499800671424 791.7162436636908 373.8976953173116 791.1639589138599 373.8976953173116 C 790.6116741640291 373.8976953173116 790.1639589138599 373.4499800671424 790.1639589138599 372.8976953173116 C 790.1639589138599 372.3454105674808 790.6116741640291 371.8976953173116 791.1639589138599 371.8976953173116 C 791.7162436636908 371.8976953173116 792.1639589138599 372.3454105674808 792.1639589138599 372.8976953173116 Z" fill-opacity="1"/><path fill="none" stroke="rgb(0,0,0)" paint-order="fill stroke markers" d=" M 792.1639589138599 372.8976953173116 C 792.1639589138599 373.4499800671424 791.7162436636908 373.8976953173116 791.1639589138599 373.8976953173116 C 790.6116741640291 373.8976953173116 790.1639589138599 373.4499800671424 790.1639589138599 372.8976953173116 C 790.1639589138599 372.3454105674808 790.6116741640291 371.8976953173116 791.1639589138599 371.8976953173116 C 791.7162436636908 371.8976953173116 792.1639589138599 372.3454105674808 792.1639589138599 372.8976953173116 Z" stroke-opacity="1" stroke-linecap="round" stroke-linejoin="round" stroke-miterlimit="10"/><text fill="rgb(255,255,255)" stroke="none" font-family="geogebra-sans-serif, sans-serif" font-size="16px" font-style="normal" font-weight="normal" text-decoration="normal" x="795" y="371" text-anchor="start" dominant-baseline="alphabetic" fill-opacity="1">a</text><g transform="scale(25,25)"><g transform="translate(36.8002775,19.654445000000003)"><path fill="rgb(0,0,0)" stroke="none" paint-order="stroke fill markers" d=" M 0.25 -0.6940000000000001 L 0.383 -0.558 L 0.365 -0.54 L 0.25 -0.642 L 0.134 -0.54 L 0.116 -0.558 L 0.25 -0.6940000000000001 Z"/></g><g transform="translate(36.76,19.907222000000004)"><path fill="rgb(0,0,0)" stroke="none" paint-order="stroke fill markers" d=" M 0.597 -0.5690000000000001 L 0.597 -0.5690000000000001 L 0.34900000000000003 -0.28400000000000003 Q 0.341 -0.275 0.335 -0.253 L 0.3 -0.112 Q 0.28600000000000003 -0.053 0.28600000000000003 -0.049 Q 0.28600000000000003 -0.037 0.3 -0.035 Q 0.304 -0.034 0.313 -0.033 Q 0.33 -0.031 0.35100000000000003 -0.031 Q 0.377 -0.031 0.379 -0.02 Q 0.379 0 0.36 0 L 0.233 -0.003 L 0.232 -0.003 L 0.107 0 L 0.106 0 Q 0.092 0 0.092 -0.011 Q 0.092 -0.029 0.105 -0.03 Q 0.109 -0.031 0.11900000000000001 -0.031 Q 0.182 -0.032 0.194 -0.042 L 0.196 -0.044 L 0.197 -0.045 Q 0.20400000000000001 -0.053 0.213 -0.09 L 0.258 -0.272 Q 0.258 -0.277 0.254 -0.289 L 0.131 -0.618 Q 0.123 -0.641 0.11 -0.646 Q 0.096 -0.652 0.058 -0.652 Q 0.036000000000000004 -0.652 0.035 -0.663 Q 0.035 -0.683 0.054 -0.683 L 0.165 -0.68 L 0.166 -0.68 L 0.291 -0.683 L 0.292 -0.683 Q 0.307 -0.683 0.307 -0.672 Q 0.299 -0.653 0.28300000000000003 -0.652 Q 0.224 -0.652 0.224 -0.628 Q 0.224 -0.625 0.23 -0.611 L 0.34 -0.314 L 0.5720000000000001 -0.581 Q 0.599 -0.615 0.599 -0.629 Q 0.599 -0.651 0.5630000000000001 -0.652 Q 0.548 -0.652 0.548 -0.664 Q 0.548 -0.683 0.5670000000000001 -0.683 L 0.662 -0.68 L 0.667 -0.68 L 0.747 -0.683 L 0.749 -0.683 Q 0.762 -0.683 0.762 -0.671 Q 0.762 -0.655 0.748 -0.653 Q 0.747 -0.652 0.742 -0.652 Q 0.677 -0.647 0.625 -0.597 L 0.611 -0.583 L 0.597 -0.5690000000000001 Z"/></g></g><g transform="scale(25,25)"><g transform="translate(30.16,25.964444)"><path fill="rgb(0,0,0)" stroke="none" paint-order="stroke fill markers" d=" M 0.354 -0.623 L 0.354 -0.047 L 0.494 -0.047 L 0.494 0 Q 0.45 -0.003 0.295 -0.003 Q 0.14 -0.003 0.096 0 L 0.096 -0.047 L 0.23500000000000001 -0.047 L 0.23500000000000001 -0.5640000000000001 Q 0.17300000000000001 -0.544 0.105 -0.544 L 0.085 -0.544 L 0.085 -0.591 L 0.105 -0.591 Q 0.229 -0.591 0.306 -0.648 Q 0.315 -0.655 0.328 -0.655 Q 0.34600000000000003 -0.655 0.35000000000000003 -0.6485 Q 0.354 -0.642 0.354 -0.623 Z"/></g></g><g transform="scale(25,25)"><g transform="translate(27.116148,13.814445)"><path fill="rgb(0,0,0)" stroke="none" paint-order="stroke fill markers" d=" M 0.25 -0.6940000000000001 L 0.383 -0.558 L 0.365 -0.54 L 0.25 -0.642 L 0.134 -0.54 L 0.116 -0.558 L 0.25 -0.6940000000000001 Z"/></g><g transform="translate(27,14.078335)"><path fill="rgb(0,0,0)" stroke="none" paint-order="stroke fill markers" d=" M 0.028 0.169 L 0.18 -0.437 Q 0.209 -0.551 0.292 -0.631 Q 0.37 -0.705 0.456 -0.705 Q 0.539 -0.705 0.5750000000000001 -0.639 Q 0.59 -0.611 0.59 -0.577 Q 0.59 -0.502 0.528 -0.439 Q 0.507 -0.418 0.482 -0.403 Q 0.549 -0.357 0.549 -0.264 Q 0.549 -0.161 0.46900000000000003 -0.076 Q 0.392 0.005 0.296 0.012 L 0.28300000000000003 0.012 Q 0.186 0.012 0.14100000000000001 -0.063 Q 0.129 -0.083 0.123 -0.105 L 0.048 0.188 L 0.047 0.19 Q 0.043000000000000003 0.194 0.037 0.194 Q 0.025 0.194 0.025 0.184 Q 0.025 0.181 0.028 0.169 M 0.328 -0.401 Q 0.34500000000000003 -0.395 0.371 -0.395 Q 0.401 -0.395 0.419 -0.403 Q 0.406 -0.40900000000000003 0.379 -0.40900000000000003 Q 0.34400000000000003 -0.40900000000000003 0.328 -0.401 M 0.45 -0.421 Q 0.511 -0.467 0.525 -0.577 L 0.525 -0.578 L 0.525 -0.58 Q 0.527 -0.594 0.527 -0.602 Q 0.527 -0.673 0.46900000000000003 -0.682 Q 0.462 -0.683 0.455 -0.683 Q 0.372 -0.683 0.299 -0.606 Q 0.23 -0.534 0.2 -0.41600000000000004 L 0.154 -0.231 Q 0.14100000000000001 -0.179 0.14100000000000001 -0.156 Q 0.14100000000000001 -0.074 0.2 -0.034 Q 0.234 -0.01 0.281 -0.01 Q 0.359 -0.01 0.41500000000000004 -0.094 Q 0.422 -0.10300000000000001 0.427 -0.113 Q 0.462 -0.179 0.47400000000000003 -0.274 Q 0.47600000000000003 -0.291 0.47600000000000003 -0.302 Q 0.47600000000000003 -0.355 0.446 -0.386 Q 0.41400000000000003 -0.373 0.371 -0.373 Q 0.303 -0.373 0.303 -0.399 Q 0.303 -0.431 0.381 -0.431 Q 0.422 -0.431 0.45 -0.421 Z"/></g><g transform="translate(27.61615,14.30778) scale(0.7,0.7)"><path fill="rgb(0,0,0)" stroke="none" paint-order="stroke fill markers" d=" M 0.294 -0.64 L 0.294 -0.079 Q 0.294 -0.049 0.306 -0.041 Q 0.323 -0.031 0.387 -0.031 L 0.419 -0.031 L 0.419 0 Q 0.384 -0.003 0.257 -0.003 Q 0.13 -0.003 0.095 0 L 0.095 -0.031 L 0.127 -0.031 Q 0.20400000000000001 -0.031 0.215 -0.049 L 0.216 -0.05 Q 0.22 -0.058 0.22 -0.079 L 0.22 -0.597 Q 0.168 -0.5710000000000001 0.089 -0.5710000000000001 L 0.089 -0.602 Q 0.209 -0.602 0.271 -0.666 Q 0.29 -0.666 0.293 -0.659 L 0.293 -0.659 L 0.293 -0.658 Q 0.294 -0.655 0.294 -0.64 Z"/></g><g transform="translate(27.9661514,14.078335)"><path fill="rgb(0,0,0)" stroke="none" paint-order="stroke fill markers" d=" M 0.485 -0.41100000000000003 L 0.647 -0.585 Q 0.666 -0.606 0.666 -0.621 Q 0.666 -0.648 0.626 -0.652 Q 0.614 -0.654 0.614 -0.663 Q 0.614 -0.683 0.633 -0.683 L 0.743 -0.68 L 0.744 -0.68 L 0.837 -0.683 L 0.838 -0.683 Q 0.851 -0.683 0.851 -0.672 Q 0.851 -0.655 0.837 -0.653 Q 0.835 -0.652 0.8290000000000001 -0.652 Q 0.759 -0.649 0.7020000000000001 -0.601 Q 0.6890000000000001 -0.59 0.552 -0.442 Q 0.519 -0.406 0.497 -0.384 Q 0.503 -0.368 0.626 -0.075 Q 0.639 -0.044 0.65 -0.038 L 0.651 -0.038 L 0.651 -0.038 L 0.651 -0.038 L 0.651 -0.038 L 0.652 -0.038 L 0.652 -0.037 Q 0.665 -0.032 0.712 -0.031 Q 0.73 -0.031 0.73 -0.019 Q 0.73 0 0.711 0 L 0.601 -0.003 L 0.6 -0.003 L 0.47500000000000003 0 L 0.47400000000000003 0 Q 0.459 0 0.459 -0.012 Q 0.459 -0.028 0.47400000000000003 -0.03 Q 0.47600000000000003 -0.031 0.47900000000000004 -0.031 Q 0.524 -0.036000000000000004 0.536 -0.056 Q 0.537 -0.058 0.537 -0.06 L 0.532 -0.074 L 0.431 -0.313 L 0.341 -0.215 L 0.23900000000000002 -0.107 Q 0.212 -0.078 0.212 -0.062 Q 0.212 -0.035 0.252 -0.031 Q 0.264 -0.031 0.264 -0.02 Q 0.264 0 0.246 0 L 0.135 -0.003 L 0.134 -0.003 L 0.041 0 L 0.04 0 Q 0.027 0 0.027 -0.011 Q 0.027 -0.028 0.041 -0.03 Q 0.043000000000000003 -0.031 0.049 -0.031 Q 0.134 -0.036000000000000004 0.196 -0.10300000000000001 L 0.209 -0.114 L 0.42 -0.341 L 0.302 -0.62 Q 0.293 -0.641 0.278 -0.647 L 0.277 -0.647 L 0.277 -0.647 L 0.277 -0.647 Q 0.262 -0.652 0.227 -0.652 Q 0.20500000000000002 -0.652 0.20400000000000001 -0.663 Q 0.20400000000000001 -0.683 0.222 -0.683 L 0.333 -0.68 L 0.334 -0.68 L 0.459 -0.683 L 0.46 -0.683 Q 0.47500000000000003 -0.683 0.47500000000000003 -0.671 Q 0.47500000000000003 -0.654 0.455 -0.652 Q 0.40900000000000003 -0.648 0.396 -0.623 L 0.401 -0.61 L 0.485 -0.41100000000000003 Z"/></g></g><g transform="scale(25,25)"><g transform="translate(28.44,8.443332)"><path fill="rgb(0,0,0)" stroke="none" paint-order="stroke fill markers" d=" M 0.597 -0.5690000000000001 L 0.597 -0.5690000000000001 L 0.34900000000000003 -0.28400000000000003 Q 0.341 -0.275 0.335 -0.253 L 0.3 -0.112 Q 0.28600000000000003 -0.053 0.28600000000000003 -0.049 Q 0.28600000000000003 -0.037 0.3 -0.035 Q 0.304 -0.034 0.313 -0.033 Q 0.33 -0.031 0.35100000000000003 -0.031 Q 0.377 -0.031 0.379 -0.02 Q 0.379 0 0.36 0 L 0.233 -0.003 L 0.232 -0.003 L 0.107 0 L 0.106 0 Q 0.092 0 0.092 -0.011 Q 0.092 -0.029 0.105 -0.03 Q 0.109 -0.031 0.11900000000000001 -0.031 Q 0.182 -0.032 0.194 -0.042 L 0.196 -0.044 L 0.197 -0.045 Q 0.20400000000000001 -0.053 0.213 -0.09 L 0.258 -0.272 Q 0.258 -0.277 0.254 -0.289 L 0.131 -0.618 Q 0.123 -0.641 0.11 -0.646 Q 0.096 -0.652 0.058 -0.652 Q 0.036000000000000004 -0.652 0.035 -0.663 Q 0.035 -0.683 0.054 -0.683 L 0.165 -0.68 L 0.166 -0.68 L 0.291 -0.683 L 0.292 -0.683 Q 0.307 -0.683 0.307 -0.672 Q 0.299 -0.653 0.28300000000000003 -0.652 Q 0.224 -0.652 0.224 -0.628 Q 0.224 -0.625 0.23 -0.611 L 0.34 -0.314 L 0.5720000000000001 -0.581 Q 0.599 -0.615 0.599 -0.629 Q 0.599 -0.651 0.5630000000000001 -0.652 Q 0.548 -0.652 0.548 -0.664 Q 0.548 -0.683 0.5670000000000001 -0.683 L 0.662 -0.68 L 0.667 -0.68 L 0.747 -0.683 L 0.749 -0.683 Q 0.762 -0.683 0.762 -0.671 Q 0.762 -0.655 0.748 -0.653 Q 0.747 -0.652 0.742 -0.652 Q 0.677 -0.647 0.625 -0.597 L 0.611 -0.583 L 0.597 -0.5690000000000001 Z"/></g></g><g transform="scale(25,25)"><g transform="translate(41.32,14.923332)"><path fill="rgb(0,0,0)" stroke="none" paint-order="stroke fill markers" d=" M 0.485 -0.41100000000000003 L 0.647 -0.585 Q 0.666 -0.606 0.666 -0.621 Q 0.666 -0.648 0.626 -0.652 Q 0.614 -0.654 0.614 -0.663 Q 0.614 -0.683 0.633 -0.683 L 0.743 -0.68 L 0.744 -0.68 L 0.837 -0.683 L 0.838 -0.683 Q 0.851 -0.683 0.851 -0.672 Q 0.851 -0.655 0.837 -0.653 Q 0.835 -0.652 0.8290000000000001 -0.652 Q 0.759 -0.649 0.7020000000000001 -0.601 Q 0.6890000000000001 -0.59 0.552 -0.442 Q 0.519 -0.406 0.497 -0.384 Q 0.503 -0.368 0.626 -0.075 Q 0.639 -0.044 0.65 -0.038 L 0.651 -0.038 L 0.651 -0.038 L 0.651 -0.038 L 0.651 -0.038 L 0.652 -0.038 L 0.652 -0.037 Q 0.665 -0.032 0.712 -0.031 Q 0.73 -0.031 0.73 -0.019 Q 0.73 0 0.711 0 L 0.601 -0.003 L 0.6 -0.003 L 0.47500000000000003 0 L 0.47400000000000003 0 Q 0.459 0 0.459 -0.012 Q 0.459 -0.028 0.47400000000000003 -0.03 Q 0.47600000000000003 -0.031 0.47900000000000004 -0.031 Q 0.524 -0.036000000000000004 0.536 -0.056 Q 0.537 -0.058 0.537 -0.06 L 0.532 -0.074 L 0.431 -0.313 L 0.341 -0.215 L 0.23900000000000002 -0.107 Q 0.212 -0.078 0.212 -0.062 Q 0.212 -0.035 0.252 -0.031 Q 0.264 -0.031 0.264 -0.02 Q 0.264 0 0.246 0 L 0.135 -0.003 L 0.134 -0.003 L 0.041 0 L 0.04 0 Q 0.027 0 0.027 -0.011 Q 0.027 -0.028 0.041 -0.03 Q 0.043000000000000003 -0.031 0.049 -0.031 Q 0.134 -0.036000000000000004 0.196 -0.10300000000000001 L 0.209 -0.114 L 0.42 -0.341 L 0.302 -0.62 Q 0.293 -0.641 0.278 -0.647 L 0.277 -0.647 L 0.277 -0.647 L 0.277 -0.647 Q 0.262 -0.652 0.227 -0.652 Q 0.20500000000000002 -0.652 0.20400000000000001 -0.663 Q 0.20400000000000001 -0.683 0.222 -0.683 L 0.333 -0.68 L 0.334 -0.68 L 0.459 -0.683 L 0.46 -0.683 Q 0.47500000000000003 -0.683 0.47500000000000003 -0.671 Q 0.47500000000000003 -0.654 0.455 -0.652 Q 0.40900000000000003 -0.648 0.396 -0.623 L 0.401 -0.61 L 0.485 -0.41100000000000003 Z"/></g></g><g transform="scale(25,25)"><g transform="translate(23.396148,19.374445)"><path fill="rgb(0,0,0)" stroke="none" paint-order="stroke fill markers" d=" M 0.25 -0.6940000000000001 L 0.383 -0.558 L 0.365 -0.54 L 0.25 -0.642 L 0.134 -0.54 L 0.116 -0.558 L 0.25 -0.6940000000000001 Z"/></g><g transform="translate(23.28,19.638335000000005)"><path fill="rgb(0,0,0)" stroke="none" paint-order="stroke fill markers" d=" M 0.028 0.169 L 0.18 -0.437 Q 0.209 -0.551 0.292 -0.631 Q 0.37 -0.705 0.456 -0.705 Q 0.539 -0.705 0.5750000000000001 -0.639 Q 0.59 -0.611 0.59 -0.577 Q 0.59 -0.502 0.528 -0.439 Q 0.507 -0.418 0.482 -0.403 Q 0.549 -0.357 0.549 -0.264 Q 0.549 -0.161 0.46900000000000003 -0.076 Q 0.392 0.005 0.296 0.012 L 0.28300000000000003 0.012 Q 0.186 0.012 0.14100000000000001 -0.063 Q 0.129 -0.083 0.123 -0.105 L 0.048 0.188 L 0.047 0.19 Q 0.043000000000000003 0.194 0.037 0.194 Q 0.025 0.194 0.025 0.184 Q 0.025 0.181 0.028 0.169 M 0.328 -0.401 Q 0.34500000000000003 -0.395 0.371 -0.395 Q 0.401 -0.395 0.419 -0.403 Q 0.406 -0.40900000000000003 0.379 -0.40900000000000003 Q 0.34400000000000003 -0.40900000000000003 0.328 -0.401 M 0.45 -0.421 Q 0.511 -0.467 0.525 -0.577 L 0.525 -0.578 L 0.525 -0.58 Q 0.527 -0.594 0.527 -0.602 Q 0.527 -0.673 0.46900000000000003 -0.682 Q 0.462 -0.683 0.455 -0.683 Q 0.372 -0.683 0.299 -0.606 Q 0.23 -0.534 0.2 -0.41600000000000004 L 0.154 -0.231 Q 0.14100000000000001 -0.179 0.14100000000000001 -0.156 Q 0.14100000000000001 -0.074 0.2 -0.034 Q 0.234 -0.01 0.281 -0.01 Q 0.359 -0.01 0.41500000000000004 -0.094 Q 0.422 -0.10300000000000001 0.427 -0.113 Q 0.462 -0.179 0.47400000000000003 -0.274 Q 0.47600000000000003 -0.291 0.47600000000000003 -0.302 Q 0.47600000000000003 -0.355 0.446 -0.386 Q 0.41400000000000003 -0.373 0.371 -0.373 Q 0.303 -0.373 0.303 -0.399 Q 0.303 -0.431 0.381 -0.431 Q 0.422 -0.431 0.45 -0.421 Z"/></g><g transform="translate(23.896150000000002,19.867779999999996) scale(0.7,0.7)"><path fill="rgb(0,0,0)" stroke="none" paint-order="stroke fill markers" d=" M 0.46 -0.32 Q 0.46 -0.17400000000000002 0.423 -0.094 Q 0.364 0.018000000000000002 0.249 0.022 Q 0.158 0.022 0.10300000000000001 -0.05 Q 0.092 -0.063 0.084 -0.079 Q 0.039 -0.162 0.039 -0.32 Q 0.039 -0.467 0.076 -0.547 Q 0.126 -0.659 0.23800000000000002 -0.666 L 0.25 -0.666 Q 0.339 -0.666 0.395 -0.595 L 0.395 -0.594 Q 0.40900000000000003 -0.5760000000000001 0.42 -0.554 Q 0.46 -0.46900000000000003 0.46 -0.32 M 0.249 0 L 0.249 0 Q 0.312 0 0.34600000000000003 -0.061 Q 0.36 -0.088 0.366 -0.125 Q 0.377 -0.189 0.377 -0.332 Q 0.377 -0.47100000000000003 0.367 -0.527 Q 0.34900000000000003 -0.622 0.275 -0.641 Q 0.262 -0.644 0.249 -0.644 Q 0.179 -0.644 0.147 -0.5740000000000001 Q 0.136 -0.55 0.13 -0.516 Q 0.122 -0.462 0.122 -0.332 Q 0.122 -0.181 0.133 -0.121 Q 0.151 -0.025 0.221 -0.004 Q 0.23500000000000001 0 0.249 0 Z"/></g><g transform="translate(24.246151400000002,19.638334999999998)"><path fill="rgb(0,0,0)" stroke="none" paint-order="stroke fill markers" d=" M 0.354 -0.623 L 0.354 -0.047 L 0.494 -0.047 L 0.494 0 Q 0.45 -0.003 0.295 -0.003 Q 0.14 -0.003 0.096 0 L 0.096 -0.047 L 0.23500000000000001 -0.047 L 0.23500000000000001 -0.5640000000000001 Q 0.17300000000000001 -0.544 0.105 -0.544 L 0.085 -0.544 L 0.085 -0.591 L 0.105 -0.591 Q 0.229 -0.591 0.306 -0.648 Q 0.315 -0.655 0.328 -0.655 Q 0.34600000000000003 -0.655 0.35000000000000003 -0.6485 Q 0.354 -0.642 0.354 -0.623 Z"/></g></g><g transform="scale(25,25)"><g transform="translate(26.130696999999998,22.084444)"><path fill="rgb(0,0,0)" stroke="none" paint-order="stroke fill markers" d=" M 0.43 -0.559 L 0.069 -0.559 L 0.069 -0.59 L 0.43 -0.59 L 0.43 -0.559 Z"/></g><g transform="translate(26.08,22.084443999999998)"><path fill="rgb(0,0,0)" stroke="none" paint-order="stroke fill markers" d=" M 0.486 -0.381 L 0.39 0.001 Q 0.366 0.099 0.28300000000000003 0.16 Q 0.222 0.20500000000000002 0.156 0.20500000000000002 Q 0.089 0.20500000000000002 0.061 0.159 Q 0.05 0.14 0.05 0.11800000000000001 Q 0.05 0.067 0.091 0.055 Q 0.099 0.053 0.106 0.053 Q 0.138 0.053 0.14200000000000002 0.081 Q 0.14300000000000002 0.084 0.14300000000000002 0.088 Q 0.14300000000000002 0.111 0.123 0.129 Q 0.109 0.14100000000000001 0.08 0.14100000000000001 Q 0.098 0.183 0.156 0.183 Q 0.218 0.183 0.266 0.12 Q 0.305 0.068 0.328 -0.021 Q 0.329 -0.025 0.331 -0.034 Q 0.28600000000000003 0.011 0.23 0.011 Q 0.15 0.011 0.121 -0.048 Q 0.108 -0.074 0.108 -0.108 Q 0.108 -0.163 0.161 -0.305 Q 0.163 -0.311 0.166 -0.318 Q 0.183 -0.364 0.183 -0.388 Q 0.183 -0.42 0.158 -0.42 Q 0.10300000000000001 -0.42 0.068 -0.329 L 0.068 -0.328 Q 0.062 -0.313 0.057 -0.296 Q 0.046 -0.279 0.041 -0.278 Q 0.029 -0.278 0.029 -0.28800000000000003 Q 0.029 -0.306 0.05 -0.35100000000000003 Q 0.094 -0.442 0.161 -0.442 Q 0.214 -0.442 0.23500000000000001 -0.397 Q 0.243 -0.38 0.243 -0.36 Q 0.243 -0.339 0.223 -0.28800000000000003 Q 0.17200000000000001 -0.156 0.17200000000000001 -0.092 Q 0.17200000000000001 -0.011 0.234 -0.011 Q 0.292 -0.011 0.335 -0.073 Q 0.34500000000000003 -0.088 0.34700000000000003 -0.096 L 0.392 -0.276 Q 0.399 -0.309 0.41200000000000003 -0.356 Q 0.422 -0.399 0.426 -0.41000000000000003 Q 0.439 -0.431 0.461 -0.431 Q 0.486 -0.426 0.49 -0.404 Q 0.49 -0.395 0.486 -0.381 Z"/></g><g transform="translate(26.570282,22.084444)"><path fill="rgb(0,0,0)" stroke="none" paint-order="stroke fill markers" d=" M 0.354 -0.623 L 0.354 -0.047 L 0.494 -0.047 L 0.494 0 Q 0.45 -0.003 0.295 -0.003 Q 0.14 -0.003 0.096 0 L 0.096 -0.047 L 0.23500000000000001 -0.047 L 0.23500000000000001 -0.5640000000000001 Q 0.17300000000000001 -0.544 0.105 -0.544 L 0.085 -0.544 L 0.085 -0.591 L 0.105 -0.591 Q 0.229 -0.591 0.306 -0.648 Q 0.315 -0.655 0.328 -0.655 Q 0.34600000000000003 -0.655 0.35000000000000003 -0.6485 Q 0.354 -0.642 0.354 -0.623 Z"/></g></g><g transform="scale(25,25)"><g transform="translate(37.426494000000005,7.974445)"><path fill="rgb(0,0,0)" stroke="none" paint-order="stroke fill markers" d=" M 0.25 -0.6940000000000001 L 0.383 -0.558 L 0.365 -0.54 L 0.25 -0.642 L 0.134 -0.54 L 0.116 -0.558 L 0.25 -0.6940000000000001 Z"/></g><g transform="translate(37.36,7.974445)"><path fill="rgb(0,0,0)" stroke="none" paint-order="stroke fill markers" d=" M 0.14100000000000001 -0.227 L 0.14100000000000001 -0.227 Q 0.076 -0.195 0.057 -0.137 Q 0.052000000000000005 -0.123 0.052000000000000005 -0.11 Q 0.052000000000000005 -0.036000000000000004 0.166 -0.025 Q 0.182 -0.024 0.198 -0.024 Q 0.316 -0.024 0.35100000000000003 -0.077 Q 0.353 -0.079 0.356 -0.084 Q 0.361 -0.091 0.366 -0.091 Q 0.377 -0.091 0.377 -0.081 Q 0.377 -0.065 0.34700000000000003 -0.036000000000000004 Q 0.28600000000000003 0.022 0.189 0.022 Q 0.08700000000000001 0.022 0.044 -0.043000000000000003 Q 0.026000000000000002 -0.07100000000000001 0.026000000000000002 -0.10400000000000001 Q 0.026000000000000002 -0.164 0.081 -0.213 Q 0.097 -0.228 0.117 -0.23900000000000002 Q 0.077 -0.269 0.077 -0.31 Q 0.077 -0.369 0.15 -0.41300000000000003 Q 0.217 -0.453 0.3 -0.453 Q 0.365 -0.453 0.41100000000000003 -0.419 Q 0.429 -0.406 0.429 -0.396 Q 0.429 -0.378 0.41100000000000003 -0.371 Q 0.406 -0.369 0.402 -0.369 Q 0.396 -0.369 0.382 -0.379 Q 0.342 -0.40700000000000003 0.29 -0.40700000000000003 Q 0.193 -0.40700000000000003 0.136 -0.367 Q 0.10200000000000001 -0.342 0.10200000000000001 -0.31 Q 0.10200000000000001 -0.273 0.14200000000000002 -0.252 Q 0.183 -0.271 0.23500000000000001 -0.271 Q 0.306 -0.271 0.308 -0.244 Q 0.308 -0.213 0.227 -0.213 Q 0.17400000000000002 -0.213 0.14100000000000001 -0.227 M 0.17400000000000002 -0.24 Q 0.193 -0.23500000000000001 0.227 -0.23500000000000001 Q 0.265 -0.23500000000000001 0.28200000000000003 -0.243 Q 0.26 -0.249 0.23500000000000001 -0.249 Q 0.2 -0.249 0.17400000000000002 -0.24 Z"/></g></g><g transform="scale(35,35)"><g transform="translate(5.942857142857143,19.92142857142857)"><path fill="rgb(0,0,0)" stroke="none" paint-order="stroke fill markers" d=" M 0.385 -0.557 L 0.385 -0.557 L 0.353 -0.428 Q 0.325 -0.315 0.254 -0.14200000000000002 Q 0.181 0.03 0.127 0.048 Q 0.12 0.05 0.114 0.05 Q 0.088 0.05 0.059000000000000004 0.035 Q 0.028 0.019 0.027 -0.002 Q 0.027 -0.034 0.048 -0.064 Q 0.057 -0.075 0.063 -0.075 Q 0.066 -0.075 0.07200000000000001 -0.07 Q 0.10300000000000001 -0.045 0.14400000000000002 -0.042 Q 0.186 -0.042 0.254 -0.225 L 0.276 -0.28600000000000003 Q 0.338 -0.459 0.365 -0.651 Q 0.369 -0.673 0.381 -0.683 L 0.382 -0.684 Q 0.383 -0.685 0.385 -0.686 Q 0.41200000000000003 -0.705 0.429 -0.705 Q 0.44 -0.705 0.442 -0.6950000000000001 L 0.442 -0.6940000000000001 L 0.442 -0.6940000000000001 Q 0.442 -0.6910000000000001 0.443 -0.685 Q 0.515 -0.273 0.591 -0.13 Q 0.686 -0.222 0.791 -0.34400000000000003 L 1.074 -0.68 Q 1.095 -0.704 1.099 -0.704 Q 1.107 -0.704 1.107 -0.6890000000000001 Q 1.107 -0.686 1.105 -0.672 Q 1.067 -0.512 1.041 -0.266 Q 1.032 -0.179 1.032 -0.134 Q 1.032 -0.054 1.043 -0.038 Q 1.05 -0.027 1.063 -0.026000000000000002 Q 1.088 -0.042 1.107 -0.042 Q 1.116 -0.042 1.116 -0.035 Q 1.116 -0.018000000000000002 1.069 0.007 Q 1.049 0.017 1.03 0.023 Q 1.012 0.029 0.998 0.029 Q 0.96 0.029 0.9520000000000001 -0.006 Q 0.9470000000000001 -0.025 0.9470000000000001 -0.092 Q 0.9470000000000001 -0.217 0.99 -0.47500000000000003 L 0.997 -0.517 L 0.778 -0.26 Q 0.67 -0.135 0.5750000000000001 -0.043000000000000003 Q 0.5650000000000001 -0.034 0.558 -0.034 Q 0.55 -0.034 0.546 -0.039 Q 0.501 -0.115 0.47600000000000003 -0.193 Q 0.442 -0.294 0.41000000000000003 -0.442 L 0.386 -0.557 L 0.385 -0.557 Z"/></g><g transform="translate(7.143757142857143,19.92142857142857)"><path fill="rgb(0,0,0)" stroke="none" paint-order="stroke fill markers" d=" M 0.331 0.24 L 0.331 0.24 Q 0.331 0.25 0.321 0.25 Q 0.309 0.25 0.268 0.209 Q 0.20600000000000002 0.147 0.165 0.062 Q 0.099 -0.074 0.099 -0.25 Q 0.099 -0.419 0.162 -0.555 Q 0.214 -0.666 0.294 -0.733 Q 0.315 -0.75 0.321 -0.75 Q 0.331 -0.75 0.331 -0.74 Q 0.331 -0.735 0.318 -0.723 Q 0.157 -0.559 0.157 -0.25 Q 0.157 0.058 0.314 0.218 Q 0.331 0.23500000000000001 0.331 0.24 Z"/></g><g transform="translate(7.532647142857143,19.92142857142857)"><path fill="rgb(0,0,0)" stroke="none" paint-order="stroke fill markers" d=" M 0.485 -0.41100000000000003 L 0.647 -0.585 Q 0.666 -0.606 0.666 -0.621 Q 0.666 -0.648 0.626 -0.652 Q 0.614 -0.654 0.614 -0.663 Q 0.614 -0.683 0.633 -0.683 L 0.743 -0.68 L 0.744 -0.68 L 0.837 -0.683 L 0.838 -0.683 Q 0.851 -0.683 0.851 -0.672 Q 0.851 -0.655 0.837 -0.653 Q 0.835 -0.652 0.8290000000000001 -0.652 Q 0.759 -0.649 0.7020000000000001 -0.601 Q 0.6890000000000001 -0.59 0.552 -0.442 Q 0.519 -0.406 0.497 -0.384 Q 0.503 -0.368 0.626 -0.075 Q 0.639 -0.044 0.65 -0.038 L 0.651 -0.038 L 0.651 -0.038 L 0.651 -0.038 L 0.651 -0.038 L 0.652 -0.038 L 0.652 -0.037 Q 0.665 -0.032 0.712 -0.031 Q 0.73 -0.031 0.73 -0.019 Q 0.73 0 0.711 0 L 0.601 -0.003 L 0.6 -0.003 L 0.47500000000000003 0 L 0.47400000000000003 0 Q 0.459 0 0.459 -0.012 Q 0.459 -0.028 0.47400000000000003 -0.03 Q 0.47600000000000003 -0.031 0.47900000000000004 -0.031 Q 0.524 -0.036000000000000004 0.536 -0.056 Q 0.537 -0.058 0.537 -0.06 L 0.532 -0.074 L 0.431 -0.313 L 0.341 -0.215 L 0.23900000000000002 -0.107 Q 0.212 -0.078 0.212 -0.062 Q 0.212 -0.035 0.252 -0.031 Q 0.264 -0.031 0.264 -0.02 Q 0.264 0 0.246 0 L 0.135 -0.003 L 0.134 -0.003 L 0.041 0 L 0.04 0 Q 0.027 0 0.027 -0.011 Q 0.027 -0.028 0.041 -0.03 Q 0.043000000000000003 -0.031 0.049 -0.031 Q 0.134 -0.036000000000000004 0.196 -0.10300000000000001 L 0.209 -0.114 L 0.42 -0.341 L 0.302 -0.62 Q 0.293 -0.641 0.278 -0.647 L 0.277 -0.647 L 0.277 -0.647 L 0.277 -0.647 Q 0.262 -0.652 0.227 -0.652 Q 0.20500000000000002 -0.652 0.20400000000000001 -0.663 Q 0.20400000000000001 -0.683 0.222 -0.683 L 0.333 -0.68 L 0.334 -0.68 L 0.459 -0.683 L 0.46 -0.683 Q 0.47500000000000003 -0.683 0.47500000000000003 -0.671 Q 0.47500000000000003 -0.654 0.455 -0.652 Q 0.40900000000000003 -0.648 0.396 -0.623 L 0.401 -0.61 L 0.485 -0.41100000000000003 Z"/></g><g transform="translate(8.439592142857142,19.92142857142857)"><path fill="rgb(0,0,0)" stroke="none" paint-order="stroke fill markers" d=" M 0.289 -0.25 L 0.289 -0.25 Q 0.289 -0.081 0.226 0.055 Q 0.17400000000000002 0.166 0.094 0.233 Q 0.073 0.25 0.067 0.25 Q 0.057 0.25 0.057 0.24 Q 0.057 0.23500000000000001 0.07 0.223 Q 0.231 0.059000000000000004 0.231 -0.25 Q 0.231 -0.555 0.081 -0.712 L 0.076 -0.717 Q 0.057 -0.735 0.057 -0.74 Q 0.057 -0.75 0.067 -0.75 Q 0.079 -0.75 0.12 -0.709 Q 0.182 -0.647 0.223 -0.562 Q 0.289 -0.426 0.289 -0.25 Z"/></g></g><path fill="rgb(255,255,255)" stroke="none" paint-order="stroke fill markers" d=" M 741 264 L 843 264 L 843 298 L 741 298 L 741 264 Z" fill-opacity="1"/><g transform="scale(19,19)"><g transform="translate(39.36842105263158,15.013157894736842)"><path fill="rgb(0,51,204)" stroke="none" paint-order="stroke fill markers" d=" M 0.20600000000000002 -0.705 L 0.20600000000000002 0.20400000000000001 Q 0.20600000000000002 0.249 0.17500000000000002 0.249 Q 0.145 0.249 0.145 0.20500000000000002 L 0.145 -0.706 Q 0.145 -0.75 0.17500000000000002 -0.75 Q 0.20600000000000002 -0.75 0.20600000000000002 -0.705 M 0.429 -0.706 L 0.429 0.20500000000000002 Q 0.429 0.249 0.399 0.249 Q 0.368 0.249 0.368 0.20400000000000001 L 0.368 -0.705 Q 0.368 -0.75 0.399 -0.75 Q 0.429 -0.75 0.429 -0.706 Z"/></g><g transform="translate(39.943418052631586,15.013157894736842)"><path fill="rgb(0,51,204)" stroke="none" paint-order="stroke fill markers" d=" M 0.734 -0.6 L 0.429 -0.274 L 0.373 -0.049 Q 0.41500000000000004 -0.047 0.434 -0.047 Q 0.451 -0.047 0.458 -0.0465 Q 0.465 -0.046 0.47050000000000003 -0.042 Q 0.47600000000000003 -0.038 0.47600000000000003 -0.029 Q 0.47600000000000003 -0.016 0.47000000000000003 -0.009000000000000001 Q 0.464 -0.002 0.459 -0.001 Q 0.454 0 0.447 0 Q 0.43 0 0.3705 -0.0015 Q 0.311 -0.003 0.294 -0.003 Q 0.28200000000000003 -0.003 0.2575 -0.0025 Q 0.233 -0.002 0.221 -0.002 Q 0.20800000000000002 -0.002 0.183 -0.001 Q 0.158 0 0.145 0 Q 0.123 0 0.123 -0.018000000000000002 Q 0.123 -0.035 0.133 -0.043000000000000003 Q 0.137 -0.047 0.169 -0.047 Q 0.20400000000000001 -0.047 0.221 -0.049 Q 0.234 -0.05 0.23750000000000002 -0.0525 Q 0.241 -0.055 0.244 -0.068 L 0.296 -0.274 L 0.14400000000000002 -0.623 Q 0.14 -0.632 0.137 -0.634 Q 0.134 -0.636 0.124 -0.638 Q 0.11 -0.639 0.085 -0.639 Q 0.068 -0.639 0.0615 -0.6395000000000001 Q 0.055 -0.64 0.0495 -0.644 Q 0.044 -0.648 0.044 -0.657 Q 0.044 -0.67 0.0495 -0.677 Q 0.055 -0.684 0.059500000000000004 -0.685 Q 0.064 -0.686 0.07200000000000001 -0.686 Q 0.083 -0.686 0.1075 -0.685 Q 0.132 -0.684 0.14400000000000002 -0.684 Q 0.155 -0.684 0.178 -0.6835 Q 0.201 -0.683 0.213 -0.683 Q 0.23 -0.683 0.2905 -0.6845 Q 0.35100000000000003 -0.686 0.368 -0.686 Q 0.39 -0.686 0.39 -0.668 Q 0.39 -0.649 0.3815 -0.644 Q 0.373 -0.639 0.356 -0.639 Q 0.328 -0.639 0.3 -0.635 L 0.428 -0.342 L 0.6990000000000001 -0.632 Q 0.678 -0.639 0.654 -0.639 Q 0.627 -0.639 0.627 -0.657 Q 0.627 -0.686 0.654 -0.686 Q 0.672 -0.686 0.709 -0.6845 Q 0.746 -0.683 0.765 -0.683 Q 0.78 -0.683 0.8115 -0.6845 Q 0.843 -0.686 0.857 -0.686 Q 0.866 -0.686 0.8705 -0.68 Q 0.875 -0.674 0.875 -0.668 Q 0.875 -0.655 0.8695 -0.648 Q 0.864 -0.641 0.859 -0.64 Q 0.854 -0.639 0.846 -0.639 Q 0.8 -0.638 0.7765 -0.629 Q 0.753 -0.62 0.734 -0.6 Z"/></g><g transform="translate(41.09577394152047,15.013157894736842)"><path fill="rgb(0,51,204)" stroke="none" paint-order="stroke fill markers" d=" M 0.752 -0.22 L 0.14100000000000001 -0.22 Q 0.096 -0.22 0.096 -0.251 Q 0.096 -0.281 0.14100000000000001 -0.281 L 0.752 -0.281 Q 0.797 -0.281 0.797 -0.25 Q 0.797 -0.22 0.752 -0.22 Z"/></g><g transform="translate(42.22007633040936,15.013157894736842)"><path fill="rgb(0,51,204)" stroke="none" paint-order="stroke fill markers" d=" M 0.494 -0.555 L 0.08 -0.555 L 0.08 -0.607 L 0.494 -0.607 L 0.494 -0.555 Z"/></g><g transform="translate(42.21243683040936,15.013157894736842)"><path fill="rgb(0,51,204)" stroke="none" paint-order="stroke fill markers" d=" M 0.577 -0.377 L 0.483 0.001 Q 0.461 0.09 0.3785 0.146 Q 0.296 0.202 0.20500000000000002 0.202 Q 0.145 0.202 0.108 0.178 Q 0.07100000000000001 0.154 0.07100000000000001 0.115 Q 0.07100000000000001 0.083 0.0925 0.061 Q 0.114 0.039 0.14300000000000002 0.039 Q 0.162 0.039 0.177 0.05 Q 0.192 0.061 0.192 0.085 Q 0.192 0.132 0.14400000000000002 0.152 Q 0.167 0.166 0.20500000000000002 0.166 Q 0.26 0.166 0.3085 0.116 Q 0.357 0.066 0.377 -0.022 Q 0.334 0.008 0.281 0.008 Q 0.254 0.008 0.2305 0.0035 Q 0.20700000000000002 -0.001 0.1805 -0.0135 Q 0.154 -0.026000000000000002 0.138 -0.054 Q 0.122 -0.082 0.122 -0.122 Q 0.122 -0.157 0.1355 -0.2005 Q 0.149 -0.244 0.182 -0.33 Q 0.199 -0.375 0.199 -0.395 Q 0.199 -0.405 0.196 -0.41000000000000003 Q 0.193 -0.41500000000000004 0.19 -0.41550000000000004 Q 0.187 -0.41600000000000004 0.182 -0.41600000000000004 Q 0.17400000000000002 -0.41600000000000004 0.1635 -0.41200000000000003 Q 0.153 -0.40800000000000003 0.1375 -0.3975 Q 0.122 -0.387 0.106 -0.3605 Q 0.09 -0.334 0.079 -0.295 Q 0.075 -0.28200000000000003 0.056 -0.28200000000000003 Q 0.032 -0.28200000000000003 0.032 -0.296 Q 0.032 -0.306 0.042 -0.3295 Q 0.052000000000000005 -0.353 0.07 -0.3815 Q 0.088 -0.41000000000000003 0.11950000000000001 -0.431 Q 0.151 -0.452 0.188 -0.452 Q 0.233 -0.452 0.267 -0.4275 Q 0.301 -0.403 0.301 -0.362 Q 0.301 -0.34600000000000003 0.28800000000000003 -0.312 Q 0.229 -0.16 0.229 -0.101 Q 0.229 -0.028 0.289 -0.028 Q 0.319 -0.028 0.357 -0.052000000000000005 Q 0.36 -0.054 0.3675 -0.06 Q 0.375 -0.066 0.3845 -0.078 Q 0.394 -0.09 0.396 -0.1 Q 0.403 -0.127 0.438 -0.266 L 0.464 -0.37 Q 0.468 -0.385 0.47100000000000003 -0.394 Q 0.47400000000000003 -0.403 0.482 -0.4165 Q 0.49 -0.43 0.5035000000000001 -0.437 Q 0.517 -0.444 0.535 -0.444 Q 0.557 -0.444 0.5695 -0.431 Q 0.582 -0.418 0.582 -0.4 Q 0.582 -0.395 0.577 -0.377 Z"/></g><g transform="translate(42.80271283040936,15.013157894736842)"><path fill="rgb(0,51,204)" stroke="none" paint-order="stroke fill markers" d=" M 0.354 -0.623 L 0.354 -0.047 L 0.494 -0.047 L 0.494 0 Q 0.45 -0.003 0.295 -0.003 Q 0.14 -0.003 0.096 0 L 0.096 -0.047 L 0.23500000000000001 -0.047 L 0.23500000000000001 -0.5640000000000001 Q 0.17300000000000001 -0.544 0.105 -0.544 L 0.085 -0.544 L 0.085 -0.591 L 0.105 -0.591 Q 0.229 -0.591 0.306 -0.648 Q 0.315 -0.655 0.328 -0.655 Q 0.34600000000000003 -0.655 0.35000000000000003 -0.6485 Q 0.354 -0.642 0.354 -0.623 Z"/></g><g transform="translate(43.377709830409366,15.013157894736842)"><path fill="rgb(0,51,204)" stroke="none" paint-order="stroke fill markers" d=" M 0.20600000000000002 -0.705 L 0.20600000000000002 0.20400000000000001 Q 0.20600000000000002 0.249 0.17500000000000002 0.249 Q 0.145 0.249 0.145 0.20500000000000002 L 0.145 -0.706 Q 0.145 -0.75 0.17500000000000002 -0.75 Q 0.20600000000000002 -0.75 0.20600000000000002 -0.705 M 0.429 -0.706 L 0.429 0.20500000000000002 Q 0.429 0.249 0.399 0.249 Q 0.368 0.249 0.368 0.20400000000000001 L 0.368 -0.705 Q 0.368 -0.75 0.399 -0.75 Q 0.429 -0.75 0.429 -0.706 Z"/></g></g><path fill="rgb(255,255,255)" stroke="none" paint-order="stroke fill markers" d=" M 814 517 L 910 517 L 910 566 L 814 566 L 814 517 Z" fill-opacity="1"/><g transform="scale(19,19)"><g transform="translate(43.21052631578947,27.57894736842105)"><path fill="rgb(0,51,204)" stroke="none" paint-order="stroke fill markers" d=" M 0.14501953125 0.60107421875 L 0.14501953125 -0.0009765625 Q 0.1484375 -0.02197265625 0.1669921875 -0.02197265625 Q 0.1845703125 -0.02197265625 0.18798828125 -0.0009765625 L 0.18798828125 0.60107421875 Q 0.18408203125 0.6220703125 0.1669921875 0.6220703125 Q 0.14892578125 0.6220703125 0.14501953125 0.60107421875 M 0.3671875 0.60107421875 L 0.3671875 -0.0009765625 Q 0.37060546875 -0.02197265625 0.38916015625 -0.02197265625 Q 0.40673828125 -0.02197265625 0.41015625 -0.0009765625 L 0.41015625 0.60107421875 Q 0.40625 0.6220703125 0.38916015625 0.6220703125 Q 0.37109375 0.6220703125 0.3671875 0.60107421875 Z"/></g><g transform="translate(43.21052631578947,28.178953368421052)"><path fill="rgb(0,51,204)" stroke="none" paint-order="stroke fill markers" d=" M 0.14501953125 0.60107421875 L 0.14501953125 -0.0009765625 Q 0.1484375 -0.02197265625 0.1669921875 -0.02197265625 Q 0.1845703125 -0.02197265625 0.18798828125 -0.0009765625 L 0.18798828125 0.60107421875 Q 0.18408203125 0.6220703125 0.1669921875 0.6220703125 Q 0.14892578125 0.6220703125 0.14501953125 0.60107421875 M 0.3671875 0.60107421875 L 0.3671875 -0.0009765625 Q 0.37060546875 -0.02197265625 0.38916015625 -0.02197265625 Q 0.40673828125 -0.02197265625 0.41015625 -0.0009765625 L 0.41015625 0.60107421875 Q 0.40625 0.6220703125 0.38916015625 0.6220703125 Q 0.37109375 0.6220703125 0.3671875 0.60107421875 Z"/></g><g transform="translate(43.21052631578947,28.778959368421052)"><path fill="rgb(0,51,204)" stroke="none" paint-order="stroke fill markers" d=" M 0.14501953125 0.60107421875 L 0.14501953125 -0.0009765625 Q 0.1484375 -0.02197265625 0.1669921875 -0.02197265625 Q 0.1845703125 -0.02197265625 0.18798828125 -0.0009765625 L 0.18798828125 0.60107421875 Q 0.18408203125 0.6220703125 0.1669921875 0.6220703125 Q 0.14892578125 0.6220703125 0.14501953125 0.60107421875 M 0.3671875 0.60107421875 L 0.3671875 -0.0009765625 Q 0.37060546875 -0.02197265625 0.38916015625 -0.02197265625 Q 0.40673828125 -0.02197265625 0.41015625 -0.0009765625 L 0.41015625 0.60107421875 Q 0.40625 0.6220703125 0.38916015625 0.6220703125 Q 0.37109375 0.6220703125 0.3671875 0.60107421875 Z"/></g><g transform="translate(43.81587431578947,28.48729036842105)"><path fill="rgb(0,51,204)" stroke="none" paint-order="stroke fill markers" d=" M 0.28700000000000003 -0.6940000000000001 L 0.444 -0.5670000000000001 L 0.41600000000000004 -0.53 L 0.28700000000000003 -0.612 L 0.158 -0.529 L 0.13 -0.5680000000000001 L 0.28700000000000003 -0.6940000000000001 Z"/></g><g transform="translate(43.76608331578947,28.72895636842105)"><path fill="rgb(0,51,204)" stroke="none" paint-order="stroke fill markers" d=" M 0.734 -0.6 L 0.429 -0.274 L 0.373 -0.049 Q 0.41500000000000004 -0.047 0.434 -0.047 Q 0.451 -0.047 0.458 -0.0465 Q 0.465 -0.046 0.47050000000000003 -0.042 Q 0.47600000000000003 -0.038 0.47600000000000003 -0.029 Q 0.47600000000000003 -0.016 0.47000000000000003 -0.009000000000000001 Q 0.464 -0.002 0.459 -0.001 Q 0.454 0 0.447 0 Q 0.43 0 0.3705 -0.0015 Q 0.311 -0.003 0.294 -0.003 Q 0.28200000000000003 -0.003 0.2575 -0.0025 Q 0.233 -0.002 0.221 -0.002 Q 0.20800000000000002 -0.002 0.183 -0.001 Q 0.158 0 0.145 0 Q 0.123 0 0.123 -0.018000000000000002 Q 0.123 -0.035 0.133 -0.043000000000000003 Q 0.137 -0.047 0.169 -0.047 Q 0.20400000000000001 -0.047 0.221 -0.049 Q 0.234 -0.05 0.23750000000000002 -0.0525 Q 0.241 -0.055 0.244 -0.068 L 0.296 -0.274 L 0.14400000000000002 -0.623 Q 0.14 -0.632 0.137 -0.634 Q 0.134 -0.636 0.124 -0.638 Q 0.11 -0.639 0.085 -0.639 Q 0.068 -0.639 0.0615 -0.6395000000000001 Q 0.055 -0.64 0.0495 -0.644 Q 0.044 -0.648 0.044 -0.657 Q 0.044 -0.67 0.0495 -0.677 Q 0.055 -0.684 0.059500000000000004 -0.685 Q 0.064 -0.686 0.07200000000000001 -0.686 Q 0.083 -0.686 0.1075 -0.685 Q 0.132 -0.684 0.14400000000000002 -0.684 Q 0.155 -0.684 0.178 -0.6835 Q 0.201 -0.683 0.213 -0.683 Q 0.23 -0.683 0.2905 -0.6845 Q 0.35100000000000003 -0.686 0.368 -0.686 Q 0.39 -0.686 0.39 -0.668 Q 0.39 -0.649 0.3815 -0.644 Q 0.373 -0.639 0.356 -0.639 Q 0.328 -0.639 0.3 -0.635 L 0.428 -0.342 L 0.6990000000000001 -0.632 Q 0.678 -0.639 0.654 -0.639 Q 0.627 -0.639 0.627 -0.657 Q 0.627 -0.686 0.654 -0.686 Q 0.672 -0.686 0.709 -0.6845 Q 0.746 -0.683 0.765 -0.683 Q 0.78 -0.683 0.8115 -0.6845 Q 0.843 -0.686 0.857 -0.686 Q 0.866 -0.686 0.8705 -0.68 Q 0.875 -0.674 0.875 -0.668 Q 0.875 -0.655 0.8695 -0.648 Q 0.864 -0.641 0.859 -0.64 Q 0.854 -0.639 0.846 -0.639 Q 0.8 -0.638 0.7765 -0.629 Q 0.753 -0.62 0.734 -0.6 Z"/></g><g transform="translate(44.66288520467836,28.728956368421052)"><path fill="rgb(0,51,204)" stroke="none" paint-order="stroke fill markers" d=" M 0.752 -0.22 L 0.14100000000000001 -0.22 Q 0.096 -0.22 0.096 -0.251 Q 0.096 -0.281 0.14100000000000001 -0.281 L 0.752 -0.281 Q 0.797 -0.281 0.797 -0.25 Q 0.797 -0.22 0.752 -0.22 Z"/></g><g transform="translate(45.78718759356725,28.728956368421052)"><path fill="rgb(0,51,204)" stroke="none" paint-order="stroke fill markers" d=" M 0.494 -0.555 L 0.08 -0.555 L 0.08 -0.607 L 0.494 -0.607 L 0.494 -0.555 Z"/></g><g transform="translate(45.77954809356725,28.728956368421052)"><path fill="rgb(0,51,204)" stroke="none" paint-order="stroke fill markers" d=" M 0.577 -0.377 L 0.483 0.001 Q 0.461 0.09 0.3785 0.146 Q 0.296 0.202 0.20500000000000002 0.202 Q 0.145 0.202 0.108 0.178 Q 0.07100000000000001 0.154 0.07100000000000001 0.115 Q 0.07100000000000001 0.083 0.0925 0.061 Q 0.114 0.039 0.14300000000000002 0.039 Q 0.162 0.039 0.177 0.05 Q 0.192 0.061 0.192 0.085 Q 0.192 0.132 0.14400000000000002 0.152 Q 0.167 0.166 0.20500000000000002 0.166 Q 0.26 0.166 0.3085 0.116 Q 0.357 0.066 0.377 -0.022 Q 0.334 0.008 0.281 0.008 Q 0.254 0.008 0.2305 0.0035 Q 0.20700000000000002 -0.001 0.1805 -0.0135 Q 0.154 -0.026000000000000002 0.138 -0.054 Q 0.122 -0.082 0.122 -0.122 Q 0.122 -0.157 0.1355 -0.2005 Q 0.149 -0.244 0.182 -0.33 Q 0.199 -0.375 0.199 -0.395 Q 0.199 -0.405 0.196 -0.41000000000000003 Q 0.193 -0.41500000000000004 0.19 -0.41550000000000004 Q 0.187 -0.41600000000000004 0.182 -0.41600000000000004 Q 0.17400000000000002 -0.41600000000000004 0.1635 -0.41200000000000003 Q 0.153 -0.40800000000000003 0.1375 -0.3975 Q 0.122 -0.387 0.106 -0.3605 Q 0.09 -0.334 0.079 -0.295 Q 0.075 -0.28200000000000003 0.056 -0.28200000000000003 Q 0.032 -0.28200000000000003 0.032 -0.296 Q 0.032 -0.306 0.042 -0.3295 Q 0.052000000000000005 -0.353 0.07 -0.3815 Q 0.088 -0.41000000000000003 0.11950000000000001 -0.431 Q 0.151 -0.452 0.188 -0.452 Q 0.233 -0.452 0.267 -0.4275 Q 0.301 -0.403 0.301 -0.362 Q 0.301 -0.34600000000000003 0.28800000000000003 -0.312 Q 0.229 -0.16 0.229 -0.101 Q 0.229 -0.028 0.289 -0.028 Q 0.319 -0.028 0.357 -0.052000000000000005 Q 0.36 -0.054 0.3675 -0.06 Q 0.375 -0.066 0.3845 -0.078 Q 0.394 -0.09 0.396 -0.1 Q 0.403 -0.127 0.438 -0.266 L 0.464 -0.37 Q 0.468 -0.385 0.47100000000000003 -0.394 Q 0.47400000000000003 -0.403 0.482 -0.4165 Q 0.49 -0.43 0.5035000000000001 -0.437 Q 0.517 -0.444 0.535 -0.444 Q 0.557 -0.444 0.5695 -0.431 Q 0.582 -0.418 0.582 -0.4 Q 0.582 -0.395 0.577 -0.377 Z"/></g><g transform="translate(46.36982409356725,28.728956368421052)"><path fill="rgb(0,51,204)" stroke="none" paint-order="stroke fill markers" d=" M 0.354 -0.623 L 0.354 -0.047 L 0.494 -0.047 L 0.494 0 Q 0.45 -0.003 0.295 -0.003 Q 0.14 -0.003 0.096 0 L 0.096 -0.047 L 0.23500000000000001 -0.047 L 0.23500000000000001 -0.5640000000000001 Q 0.17300000000000001 -0.544 0.105 -0.544 L 0.085 -0.544 L 0.085 -0.591 L 0.105 -0.591 Q 0.229 -0.591 0.306 -0.648 Q 0.315 -0.655 0.328 -0.655 Q 0.34600000000000003 -0.655 0.35000000000000003 -0.6485 Q 0.354 -0.642 0.354 -0.623 Z"/></g><g transform="translate(46.94482109356725,27.57894736842105)"><path fill="rgb(0,51,204)" stroke="none" paint-order="stroke fill markers" d=" M 0.14501953125 0.60107421875 L 0.14501953125 -0.0009765625 Q 0.1484375 -0.02197265625 0.1669921875 -0.02197265625 Q 0.1845703125 -0.02197265625 0.18798828125 -0.0009765625 L 0.18798828125 0.60107421875 Q 0.18408203125 0.6220703125 0.1669921875 0.6220703125 Q 0.14892578125 0.6220703125 0.14501953125 0.60107421875 M 0.3671875 0.60107421875 L 0.3671875 -0.0009765625 Q 0.37060546875 -0.02197265625 0.38916015625 -0.02197265625 Q 0.40673828125 -0.02197265625 0.41015625 -0.0009765625 L 0.41015625 0.60107421875 Q 0.40625 0.6220703125 0.38916015625 0.6220703125 Q 0.37109375 0.6220703125 0.3671875 0.60107421875 Z"/></g><g transform="translate(46.94482109356725,28.178953368421052)"><path fill="rgb(0,51,204)" stroke="none" paint-order="stroke fill markers" d=" M 0.14501953125 0.60107421875 L 0.14501953125 -0.0009765625 Q 0.1484375 -0.02197265625 0.1669921875 -0.02197265625 Q 0.1845703125 -0.02197265625 0.18798828125 -0.0009765625 L 0.18798828125 0.60107421875 Q 0.18408203125 0.6220703125 0.1669921875 0.6220703125 Q 0.14892578125 0.6220703125 0.14501953125 0.60107421875 M 0.3671875 0.60107421875 L 0.3671875 -0.0009765625 Q 0.37060546875 -0.02197265625 0.38916015625 -0.02197265625 Q 0.40673828125 -0.02197265625 0.41015625 -0.0009765625 L 0.41015625 0.60107421875 Q 0.40625 0.6220703125 0.38916015625 0.6220703125 Q 0.37109375 0.6220703125 0.3671875 0.60107421875 Z"/></g><g transform="translate(46.94482109356725,28.778959368421052)"><path fill="rgb(0,51,204)" stroke="none" paint-order="stroke fill markers" d=" M 0.14501953125 0.60107421875 L 0.14501953125 -0.0009765625 Q 0.1484375 -0.02197265625 0.1669921875 -0.02197265625 Q 0.1845703125 -0.02197265625 0.18798828125 -0.0009765625 L 0.18798828125 0.60107421875 Q 0.18408203125 0.6220703125 0.1669921875 0.6220703125 Q 0.14892578125 0.6220703125 0.14501953125 0.60107421875 M 0.3671875 0.60107421875 L 0.3671875 -0.0009765625 Q 0.37060546875 -0.02197265625 0.38916015625 -0.02197265625 Q 0.40673828125 -0.02197265625 0.41015625 -0.0009765625 L 0.41015625 0.60107421875 Q 0.40625 0.6220703125 0.38916015625 0.6220703125 Q 0.37109375 0.6220703125 0.3671875 0.60107421875 Z"/></g></g><path fill="rgb(255,255,255)" stroke="none" paint-order="stroke fill markers" d=" M 862 285 L 1013 285 L 1013 334 L 862 334 L 862 285 Z" fill-opacity="1"/><g transform="scale(19,19)"><g transform="translate(45.73684210526316,16.51843005263158)"><path fill="rgb(0,51,204)" stroke="none" paint-order="stroke fill markers" d=" M 0.20600000000000002 -0.705 L 0.20600000000000002 0.20400000000000001 Q 0.20600000000000002 0.249 0.17500000000000002 0.249 Q 0.145 0.249 0.145 0.20500000000000002 L 0.145 -0.706 Q 0.145 -0.75 0.17500000000000002 -0.75 Q 0.20600000000000002 -0.75 0.20600000000000002 -0.705 M 0.429 -0.706 L 0.429 0.20500000000000002 Q 0.429 0.249 0.399 0.249 Q 0.368 0.249 0.368 0.20400000000000001 L 0.368 -0.705 Q 0.368 -0.75 0.399 -0.75 Q 0.429 -0.75 0.429 -0.706 Z"/></g><g transform="translate(46.28874960526316,16.51843005263158)"><path fill="rgb(0,51,204)" stroke="none" paint-order="stroke fill markers" d=" M 0.28700000000000003 -0.6940000000000001 L 0.444 -0.5670000000000001 L 0.41600000000000004 -0.53 L 0.28700000000000003 -0.612 L 0.158 -0.529 L 0.13 -0.5680000000000001 L 0.28700000000000003 -0.6940000000000001 Z"/></g><g transform="translate(46.31183910526316,16.51843005263158)"><path fill="rgb(0,51,204)" stroke="none" paint-order="stroke fill markers" d=" M 0.41200000000000003 -0.108 L 0.41600000000000004 -0.11 Q 0.419 -0.111 0.422 -0.111 Q 0.429 -0.111 0.434 -0.106 Q 0.439 -0.101 0.439 -0.094 Q 0.439 -0.08600000000000001 0.4275 -0.0695 Q 0.41600000000000004 -0.053 0.3935 -0.033 Q 0.371 -0.013000000000000001 0.326 0.002 Q 0.281 0.017 0.224 0.017 Q 0.129 0.017 0.082 -0.02 Q 0.035 -0.057 0.035 -0.113 Q 0.035 -0.182 0.1 -0.23600000000000002 Q 0.079 -0.26 0.079 -0.294 Q 0.079 -0.355 0.1465 -0.40800000000000003 Q 0.214 -0.461 0.333 -0.461 Q 0.386 -0.461 0.43 -0.441 Q 0.459 -0.427 0.47100000000000003 -0.41600000000000004 Q 0.483 -0.405 0.483 -0.392 Q 0.483 -0.375 0.4685 -0.361 Q 0.454 -0.34700000000000003 0.438 -0.34700000000000003 Q 0.429 -0.34700000000000003 0.41600000000000004 -0.355 Q 0.373 -0.385 0.314 -0.385 Q 0.226 -0.385 0.176 -0.3605 Q 0.126 -0.336 0.126 -0.294 Q 0.126 -0.274 0.138 -0.259 Q 0.191 -0.28400000000000003 0.265 -0.28400000000000003 Q 0.28200000000000003 -0.28400000000000003 0.2925 -0.28300000000000003 Q 0.303 -0.28200000000000003 0.3185 -0.279 Q 0.334 -0.276 0.342 -0.2665 Q 0.35000000000000003 -0.257 0.35000000000000003 -0.243 Q 0.35000000000000003 -0.188 0.247 -0.188 Q 0.17500000000000002 -0.188 0.134 -0.21 Q 0.109 -0.192 0.0965 -0.168 Q 0.084 -0.14400000000000002 0.084 -0.126 Q 0.084 -0.10200000000000001 0.098 -0.08750000000000001 Q 0.112 -0.073 0.1405 -0.0675 Q 0.169 -0.062 0.1885 -0.0605 Q 0.20800000000000002 -0.059000000000000004 0.241 -0.059000000000000004 Q 0.317 -0.059000000000000004 0.3565 -0.068 Q 0.396 -0.077 0.41200000000000003 -0.108 M 0.177 -0.23500000000000001 Q 0.20500000000000002 -0.224 0.248 -0.224 Q 0.271 -0.224 0.28300000000000003 -0.2265 Q 0.295 -0.229 0.298 -0.2325 Q 0.301 -0.23600000000000002 0.303 -0.243 Q 0.28800000000000003 -0.248 0.261 -0.248 Q 0.213 -0.248 0.177 -0.23500000000000001 Z"/></g><g transform="translate(46.84065710526316,16.51843005263158)"><path fill="rgb(0,51,204)" stroke="none" paint-order="stroke fill markers" d=" M 0.20600000000000002 -0.705 L 0.20600000000000002 0.20400000000000001 Q 0.20600000000000002 0.249 0.17500000000000002 0.249 Q 0.145 0.249 0.145 0.20500000000000002 L 0.145 -0.706 Q 0.145 -0.75 0.17500000000000002 -0.75 Q 0.20600000000000002 -0.75 0.20600000000000002 -0.705 M 0.429 -0.706 L 0.429 0.20500000000000002 Q 0.429 0.249 0.399 0.249 Q 0.368 0.249 0.368 0.20400000000000001 L 0.368 -0.705 Q 0.368 -0.75 0.399 -0.75 Q 0.429 -0.75 0.429 -0.706 Z"/></g><g transform="translate(47.69343271637427,16.51843005263158)"><path fill="rgb(0,51,204)" stroke="none" paint-order="stroke fill markers" d=" M 0.788 -0.332 L 0.105 -0.332 Q 0.064 -0.332 0.064 -0.362 Q 0.064 -0.393 0.11 -0.393 L 0.783 -0.393 Q 0.8290000000000001 -0.393 0.8290000000000001 -0.362 Q 0.8290000000000001 -0.332 0.788 -0.332 M 0.783 -0.108 L 0.11 -0.108 Q 0.064 -0.108 0.064 -0.139 Q 0.064 -0.169 0.105 -0.169 L 0.788 -0.169 Q 0.8290000000000001 -0.169 0.8290000000000001 -0.139 Q 0.8290000000000001 -0.108 0.783 -0.108 Z"/></g><g transform="translate(48.86565132748538,15.368421052631579)"><path fill="rgb(0,51,204)" stroke="none" paint-order="stroke fill markers" d=" M 0.14501953125 0.60107421875 L 0.14501953125 -0.0009765625 Q 0.1484375 -0.02197265625 0.1669921875 -0.02197265625 Q 0.1845703125 -0.02197265625 0.18798828125 -0.0009765625 L 0.18798828125 0.60107421875 Q 0.18408203125 0.6220703125 0.1669921875 0.6220703125 Q 0.14892578125 0.6220703125 0.14501953125 0.60107421875 M 0.3671875 0.60107421875 L 0.3671875 -0.0009765625 Q 0.37060546875 -0.02197265625 0.38916015625 -0.02197265625 Q 0.40673828125 -0.02197265625 0.41015625 -0.0009765625 L 0.41015625 0.60107421875 Q 0.40625 0.6220703125 0.38916015625 0.6220703125 Q 0.37109375 0.6220703125 0.3671875 0.60107421875 Z"/></g><g transform="translate(48.86565132748538,15.96842705263158)"><path fill="rgb(0,51,204)" stroke="none" paint-order="stroke fill markers" d=" M 0.14501953125 0.60107421875 L 0.14501953125 -0.0009765625 Q 0.1484375 -0.02197265625 0.1669921875 -0.02197265625 Q 0.1845703125 -0.02197265625 0.18798828125 -0.0009765625 L 0.18798828125 0.60107421875 Q 0.18408203125 0.6220703125 0.1669921875 0.6220703125 Q 0.14892578125 0.6220703125 0.14501953125 0.60107421875 M 0.3671875 0.60107421875 L 0.3671875 -0.0009765625 Q 0.37060546875 -0.02197265625 0.38916015625 -0.02197265625 Q 0.40673828125 -0.02197265625 0.41015625 -0.0009765625 L 0.41015625 0.60107421875 Q 0.40625 0.6220703125 0.38916015625 0.6220703125 Q 0.37109375 0.6220703125 0.3671875 0.60107421875 Z"/></g><g transform="translate(48.86565132748538,16.56843305263158)"><path fill="rgb(0,51,204)" stroke="none" paint-order="stroke fill markers" d=" M 0.14501953125 0.60107421875 L 0.14501953125 -0.0009765625 Q 0.1484375 -0.02197265625 0.1669921875 -0.02197265625 Q 0.1845703125 -0.02197265625 0.18798828125 -0.0009765625 L 0.18798828125 0.60107421875 Q 0.18408203125 0.6220703125 0.1669921875 0.6220703125 Q 0.14892578125 0.6220703125 0.14501953125 0.60107421875 M 0.3671875 0.60107421875 L 0.3671875 -0.0009765625 Q 0.37060546875 -0.02197265625 0.38916015625 -0.02197265625 Q 0.40673828125 -0.02197265625 0.41015625 -0.0009765625 L 0.41015625 0.60107421875 Q 0.40625 0.6220703125 0.38916015625 0.6220703125 Q 0.37109375 0.6220703125 0.3671875 0.60107421875 Z"/></g><g transform="translate(49.42120832748538,16.51843005263158)"><path fill="rgb(0,51,204)" stroke="none" paint-order="stroke fill markers" d=" M 0.734 -0.6 L 0.429 -0.274 L 0.373 -0.049 Q 0.41500000000000004 -0.047 0.434 -0.047 Q 0.451 -0.047 0.458 -0.0465 Q 0.465 -0.046 0.47050000000000003 -0.042 Q 0.47600000000000003 -0.038 0.47600000000000003 -0.029 Q 0.47600000000000003 -0.016 0.47000000000000003 -0.009000000000000001 Q 0.464 -0.002 0.459 -0.001 Q 0.454 0 0.447 0 Q 0.43 0 0.3705 -0.0015 Q 0.311 -0.003 0.294 -0.003 Q 0.28200000000000003 -0.003 0.2575 -0.0025 Q 0.233 -0.002 0.221 -0.002 Q 0.20800000000000002 -0.002 0.183 -0.001 Q 0.158 0 0.145 0 Q 0.123 0 0.123 -0.018000000000000002 Q 0.123 -0.035 0.133 -0.043000000000000003 Q 0.137 -0.047 0.169 -0.047 Q 0.20400000000000001 -0.047 0.221 -0.049 Q 0.234 -0.05 0.23750000000000002 -0.0525 Q 0.241 -0.055 0.244 -0.068 L 0.296 -0.274 L 0.14400000000000002 -0.623 Q 0.14 -0.632 0.137 -0.634 Q 0.134 -0.636 0.124 -0.638 Q 0.11 -0.639 0.085 -0.639 Q 0.068 -0.639 0.0615 -0.6395000000000001 Q 0.055 -0.64 0.0495 -0.644 Q 0.044 -0.648 0.044 -0.657 Q 0.044 -0.67 0.0495 -0.677 Q 0.055 -0.684 0.059500000000000004 -0.685 Q 0.064 -0.686 0.07200000000000001 -0.686 Q 0.083 -0.686 0.1075 -0.685 Q 0.132 -0.684 0.14400000000000002 -0.684 Q 0.155 -0.684 0.178 -0.6835 Q 0.201 -0.683 0.213 -0.683 Q 0.23 -0.683 0.2905 -0.6845 Q 0.35100000000000003 -0.686 0.368 -0.686 Q 0.39 -0.686 0.39 -0.668 Q 0.39 -0.649 0.3815 -0.644 Q 0.373 -0.639 0.356 -0.639 Q 0.328 -0.639 0.3 -0.635 L 0.428 -0.342 L 0.6990000000000001 -0.632 Q 0.678 -0.639 0.654 -0.639 Q 0.627 -0.639 0.627 -0.657 Q 0.627 -0.686 0.654 -0.686 Q 0.672 -0.686 0.709 -0.6845 Q 0.746 -0.683 0.765 -0.683 Q 0.78 -0.683 0.8115 -0.6845 Q 0.843 -0.686 0.857 -0.686 Q 0.866 -0.686 0.8705 -0.68 Q 0.875 -0.674 0.875 -0.668 Q 0.875 -0.655 0.8695 -0.648 Q 0.864 -0.641 0.859 -0.64 Q 0.854 -0.639 0.846 -0.639 Q 0.8 -0.638 0.7765 -0.629 Q 0.753 -0.62 0.734 -0.6 Z"/></g><g transform="translate(50.573564216374265,16.51843005263158)"><path fill="rgb(0,51,204)" stroke="none" paint-order="stroke fill markers" d=" M 0.752 -0.22 L 0.14100000000000001 -0.22 Q 0.096 -0.22 0.096 -0.251 Q 0.096 -0.281 0.14100000000000001 -0.281 L 0.752 -0.281 Q 0.797 -0.281 0.797 -0.25 Q 0.797 -0.22 0.752 -0.22 Z"/></g><g transform="translate(51.740018105263154,16.276764052631577)"><path fill="rgb(0,51,204)" stroke="none" paint-order="stroke fill markers" d=" M 0.28700000000000003 -0.6940000000000001 L 0.444 -0.5670000000000001 L 0.41600000000000004 -0.53 L 0.28700000000000003 -0.612 L 0.158 -0.529 L 0.13 -0.5680000000000001 L 0.28700000000000003 -0.6940000000000001 Z"/></g><g transform="translate(51.690227105263155,16.518430052631576)"><path fill="rgb(0,51,204)" stroke="none" paint-order="stroke fill markers" d=" M 0.734 -0.6 L 0.429 -0.274 L 0.373 -0.049 Q 0.41500000000000004 -0.047 0.434 -0.047 Q 0.451 -0.047 0.458 -0.0465 Q 0.465 -0.046 0.47050000000000003 -0.042 Q 0.47600000000000003 -0.038 0.47600000000000003 -0.029 Q 0.47600000000000003 -0.016 0.47000000000000003 -0.009000000000000001 Q 0.464 -0.002 0.459 -0.001 Q 0.454 0 0.447 0 Q 0.43 0 0.3705 -0.0015 Q 0.311 -0.003 0.294 -0.003 Q 0.28200000000000003 -0.003 0.2575 -0.0025 Q 0.233 -0.002 0.221 -0.002 Q 0.20800000000000002 -0.002 0.183 -0.001 Q 0.158 0 0.145 0 Q 0.123 0 0.123 -0.018000000000000002 Q 0.123 -0.035 0.133 -0.043000000000000003 Q 0.137 -0.047 0.169 -0.047 Q 0.20400000000000001 -0.047 0.221 -0.049 Q 0.234 -0.05 0.23750000000000002 -0.0525 Q 0.241 -0.055 0.244 -0.068 L 0.296 -0.274 L 0.14400000000000002 -0.623 Q 0.14 -0.632 0.137 -0.634 Q 0.134 -0.636 0.124 -0.638 Q 0.11 -0.639 0.085 -0.639 Q 0.068 -0.639 0.0615 -0.6395000000000001 Q 0.055 -0.64 0.0495 -0.644 Q 0.044 -0.648 0.044 -0.657 Q 0.044 -0.67 0.0495 -0.677 Q 0.055 -0.684 0.059500000000000004 -0.685 Q 0.064 -0.686 0.07200000000000001 -0.686 Q 0.083 -0.686 0.1075 -0.685 Q 0.132 -0.684 0.14400000000000002 -0.684 Q 0.155 -0.684 0.178 -0.6835 Q 0.201 -0.683 0.213 -0.683 Q 0.23 -0.683 0.2905 -0.6845 Q 0.35100000000000003 -0.686 0.368 -0.686 Q 0.39 -0.686 0.39 -0.668 Q 0.39 -0.649 0.3815 -0.644 Q 0.373 -0.639 0.356 -0.639 Q 0.328 -0.639 0.3 -0.635 L 0.428 -0.342 L 0.6990000000000001 -0.632 Q 0.678 -0.639 0.654 -0.639 Q 0.627 -0.639 0.627 -0.657 Q 0.627 -0.686 0.654 -0.686 Q 0.672 -0.686 0.709 -0.6845 Q 0.746 -0.683 0.765 -0.683 Q 0.78 -0.683 0.8115 -0.6845 Q 0.843 -0.686 0.857 -0.686 Q 0.866 -0.686 0.8705 -0.68 Q 0.875 -0.674 0.875 -0.668 Q 0.875 -0.655 0.8695 -0.648 Q 0.864 -0.641 0.859 -0.64 Q 0.854 -0.639 0.846 -0.639 Q 0.8 -0.638 0.7765 -0.629 Q 0.753 -0.62 0.734 -0.6 Z"/></g><g transform="translate(52.364806105263156,15.368421052631579)"><path fill="rgb(0,51,204)" stroke="none" paint-order="stroke fill markers" d=" M 0.14501953125 0.60107421875 L 0.14501953125 -0.0009765625 Q 0.1484375 -0.02197265625 0.1669921875 -0.02197265625 Q 0.1845703125 -0.02197265625 0.18798828125 -0.0009765625 L 0.18798828125 0.60107421875 Q 0.18408203125 0.6220703125 0.1669921875 0.6220703125 Q 0.14892578125 0.6220703125 0.14501953125 0.60107421875 M 0.3671875 0.60107421875 L 0.3671875 -0.0009765625 Q 0.37060546875 -0.02197265625 0.38916015625 -0.02197265625 Q 0.40673828125 -0.02197265625 0.41015625 -0.0009765625 L 0.41015625 0.60107421875 Q 0.40625 0.6220703125 0.38916015625 0.6220703125 Q 0.37109375 0.6220703125 0.3671875 0.60107421875 Z"/></g><g transform="translate(52.364806105263156,15.96842705263158)"><path fill="rgb(0,51,204)" stroke="none" paint-order="stroke fill markers" d=" M 0.14501953125 0.60107421875 L 0.14501953125 -0.0009765625 Q 0.1484375 -0.02197265625 0.1669921875 -0.02197265625 Q 0.1845703125 -0.02197265625 0.18798828125 -0.0009765625 L 0.18798828125 0.60107421875 Q 0.18408203125 0.6220703125 0.1669921875 0.6220703125 Q 0.14892578125 0.6220703125 0.14501953125 0.60107421875 M 0.3671875 0.60107421875 L 0.3671875 -0.0009765625 Q 0.37060546875 -0.02197265625 0.38916015625 -0.02197265625 Q 0.40673828125 -0.02197265625 0.41015625 -0.0009765625 L 0.41015625 0.60107421875 Q 0.40625 0.6220703125 0.38916015625 0.6220703125 Q 0.37109375 0.6220703125 0.3671875 0.60107421875 Z"/></g><g transform="translate(52.364806105263156,16.56843305263158)"><path fill="rgb(0,51,204)" stroke="none" paint-order="stroke fill markers" d=" M 0.14501953125 0.60107421875 L 0.14501953125 -0.0009765625 Q 0.1484375 -0.02197265625 0.1669921875 -0.02197265625 Q 0.1845703125 -0.02197265625 0.18798828125 -0.0009765625 L 0.18798828125 0.60107421875 Q 0.18408203125 0.6220703125 0.1669921875 0.6220703125 Q 0.14892578125 0.6220703125 0.14501953125 0.60107421875 M 0.3671875 0.60107421875 L 0.3671875 -0.0009765625 Q 0.37060546875 -0.02197265625 0.38916015625 -0.02197265625 Q 0.40673828125 -0.02197265625 0.41015625 -0.0009765625 L 0.41015625 0.60107421875 Q 0.40625 0.6220703125 0.38916015625 0.6220703125 Q 0.37109375 0.6220703125 0.3671875 0.60107421875 Z"/></g></g><path fill="rgb(255,255,255)" stroke="none" paint-order="stroke fill markers" d=" M 741 511 L 764 511 L 764 541 L 741 541 L 741 511 Z" fill-opacity="1"/><g transform="scale(19,19)"><g transform="translate(39.36842105263158,28.010234473684207)"><path fill="rgb(0,51,204)" stroke="none" paint-order="stroke fill markers" d=" M 0.455 -0.5 L 0.455 -0.5 Q 0.455 -0.34700000000000003 0.377 -0.19 Q 0.307 -0.05 0.222 -0.005 Q 0.191 0.011 0.162 0.011 Q 0.08 0.011 0.052000000000000005 -0.101 Q 0.042 -0.14300000000000002 0.042 -0.194 Q 0.042 -0.35100000000000003 0.122 -0.509 Q 0.192 -0.646 0.277 -0.6900000000000001 Q 0.307 -0.705 0.335 -0.705 Q 0.422 -0.705 0.447 -0.578 Q 0.455 -0.54 0.455 -0.5 M 0.148 -0.363 L 0.148 -0.363 L 0.357 -0.363 Q 0.389 -0.495 0.389 -0.562 Q 0.389 -0.675 0.342 -0.682 Q 0.338 -0.683 0.334 -0.683 Q 0.28300000000000003 -0.683 0.225 -0.578 Q 0.187 -0.511 0.149 -0.368 Q 0.149 -0.365 0.148 -0.363 M 0.34800000000000003 -0.331 L 0.14 -0.331 Q 0.108 -0.21 0.108 -0.133 Q 0.108 -0.013000000000000001 0.162 -0.011 Q 0.218 -0.011 0.278 -0.128 Q 0.317 -0.202 0.34800000000000003 -0.331 Z"/></g></g></g></g></svg>