<svg version="1.1" xmlns="http://www.w3.org/2000/svg" xmlns:xlink="http://www.w3.org/1999/xlink" width="1540" height="1027"><defs><clipPath id="BIlcwqKtEHRU"><path fill="none" stroke="none" d=" M 0 0 L 1540 0 L 1540 1027 L 0 1027 L 0 0 Z"/></clipPath></defs><g transform="scale(1,1)" clip-path="url(#BIlcwqKtEHRU)"><g><rect fill="rgb(255,255,255)" stroke="none" x="0" y="0" width="1540" height="1027" fill-opacity="1"/><path fill="rgb(21,101,192)" stroke="none" paint-order="stroke fill markers" fill-rule="evenodd" d=" M 852.4639896113277 482.6958725747038 L 841.942308300178 500.0433516962228 L 842.6572968234094 511.5083830529844 L 852.5878037699969 494.7228870982972 Z" fill-opacity="0.09803921568627451"/><path fill="rgb(97,97,97)" stroke="none" paint-order="stroke fill markers" fill-rule="evenodd" d=" M 802.8677424973888 565.4785644177405 L 782 561 L 777.0817169938335 584.6233182407539 L 796.8628150473527 588.9146114291846 Z" fill-opacity="0.09803921568627451"/><path fill="none" stroke="rgb(0,0,0)" paint-order="fill stroke markers" d=" M 416.13331300589624 506.31950400265737 L 1125.635419972659 660.238237460529" stroke-opacity="0.6980392156862745" stroke-linecap="round" stroke-linejoin="round" stroke-miterlimit="10" stroke-width="1.5"/><path fill="none" stroke="rgb(0,0,0)" paint-order="fill stroke markers" d=" M 851.3675803157327 376.19326686576244 L 852.5878037699969 494.7228870982972" stroke-opacity="0.6980392156862745" stroke-linejoin="round" stroke-miterlimit="10" stroke-width="2.5" stroke-dasharray="6.5,4"/><path fill="none" stroke="rgb(0,0,0)" paint-order="fill stroke markers" d=" M 852.5878037699969 494.7228870982972 L 796.8628150473528 588.9146114291846" stroke-opacity="0.6980392156862745" stroke-linejoin="round" stroke-miterlimit="10" stroke-width="2.5" stroke-dasharray="10.5,8"/><path fill="none" stroke="rgb(0,0,0)" paint-order="fill stroke markers" d=" M 851.3675803157327 376.19326686576244 L 796.8628150473528 588.9146114291846" stroke-opacity="0.6980392156862745" stroke-linejoin="round" stroke-miterlimit="10" stroke-dasharray="9,8"/><path fill="none" stroke="rgb(211,47,47)" paint-order="fill stroke markers" d=" M 534.2342966264323 531.9402225889847 L 852.5878037699969 494.7228870982972" stroke-opacity="0.6980392156862745" stroke-linecap="round" stroke-linejoin="round" stroke-miterlimit="10" stroke-width="2.5"/><path fill="none" stroke="rgb(211,47,47)" paint-order="fill stroke markers" d=" M 534.2342966264323 531.9402225889847 L 796.8628150473527 588.9146114291846" stroke-opacity="0.6980392156862745" stroke-linecap="round" stroke-linejoin="round" stroke-miterlimit="10" stroke-width="3"/><path fill="none" stroke="rgb(97,97,97)" paint-order="fill stroke markers" d=" M 128.22094240764432 728.6161076802382 L 390.3686171796584 728.6161076802382" stroke-opacity="0.6980392156862745" stroke-linecap="round" stroke-linejoin="round" stroke-miterlimit="10" stroke-width="2.5"/><path fill="none" stroke="rgb(97,97,97)" paint-order="fill stroke markers" d=" M 514.3882853228379 729.7757693706742 L 1231.0601482492953 729.7757693706742" stroke-opacity="0.6980392156862745" stroke-linecap="round" stroke-linejoin="round" stroke-miterlimit="10" stroke-width="2.5"/><path fill="none" stroke="rgb(97,97,97)" paint-order="fill stroke markers" d=" M 1231.0601482492953 729.7757693706742 L 1481.8131472182795 295.45883500612945" stroke-opacity="0.6980392156862745" stroke-linecap="round" stroke-linejoin="round" stroke-miterlimit="10" stroke-width="2.5"/><path fill="none" stroke="rgb(97,97,97)" paint-order="fill stroke markers" d=" M 1481.8131472182795 295.45883500612945 L 745.1496495646909 295.45883500612956" stroke-opacity="0.6980392156862745" stroke-linecap="round" stroke-linejoin="round" stroke-miterlimit="10" stroke-width="2.5"/><path fill="none" stroke="rgb(97,97,97)" paint-order="fill stroke markers" d=" M 619.9174991525153 299.5412822189114 L 358.9936188044116 303.02026729021946" stroke-opacity="0.6980392156862745" stroke-linecap="round" stroke-linejoin="round" stroke-miterlimit="10" stroke-width="2.5"/><path fill="none" stroke="rgb(97,97,97)" paint-order="fill stroke markers" d=" M 358.9936188044116 303.02026729021946 L 69.0781961954076 728.6161076802382" stroke-opacity="0.6980392156862745" stroke-linecap="round" stroke-linejoin="round" stroke-miterlimit="10" stroke-width="2.5"/><path fill="none" stroke="rgb(97,97,97)" paint-order="fill stroke markers" d=" M 69.0781961954076 728.6161076802382 L 128.22094240764432 728.6161076802382" stroke-opacity="0.6980392156862745" stroke-linecap="round" stroke-linejoin="round" stroke-miterlimit="10" stroke-width="2.5"/><path fill="none" stroke="rgb(97,97,97)" paint-order="fill stroke markers" d=" M 852.4639896113277 482.6958725747038 L 841.942308300178 500.0433516962228" stroke-opacity="0.6980392156862745" stroke-linecap="round" stroke-linejoin="round" stroke-miterlimit="10" stroke-width="2.5"/><path fill="none" stroke="rgb(97,97,97)" paint-order="fill stroke markers" d=" M 841.942308300178 500.0433516962228 L 842.6572968234094 511.5083830529844" stroke-opacity="0.6980392156862745" stroke-linecap="round" stroke-linejoin="round" stroke-miterlimit="10" stroke-width="2.5"/><path fill="none" stroke="rgb(21,101,192)" paint-order="fill stroke markers" d=" M 842.6572968234094 511.5083830529844 L 852.5878037699969 494.7228870982972" stroke-opacity="0.6980392156862745" stroke-linecap="round" stroke-linejoin="round" stroke-miterlimit="10" stroke-width="2.5"/><path fill="none" stroke="rgb(21,101,192)" paint-order="fill stroke markers" d=" M 852.5878037699969 494.7228870982972 L 852.4639896113277 482.6958725747038" stroke-opacity="0.6980392156862745" stroke-linecap="round" stroke-linejoin="round" stroke-miterlimit="10" stroke-width="2.5"/><path fill="none" stroke="rgb(97,97,97)" paint-order="fill stroke markers" d=" M 802.8677424973888 565.4785644177405 L 782 561" stroke-opacity="0.6980392156862745" stroke-linecap="round" stroke-linejoin="round" stroke-miterlimit="10" stroke-width="2.5"/><path fill="none" stroke="rgb(97,97,97)" paint-order="fill stroke markers" d=" M 782 561 L 777.0817169938335 584.6233182407539" stroke-opacity="0.6980392156862745" stroke-linecap="round" stroke-linejoin="round" stroke-miterlimit="10" stroke-width="2.5"/><path fill="none" stroke="rgb(97,97,97)" paint-order="fill stroke markers" d=" M 777.0817169938335 584.6233182407539 L 796.8628150473527 588.9146114291846" stroke-opacity="0.6980392156862745" stroke-linecap="round" stroke-linejoin="round" stroke-miterlimit="10" stroke-width="2.5"/><path fill="none" stroke="rgb(97,97,97)" paint-order="fill stroke markers" d=" M 796.8628150473527 588.9146114291846 L 802.8677424973888 565.4785644177405" stroke-opacity="0.6980392156862745" stroke-linecap="round" stroke-linejoin="round" stroke-miterlimit="10" stroke-width="2.5"/><path fill="none" stroke="rgb(0,102,153)" paint-order="fill stroke markers" d=" M 534.2342966264323 531.9402225889847 L 837.3286602461372 383.08790446748225" stroke-opacity="0.6980392156862745" stroke-linecap="round" stroke-linejoin="round" stroke-miterlimit="10" stroke-width="2.5"/><path fill="rgb(0,102,153)" stroke="none" paint-order="stroke fill markers" fill-rule="evenodd" d=" M 852.587803769997 375.59400435350614 L 839.2021352746312 386.90269034844715 L 835.4551852176432 379.27311858651734 Z" fill-opacity="0.6980392156862745"/><path fill="none" stroke="rgb(255,255,255)" paint-order="fill stroke markers" d=" M 476.17063542809353 335.5329641384436 C 476.17063542809353 336.0852488882744 475.7229201779243 336.5329641384436 475.17063542809353 336.5329641384436 C 474.61835067826274 336.5329641384436 474.17063542809353 336.0852488882744 474.17063542809353 335.5329641384436 C 474.17063542809353 334.9806793886128 474.61835067826274 334.5329641384436 475.17063542809353 334.5329641384436 C 475.7229201779243 334.5329641384436 476.17063542809353 334.9806793886128 476.17063542809353 335.5329641384436 Z" stroke-opacity="1" stroke-linecap="square" stroke-miterlimit="10" stroke-width="0.5"/><text fill="rgb(255,255,255)" stroke="none" font-family="geogebra-sans-serif, sans-serif" font-size="16px" font-style="normal" font-weight="normal" text-decoration="normal" x="479" y="334" text-anchor="start" dominant-baseline="alphabetic" fill-opacity="1">A</text><path fill="rgb(97,97,97)" stroke="none" paint-order="stroke fill markers" d=" M 539.2342966264323 531.9402225889847 C 539.2342966264323 534.7016463381387 536.9957203755863 536.9402225889847 534.2342966264323 536.9402225889847 C 531.4728728772783 536.9402225889847 529.2342966264323 534.7016463381387 529.2342966264323 531.9402225889847 C 529.2342966264323 529.1787988398307 531.4728728772783 526.9402225889847 534.2342966264323 526.9402225889847 C 536.9957203755863 526.9402225889847 539.2342966264323 529.1787988398307 539.2342966264323 531.9402225889847 Z" fill-opacity="1"/><path fill="none" stroke="rgb(0,0,0)" paint-order="fill stroke markers" d=" M 539.2342966264323 531.9402225889847 C 539.2342966264323 534.7016463381387 536.9957203755863 536.9402225889847 534.2342966264323 536.9402225889847 C 531.4728728772783 536.9402225889847 529.2342966264323 534.7016463381387 529.2342966264323 531.9402225889847 C 529.2342966264323 529.1787988398307 531.4728728772783 526.9402225889847 534.2342966264323 526.9402225889847 C 536.9957203755863 526.9402225889847 539.2342966264323 529.1787988398307 539.2342966264323 531.9402225889847 Z" stroke-opacity="1" stroke-linecap="round" stroke-linejoin="round" stroke-miterlimit="10"/><text fill="none" stroke="rgb(255,255,255)" font-family="geogebra-sans-serif, sans-serif" font-size="16px" font-style="normal" font-weight="normal" text-decoration="normal" x="523" y="521" text-anchor="start" dominant-baseline="alphabetic" stroke-opacity="1" stroke-linecap="round" stroke-linejoin="bevel" stroke-miterlimit="10" stroke-width="3">O</text><text fill="rgb(97,97,97)" stroke="none" font-family="geogebra-sans-serif, sans-serif" font-size="16px" font-style="normal" font-weight="normal" text-decoration="normal" x="523" y="521" text-anchor="start" dominant-baseline="alphabetic" fill-opacity="1">O</text><g transform="scale(35,35)"><g transform="translate(4.6571428571428575,19.321428571428573)"><path fill="rgb(0,0,0)" stroke="none" paint-order="stroke fill markers" d=" M 0.385 -0.557 L 0.385 -0.557 L 0.353 -0.428 Q 0.325 -0.315 0.254 -0.14200000000000002 Q 0.181 0.03 0.127 0.048 Q 0.12 0.05 0.114 0.05 Q 0.088 0.05 0.059000000000000004 0.035 Q 0.028 0.019 0.027 -0.002 Q 0.027 -0.034 0.048 -0.064 Q 0.057 -0.075 0.063 -0.075 Q 0.066 -0.075 0.07200000000000001 -0.07 Q 0.10300000000000001 -0.045 0.14400000000000002 -0.042 Q 0.186 -0.042 0.254 -0.225 L 0.276 -0.28600000000000003 Q 0.338 -0.459 0.365 -0.651 Q 0.369 -0.673 0.381 -0.683 L 0.382 -0.684 Q 0.383 -0.685 0.385 -0.686 Q 0.41200000000000003 -0.705 0.429 -0.705 Q 0.44 -0.705 0.442 -0.6950000000000001 L 0.442 -0.6940000000000001 L 0.442 -0.6940000000000001 Q 0.442 -0.6910000000000001 0.443 -0.685 Q 0.515 -0.273 0.591 -0.13 Q 0.686 -0.222 0.791 -0.34400000000000003 L 1.074 -0.68 Q 1.095 -0.704 1.099 -0.704 Q 1.107 -0.704 1.107 -0.6890000000000001 Q 1.107 -0.686 1.105 -0.672 Q 1.067 -0.512 1.041 -0.266 Q 1.032 -0.179 1.032 -0.134 Q 1.032 -0.054 1.043 -0.038 Q 1.05 -0.027 1.063 -0.026000000000000002 Q 1.088 -0.042 1.107 -0.042 Q 1.116 -0.042 1.116 -0.035 Q 1.116 -0.018000000000000002 1.069 0.007 Q 1.049 0.017 1.03 0.023 Q 1.012 0.029 0.998 0.029 Q 0.96 0.029 0.9520000000000001 -0.006 Q 0.9470000000000001 -0.025 0.9470000000000001 -0.092 Q 0.9470000000000001 -0.217 0.99 -0.47500000000000003 L 0.997 -0.517 L 0.778 -0.26 Q 0.67 -0.135 0.5750000000000001 -0.043000000000000003 Q 0.5650000000000001 -0.034 0.558 -0.034 Q 0.55 -0.034 0.546 -0.039 Q 0.501 -0.115 0.47600000000000003 -0.193 Q 0.442 -0.294 0.41000000000000003 -0.442 L 0.386 -0.557 L 0.385 -0.557 Z"/></g><g transform="translate(5.858042857142857,19.321428571428573)"><path fill="rgb(0,0,0)" stroke="none" paint-order="stroke fill markers" d=" M 0.331 0.24 L 0.331 0.24 Q 0.331 0.25 0.321 0.25 Q 0.309 0.25 0.268 0.209 Q 0.20600000000000002 0.147 0.165 0.062 Q 0.099 -0.074 0.099 -0.25 Q 0.099 -0.419 0.162 -0.555 Q 0.214 -0.666 0.294 -0.733 Q 0.315 -0.75 0.321 -0.75 Q 0.331 -0.75 0.331 -0.74 Q 0.331 -0.735 0.318 -0.723 Q 0.157 -0.559 0.157 -0.25 Q 0.157 0.058 0.314 0.218 Q 0.331 0.23500000000000001 0.331 0.24 Z"/></g><g transform="translate(6.246932857142857,19.321428571428573)"><path fill="rgb(0,0,0)" stroke="none" paint-order="stroke fill markers" d=" M 0.485 -0.41100000000000003 L 0.647 -0.585 Q 0.666 -0.606 0.666 -0.621 Q 0.666 -0.648 0.626 -0.652 Q 0.614 -0.654 0.614 -0.663 Q 0.614 -0.683 0.633 -0.683 L 0.743 -0.68 L 0.744 -0.68 L 0.837 -0.683 L 0.838 -0.683 Q 0.851 -0.683 0.851 -0.672 Q 0.851 -0.655 0.837 -0.653 Q 0.835 -0.652 0.8290000000000001 -0.652 Q 0.759 -0.649 0.7020000000000001 -0.601 Q 0.6890000000000001 -0.59 0.552 -0.442 Q 0.519 -0.406 0.497 -0.384 Q 0.503 -0.368 0.626 -0.075 Q 0.639 -0.044 0.65 -0.038 L 0.651 -0.038 L 0.651 -0.038 L 0.651 -0.038 L 0.651 -0.038 L 0.652 -0.038 L 0.652 -0.037 Q 0.665 -0.032 0.712 -0.031 Q 0.73 -0.031 0.73 -0.019 Q 0.73 0 0.711 0 L 0.601 -0.003 L 0.6 -0.003 L 0.47500000000000003 0 L 0.47400000000000003 0 Q 0.459 0 0.459 -0.012 Q 0.459 -0.028 0.47400000000000003 -0.03 Q 0.47600000000000003 -0.031 0.47900000000000004 -0.031 Q 0.524 -0.036000000000000004 0.536 -0.056 Q 0.537 -0.058 0.537 -0.06 L 0.532 -0.074 L 0.431 -0.313 L 0.341 -0.215 L 0.23900000000000002 -0.107 Q 0.212 -0.078 0.212 -0.062 Q 0.212 -0.035 0.252 -0.031 Q 0.264 -0.031 0.264 -0.02 Q 0.264 0 0.246 0 L 0.135 -0.003 L 0.134 -0.003 L 0.041 0 L 0.04 0 Q 0.027 0 0.027 -0.011 Q 0.027 -0.028 0.041 -0.03 Q 0.043000000000000003 -0.031 0.049 -0.031 Q 0.134 -0.036000000000000004 0.196 -0.10300000000000001 L 0.209 -0.114 L 0.42 -0.341 L 0.302 -0.62 Q 0.293 -0.641 0.278 -0.647 L 0.277 -0.647 L 0.277 -0.647 L 0.277 -0.647 Q 0.262 -0.652 0.227 -0.652 Q 0.20500000000000002 -0.652 0.20400000000000001 -0.663 Q 0.20400000000000001 -0.683 0.222 -0.683 L 0.333 -0.68 L 0.334 -0.68 L 0.459 -0.683 L 0.46 -0.683 Q 0.47500000000000003 -0.683 0.47500000000000003 -0.671 Q 0.47500000000000003 -0.654 0.455 -0.652 Q 0.40900000000000003 -0.648 0.396 -0.623 L 0.401 -0.61 L 0.485 -0.41100000000000003 Z"/></g><g transform="translate(7.153877857142858,19.321428571428573)"><path fill="rgb(0,0,0)" stroke="none" paint-order="stroke fill markers" d=" M 0.289 -0.25 L 0.289 -0.25 Q 0.289 -0.081 0.226 0.055 Q 0.17400000000000002 0.166 0.094 0.233 Q 0.073 0.25 0.067 0.25 Q 0.057 0.25 0.057 0.24 Q 0.057 0.23500000000000001 0.07 0.223 Q 0.231 0.059000000000000004 0.231 -0.25 Q 0.231 -0.555 0.081 -0.712 L 0.076 -0.717 Q 0.057 -0.735 0.057 -0.74 Q 0.057 -0.75 0.067 -0.75 Q 0.079 -0.75 0.12 -0.709 Q 0.182 -0.647 0.223 -0.562 Q 0.289 -0.426 0.289 -0.25 Z"/></g></g><g transform="scale(25,25)"><g transform="translate(41.72,24.63)"><path fill="rgb(0,0,0)" stroke="none" paint-order="stroke fill markers" d=" M 0.385 -0.557 L 0.385 -0.557 L 0.353 -0.428 Q 0.325 -0.315 0.254 -0.14200000000000002 Q 0.181 0.03 0.127 0.048 Q 0.12 0.05 0.114 0.05 Q 0.088 0.05 0.059000000000000004 0.035 Q 0.028 0.019 0.027 -0.002 Q 0.027 -0.034 0.048 -0.064 Q 0.057 -0.075 0.063 -0.075 Q 0.066 -0.075 0.07200000000000001 -0.07 Q 0.10300000000000001 -0.045 0.14400000000000002 -0.042 Q 0.186 -0.042 0.254 -0.225 L 0.276 -0.28600000000000003 Q 0.338 -0.459 0.365 -0.651 Q 0.369 -0.673 0.381 -0.683 L 0.382 -0.684 Q 0.383 -0.685 0.385 -0.686 Q 0.41200000000000003 -0.705 0.429 -0.705 Q 0.44 -0.705 0.442 -0.6950000000000001 L 0.442 -0.6940000000000001 L 0.442 -0.6940000000000001 Q 0.442 -0.6910000000000001 0.443 -0.685 Q 0.515 -0.273 0.591 -0.13 Q 0.686 -0.222 0.791 -0.34400000000000003 L 1.074 -0.68 Q 1.095 -0.704 1.099 -0.704 Q 1.107 -0.704 1.107 -0.6890000000000001 Q 1.107 -0.686 1.105 -0.672 Q 1.067 -0.512 1.041 -0.266 Q 1.032 -0.179 1.032 -0.134 Q 1.032 -0.054 1.043 -0.038 Q 1.05 -0.027 1.063 -0.026000000000000002 Q 1.088 -0.042 1.107 -0.042 Q 1.116 -0.042 1.116 -0.035 Q 1.116 -0.018000000000000002 1.069 0.007 Q 1.049 0.017 1.03 0.023 Q 1.012 0.029 0.998 0.029 Q 0.96 0.029 0.9520000000000001 -0.006 Q 0.9470000000000001 -0.025 0.9470000000000001 -0.092 Q 0.9470000000000001 -0.217 0.99 -0.47500000000000003 L 0.997 -0.517 L 0.778 -0.26 Q 0.67 -0.135 0.5750000000000001 -0.043000000000000003 Q 0.5650000000000001 -0.034 0.558 -0.034 Q 0.55 -0.034 0.546 -0.039 Q 0.501 -0.115 0.47600000000000003 -0.193 Q 0.442 -0.294 0.41000000000000003 -0.442 L 0.386 -0.557 L 0.385 -0.557 Z"/></g><g transform="translate(42.920899999999996,24.63)"><path fill="rgb(0,0,0)" stroke="none" paint-order="stroke fill markers" d=" M 0.331 0.24 L 0.331 0.24 Q 0.331 0.25 0.321 0.25 Q 0.309 0.25 0.268 0.209 Q 0.20600000000000002 0.147 0.165 0.062 Q 0.099 -0.074 0.099 -0.25 Q 0.099 -0.419 0.162 -0.555 Q 0.214 -0.666 0.294 -0.733 Q 0.315 -0.75 0.321 -0.75 Q 0.331 -0.75 0.331 -0.74 Q 0.331 -0.735 0.318 -0.723 Q 0.157 -0.559 0.157 -0.25 Q 0.157 0.058 0.314 0.218 Q 0.331 0.23500000000000001 0.331 0.24 Z"/></g><g transform="translate(43.30979,24.63)"><path fill="rgb(0,0,0)" stroke="none" paint-order="stroke fill markers" d=" M 0.485 -0.41100000000000003 L 0.647 -0.585 Q 0.666 -0.606 0.666 -0.621 Q 0.666 -0.648 0.626 -0.652 Q 0.614 -0.654 0.614 -0.663 Q 0.614 -0.683 0.633 -0.683 L 0.743 -0.68 L 0.744 -0.68 L 0.837 -0.683 L 0.838 -0.683 Q 0.851 -0.683 0.851 -0.672 Q 0.851 -0.655 0.837 -0.653 Q 0.835 -0.652 0.8290000000000001 -0.652 Q 0.759 -0.649 0.7020000000000001 -0.601 Q 0.6890000000000001 -0.59 0.552 -0.442 Q 0.519 -0.406 0.497 -0.384 Q 0.503 -0.368 0.626 -0.075 Q 0.639 -0.044 0.65 -0.038 L 0.651 -0.038 L 0.651 -0.038 L 0.651 -0.038 L 0.651 -0.038 L 0.652 -0.038 L 0.652 -0.037 Q 0.665 -0.032 0.712 -0.031 Q 0.73 -0.031 0.73 -0.019 Q 0.73 0 0.711 0 L 0.601 -0.003 L 0.6 -0.003 L 0.47500000000000003 0 L 0.47400000000000003 0 Q 0.459 0 0.459 -0.012 Q 0.459 -0.028 0.47400000000000003 -0.03 Q 0.47600000000000003 -0.031 0.47900000000000004 -0.031 Q 0.524 -0.036000000000000004 0.536 -0.056 Q 0.537 -0.058 0.537 -0.06 L 0.532 -0.074 L 0.431 -0.313 L 0.341 -0.215 L 0.23900000000000002 -0.107 Q 0.212 -0.078 0.212 -0.062 Q 0.212 -0.035 0.252 -0.031 Q 0.264 -0.031 0.264 -0.02 Q 0.264 0 0.246 0 L 0.135 -0.003 L 0.134 -0.003 L 0.041 0 L 0.04 0 Q 0.027 0 0.027 -0.011 Q 0.027 -0.028 0.041 -0.03 Q 0.043000000000000003 -0.031 0.049 -0.031 Q 0.134 -0.036000000000000004 0.196 -0.10300000000000001 L 0.209 -0.114 L 0.42 -0.341 L 0.302 -0.62 Q 0.293 -0.641 0.278 -0.647 L 0.277 -0.647 L 0.277 -0.647 L 0.277 -0.647 Q 0.262 -0.652 0.227 -0.652 Q 0.20500000000000002 -0.652 0.20400000000000001 -0.663 Q 0.20400000000000001 -0.683 0.222 -0.683 L 0.333 -0.68 L 0.334 -0.68 L 0.459 -0.683 L 0.46 -0.683 Q 0.47500000000000003 -0.683 0.47500000000000003 -0.671 Q 0.47500000000000003 -0.654 0.455 -0.652 Q 0.40900000000000003 -0.648 0.396 -0.623 L 0.401 -0.61 L 0.485 -0.41100000000000003 Z"/></g><g transform="translate(44.138264,24.779999999999998) scale(0.7,0.7)"><path fill="rgb(0,0,0)" stroke="none" paint-order="stroke fill markers" d=" M 0.46 -0.32 Q 0.46 -0.17400000000000002 0.423 -0.094 Q 0.364 0.018000000000000002 0.249 0.022 Q 0.158 0.022 0.10300000000000001 -0.05 Q 0.092 -0.063 0.084 -0.079 Q 0.039 -0.162 0.039 -0.32 Q 0.039 -0.467 0.076 -0.547 Q 0.126 -0.659 0.23800000000000002 -0.666 L 0.25 -0.666 Q 0.339 -0.666 0.395 -0.595 L 0.395 -0.594 Q 0.40900000000000003 -0.5760000000000001 0.42 -0.554 Q 0.46 -0.46900000000000003 0.46 -0.32 M 0.249 0 L 0.249 0 Q 0.312 0 0.34600000000000003 -0.061 Q 0.36 -0.088 0.366 -0.125 Q 0.377 -0.189 0.377 -0.332 Q 0.377 -0.47100000000000003 0.367 -0.527 Q 0.34900000000000003 -0.622 0.275 -0.641 Q 0.262 -0.644 0.249 -0.644 Q 0.179 -0.644 0.147 -0.5740000000000001 Q 0.136 -0.55 0.13 -0.516 Q 0.122 -0.462 0.122 -0.332 Q 0.122 -0.181 0.133 -0.121 Q 0.151 -0.025 0.221 -0.004 Q 0.23500000000000001 0 0.249 0 Z"/></g><g transform="translate(44.4882654,24.63)"><path fill="rgb(0,0,0)" stroke="none" paint-order="stroke fill markers" d=" M 0.289 -0.25 L 0.289 -0.25 Q 0.289 -0.081 0.226 0.055 Q 0.17400000000000002 0.166 0.094 0.233 Q 0.073 0.25 0.067 0.25 Q 0.057 0.25 0.057 0.24 Q 0.057 0.23500000000000001 0.07 0.223 Q 0.231 0.059000000000000004 0.231 -0.25 Q 0.231 -0.555 0.081 -0.712 L 0.076 -0.717 Q 0.057 -0.735 0.057 -0.74 Q 0.057 -0.75 0.067 -0.75 Q 0.079 -0.75 0.12 -0.709 Q 0.182 -0.647 0.223 -0.562 Q 0.289 -0.426 0.289 -0.25 Z"/></g></g><path fill="rgb(255,255,255)" stroke="none" paint-order="stroke fill markers" d=" M 803 336 L 836 336 L 836 375 L 803 375 L 803 336 Z" fill-opacity="1"/><g transform="scale(25,25)"><g transform="translate(32.44,14.526111)"><path fill="rgb(0,102,153)" stroke="none" paint-order="stroke fill markers" d=" M 0.734 -0.6 L 0.429 -0.274 L 0.373 -0.049 Q 0.41500000000000004 -0.047 0.434 -0.047 Q 0.451 -0.047 0.458 -0.0465 Q 0.465 -0.046 0.47050000000000003 -0.042 Q 0.47600000000000003 -0.038 0.47600000000000003 -0.029 Q 0.47600000000000003 -0.016 0.47000000000000003 -0.009000000000000001 Q 0.464 -0.002 0.459 -0.001 Q 0.454 0 0.447 0 Q 0.43 0 0.3705 -0.0015 Q 0.311 -0.003 0.294 -0.003 Q 0.28200000000000003 -0.003 0.2575 -0.0025 Q 0.233 -0.002 0.221 -0.002 Q 0.20800000000000002 -0.002 0.183 -0.001 Q 0.158 0 0.145 0 Q 0.123 0 0.123 -0.018000000000000002 Q 0.123 -0.035 0.133 -0.043000000000000003 Q 0.137 -0.047 0.169 -0.047 Q 0.20400000000000001 -0.047 0.221 -0.049 Q 0.234 -0.05 0.23750000000000002 -0.0525 Q 0.241 -0.055 0.244 -0.068 L 0.296 -0.274 L 0.14400000000000002 -0.623 Q 0.14 -0.632 0.137 -0.634 Q 0.134 -0.636 0.124 -0.638 Q 0.11 -0.639 0.085 -0.639 Q 0.068 -0.639 0.0615 -0.6395000000000001 Q 0.055 -0.64 0.0495 -0.644 Q 0.044 -0.648 0.044 -0.657 Q 0.044 -0.67 0.0495 -0.677 Q 0.055 -0.684 0.059500000000000004 -0.685 Q 0.064 -0.686 0.07200000000000001 -0.686 Q 0.083 -0.686 0.1075 -0.685 Q 0.132 -0.684 0.14400000000000002 -0.684 Q 0.155 -0.684 0.178 -0.6835 Q 0.201 -0.683 0.213 -0.683 Q 0.23 -0.683 0.2905 -0.6845 Q 0.35100000000000003 -0.686 0.368 -0.686 Q 0.39 -0.686 0.39 -0.668 Q 0.39 -0.649 0.3815 -0.644 Q 0.373 -0.639 0.356 -0.639 Q 0.328 -0.639 0.3 -0.635 L 0.428 -0.342 L 0.6990000000000001 -0.632 Q 0.678 -0.639 0.654 -0.639 Q 0.627 -0.639 0.627 -0.657 Q 0.627 -0.686 0.654 -0.686 Q 0.672 -0.686 0.709 -0.6845 Q 0.746 -0.683 0.765 -0.683 Q 0.78 -0.683 0.8115 -0.6845 Q 0.843 -0.686 0.857 -0.686 Q 0.866 -0.686 0.8705 -0.68 Q 0.875 -0.674 0.875 -0.668 Q 0.875 -0.655 0.8695 -0.648 Q 0.864 -0.641 0.859 -0.64 Q 0.854 -0.639 0.846 -0.639 Q 0.8 -0.638 0.7765 -0.629 Q 0.753 -0.62 0.734 -0.6 Z"/></g></g><path fill="rgb(255,255,255)" stroke="none" paint-order="stroke fill markers" d=" M 676 556 L 710 556 L 710 592 L 676 592 L 676 556 Z" fill-opacity="1"/><g transform="scale(19,19)"><g transform="translate(36.03465692105263,30.32602394736842)"><path fill="rgb(204,0,0)" stroke="none" paint-order="stroke fill markers" d=" M 0.25 -0.6940000000000001 L 0.383 -0.558 L 0.365 -0.54 L 0.25 -0.642 L 0.134 -0.54 L 0.116 -0.558 L 0.25 -0.6940000000000001 Z"/></g><g transform="translate(35.94736842105263,30.58157994736842)"><path fill="rgb(204,0,0)" stroke="none" paint-order="stroke fill markers" d=" M 0.734 -0.6 L 0.429 -0.274 L 0.373 -0.049 Q 0.41500000000000004 -0.047 0.434 -0.047 Q 0.451 -0.047 0.458 -0.0465 Q 0.465 -0.046 0.47050000000000003 -0.042 Q 0.47600000000000003 -0.038 0.47600000000000003 -0.029 Q 0.47600000000000003 -0.016 0.47000000000000003 -0.009000000000000001 Q 0.464 -0.002 0.459 -0.001 Q 0.454 0 0.447 0 Q 0.43 0 0.3705 -0.0015 Q 0.311 -0.003 0.294 -0.003 Q 0.28200000000000003 -0.003 0.2575 -0.0025 Q 0.233 -0.002 0.221 -0.002 Q 0.20800000000000002 -0.002 0.183 -0.001 Q 0.158 0 0.145 0 Q 0.123 0 0.123 -0.018000000000000002 Q 0.123 -0.035 0.133 -0.043000000000000003 Q 0.137 -0.047 0.169 -0.047 Q 0.20400000000000001 -0.047 0.221 -0.049 Q 0.234 -0.05 0.23750000000000002 -0.0525 Q 0.241 -0.055 0.244 -0.068 L 0.296 -0.274 L 0.14400000000000002 -0.623 Q 0.14 -0.632 0.137 -0.634 Q 0.134 -0.636 0.124 -0.638 Q 0.11 -0.639 0.085 -0.639 Q 0.068 -0.639 0.0615 -0.6395000000000001 Q 0.055 -0.64 0.0495 -0.644 Q 0.044 -0.648 0.044 -0.657 Q 0.044 -0.67 0.0495 -0.677 Q 0.055 -0.684 0.059500000000000004 -0.685 Q 0.064 -0.686 0.07200000000000001 -0.686 Q 0.083 -0.686 0.1075 -0.685 Q 0.132 -0.684 0.14400000000000002 -0.684 Q 0.155 -0.684 0.178 -0.6835 Q 0.201 -0.683 0.213 -0.683 Q 0.23 -0.683 0.2905 -0.6845 Q 0.35100000000000003 -0.686 0.368 -0.686 Q 0.39 -0.686 0.39 -0.668 Q 0.39 -0.649 0.3815 -0.644 Q 0.373 -0.639 0.356 -0.639 Q 0.328 -0.639 0.3 -0.635 L 0.428 -0.342 L 0.6990000000000001 -0.632 Q 0.678 -0.639 0.654 -0.639 Q 0.627 -0.639 0.627 -0.657 Q 0.627 -0.686 0.654 -0.686 Q 0.672 -0.686 0.709 -0.6845 Q 0.746 -0.683 0.765 -0.683 Q 0.78 -0.683 0.8115 -0.6845 Q 0.843 -0.686 0.857 -0.686 Q 0.866 -0.686 0.8705 -0.68 Q 0.875 -0.674 0.875 -0.668 Q 0.875 -0.655 0.8695 -0.648 Q 0.864 -0.641 0.859 -0.64 Q 0.854 -0.639 0.846 -0.639 Q 0.8 -0.638 0.7765 -0.629 Q 0.753 -0.62 0.734 -0.6 Z"/></g><g transform="translate(36.62194742105263,30.73157994736842) scale(0.7,0.7)"><path fill="rgb(204,0,0)" stroke="none" paint-order="stroke fill markers" d=" M 0.46 -0.32 Q 0.46 -0.17400000000000002 0.423 -0.094 Q 0.364 0.018000000000000002 0.249 0.022 Q 0.158 0.022 0.10300000000000001 -0.05 Q 0.092 -0.063 0.084 -0.079 Q 0.039 -0.162 0.039 -0.32 Q 0.039 -0.467 0.076 -0.547 Q 0.126 -0.659 0.23800000000000002 -0.666 L 0.25 -0.666 Q 0.339 -0.666 0.395 -0.595 L 0.395 -0.594 Q 0.40900000000000003 -0.5760000000000001 0.42 -0.554 Q 0.46 -0.46900000000000003 0.46 -0.32 M 0.249 0 L 0.249 0 Q 0.312 0 0.34600000000000003 -0.061 Q 0.36 -0.088 0.366 -0.125 Q 0.377 -0.189 0.377 -0.332 Q 0.377 -0.47100000000000003 0.367 -0.527 Q 0.34900000000000003 -0.622 0.275 -0.641 Q 0.262 -0.644 0.249 -0.644 Q 0.179 -0.644 0.147 -0.5740000000000001 Q 0.136 -0.55 0.13 -0.516 Q 0.122 -0.462 0.122 -0.332 Q 0.122 -0.181 0.133 -0.121 Q 0.151 -0.025 0.221 -0.004 Q 0.23500000000000001 0 0.249 0 Z"/></g></g><path fill="rgb(255,255,255)" stroke="none" paint-order="stroke fill markers" d=" M 702 481 L 729 481 L 729 514 L 702 514 L 702 481 Z" fill-opacity="1"/><g transform="scale(19,19)"><g transform="translate(37.40307797368421,26.37865552631579)"><path fill="rgb(204,0,0)" stroke="none" paint-order="stroke fill markers" d=" M 0.25 -0.6940000000000001 L 0.383 -0.558 L 0.365 -0.54 L 0.25 -0.642 L 0.134 -0.54 L 0.116 -0.558 L 0.25 -0.6940000000000001 Z"/></g><g transform="translate(37.31578947368421,26.63421152631579)"><path fill="rgb(204,0,0)" stroke="none" paint-order="stroke fill markers" d=" M 0.734 -0.6 L 0.429 -0.274 L 0.373 -0.049 Q 0.41500000000000004 -0.047 0.434 -0.047 Q 0.451 -0.047 0.458 -0.0465 Q 0.465 -0.046 0.47050000000000003 -0.042 Q 0.47600000000000003 -0.038 0.47600000000000003 -0.029 Q 0.47600000000000003 -0.016 0.47000000000000003 -0.009000000000000001 Q 0.464 -0.002 0.459 -0.001 Q 0.454 0 0.447 0 Q 0.43 0 0.3705 -0.0015 Q 0.311 -0.003 0.294 -0.003 Q 0.28200000000000003 -0.003 0.2575 -0.0025 Q 0.233 -0.002 0.221 -0.002 Q 0.20800000000000002 -0.002 0.183 -0.001 Q 0.158 0 0.145 0 Q 0.123 0 0.123 -0.018000000000000002 Q 0.123 -0.035 0.133 -0.043000000000000003 Q 0.137 -0.047 0.169 -0.047 Q 0.20400000000000001 -0.047 0.221 -0.049 Q 0.234 -0.05 0.23750000000000002 -0.0525 Q 0.241 -0.055 0.244 -0.068 L 0.296 -0.274 L 0.14400000000000002 -0.623 Q 0.14 -0.632 0.137 -0.634 Q 0.134 -0.636 0.124 -0.638 Q 0.11 -0.639 0.085 -0.639 Q 0.068 -0.639 0.0615 -0.6395000000000001 Q 0.055 -0.64 0.0495 -0.644 Q 0.044 -0.648 0.044 -0.657 Q 0.044 -0.67 0.0495 -0.677 Q 0.055 -0.684 0.059500000000000004 -0.685 Q 0.064 -0.686 0.07200000000000001 -0.686 Q 0.083 -0.686 0.1075 -0.685 Q 0.132 -0.684 0.14400000000000002 -0.684 Q 0.155 -0.684 0.178 -0.6835 Q 0.201 -0.683 0.213 -0.683 Q 0.23 -0.683 0.2905 -0.6845 Q 0.35100000000000003 -0.686 0.368 -0.686 Q 0.39 -0.686 0.39 -0.668 Q 0.39 -0.649 0.3815 -0.644 Q 0.373 -0.639 0.356 -0.639 Q 0.328 -0.639 0.3 -0.635 L 0.428 -0.342 L 0.6990000000000001 -0.632 Q 0.678 -0.639 0.654 -0.639 Q 0.627 -0.639 0.627 -0.657 Q 0.627 -0.686 0.654 -0.686 Q 0.672 -0.686 0.709 -0.6845 Q 0.746 -0.683 0.765 -0.683 Q 0.78 -0.683 0.8115 -0.6845 Q 0.843 -0.686 0.857 -0.686 Q 0.866 -0.686 0.8705 -0.68 Q 0.875 -0.674 0.875 -0.668 Q 0.875 -0.655 0.8695 -0.648 Q 0.864 -0.641 0.859 -0.64 Q 0.854 -0.639 0.846 -0.639 Q 0.8 -0.638 0.7765 -0.629 Q 0.753 -0.62 0.734 -0.6 Z"/></g></g><path fill="rgb(255,255,255)" stroke="none" paint-order="stroke fill markers" d=" M 864 426 L 889 426 L 889 456 L 864 456 L 864 426 Z" fill-opacity="1"/><g transform="scale(19,19)"><g transform="translate(45.8565132631579,23.5365502631579)"><path fill="rgb(0,0,0)" stroke="none" paint-order="stroke fill markers" d=" M 0.25 -0.6940000000000001 L 0.383 -0.558 L 0.365 -0.54 L 0.25 -0.642 L 0.134 -0.54 L 0.116 -0.558 L 0.25 -0.6940000000000001 Z"/></g><g transform="translate(45.8421052631579,23.550440263157903)"><path fill="rgb(0,0,0)" stroke="none" paint-order="stroke fill markers" d=" M 0.41200000000000003 -0.108 L 0.41600000000000004 -0.11 Q 0.419 -0.111 0.422 -0.111 Q 0.429 -0.111 0.434 -0.106 Q 0.439 -0.101 0.439 -0.094 Q 0.439 -0.08600000000000001 0.4275 -0.0695 Q 0.41600000000000004 -0.053 0.3935 -0.033 Q 0.371 -0.013000000000000001 0.326 0.002 Q 0.281 0.017 0.224 0.017 Q 0.129 0.017 0.082 -0.02 Q 0.035 -0.057 0.035 -0.113 Q 0.035 -0.182 0.1 -0.23600000000000002 Q 0.079 -0.26 0.079 -0.294 Q 0.079 -0.355 0.1465 -0.40800000000000003 Q 0.214 -0.461 0.333 -0.461 Q 0.386 -0.461 0.43 -0.441 Q 0.459 -0.427 0.47100000000000003 -0.41600000000000004 Q 0.483 -0.405 0.483 -0.392 Q 0.483 -0.375 0.4685 -0.361 Q 0.454 -0.34700000000000003 0.438 -0.34700000000000003 Q 0.429 -0.34700000000000003 0.41600000000000004 -0.355 Q 0.373 -0.385 0.314 -0.385 Q 0.226 -0.385 0.176 -0.3605 Q 0.126 -0.336 0.126 -0.294 Q 0.126 -0.274 0.138 -0.259 Q 0.191 -0.28400000000000003 0.265 -0.28400000000000003 Q 0.28200000000000003 -0.28400000000000003 0.2925 -0.28300000000000003 Q 0.303 -0.28200000000000003 0.3185 -0.279 Q 0.334 -0.276 0.342 -0.2665 Q 0.35000000000000003 -0.257 0.35000000000000003 -0.243 Q 0.35000000000000003 -0.188 0.247 -0.188 Q 0.17500000000000002 -0.188 0.134 -0.21 Q 0.109 -0.192 0.0965 -0.168 Q 0.084 -0.14400000000000002 0.084 -0.126 Q 0.084 -0.10200000000000001 0.098 -0.08750000000000001 Q 0.112 -0.073 0.1405 -0.0675 Q 0.169 -0.062 0.1885 -0.0605 Q 0.20800000000000002 -0.059000000000000004 0.241 -0.059000000000000004 Q 0.317 -0.059000000000000004 0.3565 -0.068 Q 0.396 -0.077 0.41200000000000003 -0.108 M 0.177 -0.23500000000000001 Q 0.20500000000000002 -0.224 0.248 -0.224 Q 0.271 -0.224 0.28300000000000003 -0.2265 Q 0.295 -0.229 0.298 -0.2325 Q 0.301 -0.23600000000000002 0.303 -0.243 Q 0.28800000000000003 -0.248 0.261 -0.248 Q 0.213 -0.248 0.177 -0.23500000000000001 Z"/></g></g><path fill="rgb(255,255,255)" stroke="none" paint-order="stroke fill markers" d=" M 800 454 L 831 454 L 831 485 L 800 485 L 800 454 Z" fill-opacity="1"/><g transform="scale(19,19)"><g transform="translate(42.48809221052632,24.957602894736844)"><path fill="rgb(0,0,0)" stroke="none" paint-order="stroke fill markers" d=" M 0.25 -0.6940000000000001 L 0.383 -0.558 L 0.365 -0.54 L 0.25 -0.642 L 0.134 -0.54 L 0.116 -0.558 L 0.25 -0.6940000000000001 Z"/></g><g transform="translate(42.473684210526315,24.971492894736848)"><path fill="rgb(0,0,0)" stroke="none" paint-order="stroke fill markers" d=" M 0.41200000000000003 -0.108 L 0.41600000000000004 -0.11 Q 0.419 -0.111 0.422 -0.111 Q 0.429 -0.111 0.434 -0.106 Q 0.439 -0.101 0.439 -0.094 Q 0.439 -0.08600000000000001 0.4275 -0.0695 Q 0.41600000000000004 -0.053 0.3935 -0.033 Q 0.371 -0.013000000000000001 0.326 0.002 Q 0.281 0.017 0.224 0.017 Q 0.129 0.017 0.082 -0.02 Q 0.035 -0.057 0.035 -0.113 Q 0.035 -0.182 0.1 -0.23600000000000002 Q 0.079 -0.26 0.079 -0.294 Q 0.079 -0.355 0.1465 -0.40800000000000003 Q 0.214 -0.461 0.333 -0.461 Q 0.386 -0.461 0.43 -0.441 Q 0.459 -0.427 0.47100000000000003 -0.41600000000000004 Q 0.483 -0.405 0.483 -0.392 Q 0.483 -0.375 0.4685 -0.361 Q 0.454 -0.34700000000000003 0.438 -0.34700000000000003 Q 0.429 -0.34700000000000003 0.41600000000000004 -0.355 Q 0.373 -0.385 0.314 -0.385 Q 0.226 -0.385 0.176 -0.3605 Q 0.126 -0.336 0.126 -0.294 Q 0.126 -0.274 0.138 -0.259 Q 0.191 -0.28400000000000003 0.265 -0.28400000000000003 Q 0.28200000000000003 -0.28400000000000003 0.2925 -0.28300000000000003 Q 0.303 -0.28200000000000003 0.3185 -0.279 Q 0.334 -0.276 0.342 -0.2665 Q 0.35000000000000003 -0.257 0.35000000000000003 -0.243 Q 0.35000000000000003 -0.188 0.247 -0.188 Q 0.17500000000000002 -0.188 0.134 -0.21 Q 0.109 -0.192 0.0965 -0.168 Q 0.084 -0.14400000000000002 0.084 -0.126 Q 0.084 -0.10200000000000001 0.098 -0.08750000000000001 Q 0.112 -0.073 0.1405 -0.0675 Q 0.169 -0.062 0.1885 -0.0605 Q 0.20800000000000002 -0.059000000000000004 0.241 -0.059000000000000004 Q 0.317 -0.059000000000000004 0.3565 -0.068 Q 0.396 -0.077 0.41200000000000003 -0.108 M 0.177 -0.23500000000000001 Q 0.20500000000000002 -0.224 0.248 -0.224 Q 0.271 -0.224 0.28300000000000003 -0.2265 Q 0.295 -0.229 0.298 -0.2325 Q 0.301 -0.23600000000000002 0.303 -0.243 Q 0.28800000000000003 -0.248 0.261 -0.248 Q 0.213 -0.248 0.177 -0.23500000000000001 Z"/></g><g transform="translate(43.002502210526316,25.12149289473684) scale(0.7,0.7)"><path fill="rgb(0,0,0)" stroke="none" paint-order="stroke fill markers" d=" M 0.46 -0.32 Q 0.46 -0.17400000000000002 0.423 -0.094 Q 0.364 0.018000000000000002 0.249 0.022 Q 0.158 0.022 0.10300000000000001 -0.05 Q 0.092 -0.063 0.084 -0.079 Q 0.039 -0.162 0.039 -0.32 Q 0.039 -0.467 0.076 -0.547 Q 0.126 -0.659 0.23800000000000002 -0.666 L 0.25 -0.666 Q 0.339 -0.666 0.395 -0.595 L 0.395 -0.594 Q 0.40900000000000003 -0.5760000000000001 0.42 -0.554 Q 0.46 -0.46900000000000003 0.46 -0.32 M 0.249 0 L 0.249 0 Q 0.312 0 0.34600000000000003 -0.061 Q 0.36 -0.088 0.366 -0.125 Q 0.377 -0.189 0.377 -0.332 Q 0.377 -0.47100000000000003 0.367 -0.527 Q 0.34900000000000003 -0.622 0.275 -0.641 Q 0.262 -0.644 0.249 -0.644 Q 0.179 -0.644 0.147 -0.5740000000000001 Q 0.136 -0.55 0.13 -0.516 Q 0.122 -0.462 0.122 -0.332 Q 0.122 -0.181 0.133 -0.121 Q 0.151 -0.025 0.221 -0.004 Q 0.23500000000000001 0 0.249 0 Z"/></g></g></g></g></svg>